<?xml version="1.0" encoding="UTF-8" standalone="no"?>
<!-- Created with Inkscape (http://www.inkscape.org/) -->

<svg
   xmlns:dc="http://purl.org/dc/elements/1.1/"
   xmlns:cc="http://creativecommons.org/ns#"
   xmlns:rdf="http://www.w3.org/1999/02/22-rdf-syntax-ns#"
   xmlns:svg="http://www.w3.org/2000/svg"
   xmlns="http://www.w3.org/2000/svg"
   xmlns:sodipodi="http://sodipodi.sourceforge.net/DTD/sodipodi-0.dtd"
   xmlns:inkscape="http://www.inkscape.org/namespaces/inkscape"
   width="40.639999mm"
   height="128.5mm"
   viewBox="0 0 40.639998 128.5"
   version="1.1"
   id="svg8"
   sodipodi:docname="moggle.svg"
   inkscape:version="0.92.5 (2060ec1f9f, 2020-04-08)">
  <defs
     id="defs2" />
  <sodipodi:namedview
     id="base"
     pagecolor="#ffffff"
     bordercolor="#666666"
     borderopacity="1.0"
     inkscape:pageopacity="0.0"
     inkscape:pageshadow="2"
     inkscape:zoom="1.5998541"
     inkscape:cx="0.55753292"
     inkscape:cy="202.56139"
     inkscape:document-units="mm"
     inkscape:current-layer="layer8"
     showgrid="false"
     units="mm"
     viewbox-x="200"
     scale-x="2"
     viewbox-y="-4"
     inkscape:window-width="1920"
     inkscape:window-height="1019"
     inkscape:window-x="0"
     inkscape:window-y="0"
     inkscape:window-maximized="1"
     showguides="false"
     inkscape:guide-bbox="true"
     borderlayer="false"
     inkscape:snap-global="false">
    <inkscape:grid
       type="xygrid"
       id="grid162"
       units="mm"
       spacingy="8.0312501"
       spacingx="10.16"
       dotted="false"
       color="#9292ff"
       opacity="0.1254902"
       empcolor="#6969ff"
       empopacity="0.25098039"
       empspacing="2" />
    <sodipodi:guide
       position="0,120.46875"
       orientation="0,1"
       id="guide9"
       inkscape:locked="false" />
    <sodipodi:guide
       position="0,8.0312502"
       orientation="0,1"
       id="guide11"
       inkscape:locked="false" />
    <sodipodi:guide
       position="0,16.06248"
       orientation="0,1"
       id="guide13"
       inkscape:locked="false" />
    <sodipodi:guide
       position="0,112.43736"
       orientation="0,1"
       id="guide15"
       inkscape:locked="false" />
  </sodipodi:namedview>
  <metadata
     id="metadata5">
    <rdf:RDF>
      <cc:Work
         rdf:about="">
        <dc:format>image/svg+xml</dc:format>
        <dc:type
           rdf:resource="http://purl.org/dc/dcmitype/StillImage" />
        <dc:title></dc:title>
        <cc:license
           rdf:resource="http://creativecommons.org/publicdomain/zero/1.0/" />
      </cc:Work>
      <cc:License
         rdf:about="http://creativecommons.org/publicdomain/zero/1.0/">
        <cc:permits
           rdf:resource="http://creativecommons.org/ns#Reproduction" />
        <cc:permits
           rdf:resource="http://creativecommons.org/ns#Distribution" />
        <cc:permits
           rdf:resource="http://creativecommons.org/ns#DerivativeWorks" />
      </cc:License>
    </rdf:RDF>
  </metadata>
  <g
     inkscape:groupmode="layer"
     id="layer4"
     inkscape:label="Background"
     style="display:inline"
     sodipodi:insensitive="true">
    <g
       inkscape:groupmode="layer"
       id="layer2"
       inkscape:label="panel"
       style="display:inline">
      <rect
         style="display:inline;opacity:1;fill:#000000;fill-opacity:1;fill-rule:nonzero;stroke:#000000;stroke-width:0.12773514;stroke-linecap:round;stroke-linejoin:round;stroke-miterlimit:4;stroke-dasharray:none;stroke-dashoffset:8.61732292;stroke-opacity:1;paint-order:normal"
         id="rect5610"
         width="40.512264"
         height="128.37227"
         x="0.063867569"
         y="0.063865662"
         ry="0.79920417"
         inkscape:label="rect5610" />
    </g>
    <g
       inkscape:groupmode="layer"
       id="layer3"
       inkscape:label="logo"
       style="display:inline">
      <path
         style="fill:#333333;fill-opacity:1;stroke-width:0.17244411"
         id="path212-7"
         d="m 17.119465,125.07804 c 0.05679,-0.70491 0.198145,-1.39639 0.374774,-2.07979 0.18016,-0.70798 0.40724,-1.40307 0.565389,-2.11676 0.106384,-0.48016 0.11811,-0.59855 0.194684,-1.07876 0.09819,-0.72762 0.211722,-1.45606 0.259942,-2.18926 0.03052,-0.70902 -0.203373,-0.31763 0.991632,-0.82182 0.215763,0.51107 0.382163,1.03978 0.552702,1.56718 0.35768,1.06679 0.655483,2.15219 0.915707,3.24646 0.137467,0.66412 0.277886,1.32769 0.382588,1.99791 0.02035,0.12475 0.03504,0.25023 0.05058,0.37559 0.173704,0.37342 -0.783639,0.75054 -1.032136,0.45076 -0.02515,-0.0318 -0.038,-0.0651 -0.0397,-0.10568 -4.81e-4,-0.0249 -4.04e-4,-0.0497 -4.81e-4,-0.0746 -0.0043,-0.0358 -0.01935,-0.0496 0.03518,0.0702 -0.117122,-0.11967 -0.11585,-0.2899 -0.112177,-0.44676 0.05157,-0.50092 0.138314,-0.99824 0.2176,-1.49552 0.108645,-0.74771 0.173605,-1.50153 0.233917,-2.25452 0.04521,-0.62409 0.119948,-1.24202 0.306734,-1.84039 0.158983,-0.50153 0.4199,-0.77263 0.847326,-1.05771 0.788063,-0.53051 1.577607,-0.89923 2.499517,-1.06933 0.636326,-0.0784 1.282034,-0.14219 1.921426,-0.0702 0.365634,0.0757 0.601825,0.23909 0.422512,0.65146 -0.04266,0.0981 -0.108643,0.18428 -0.163023,0.27643 -0.760736,0.92675 -1.760988,1.61115 -2.742433,2.28198 -1.059178,0.69196 -2.145523,1.34335 -3.255067,1.95136 -0.105819,0.0562 -0.152965,0.0822 -0.252694,0.13211 -0.03405,0.0169 -0.134358,0.0705 -0.103417,0.0483 0.977122,-0.70098 0.574417,-0.59928 1.11795,-0.70495 0.807487,-0.15868 1.628734,-0.22968 2.448711,-0.28622 0.699449,-0.0178 1.405625,-0.0172 2.102251,0.0602 0.386755,0.043 0.528939,0.0807 0.90244,0.1575 0.502959,0.143 1.03738,0.34115 1.39551,0.74418 0.05623,0.0633 0.100026,0.13661 0.150041,0.2049 0.204728,0.36481 0.310124,0.79305 0.18776,1.20442 -0.02613,0.088 -0.06697,0.17093 -0.100449,0.25638 -0.274382,0.54057 -0.739801,0.90623 -1.258327,1.19871 -0.429053,0.242 -0.862699,0.47575 -1.294043,0.71364 -1.185071,0.53564 -2.450378,0.84038 -3.72046,1.09252 -1.286115,0.21579 -2.599117,0.30263 -3.902639,0.23892 -0.24936,-0.0127 -0.497873,-0.038 -0.746822,-0.057 -1.242503,-0.11091 -2.463038,-0.37917 -3.646231,-0.76897 -0.535523,-0.21943 -1.207819,-0.46409 -1.473666,-1.03292 -0.0397,-0.0849 -0.05369,-0.17958 -0.08039,-0.26936 -0.0011,-0.10017 -0.01469,-0.20112 -0.0028,-0.30071 0.05807,-0.50679 0.381075,-0.99174 0.729091,-1.34663 0.124327,-0.12688 0.264744,-0.23687 0.39711,-0.35531 1.1071,-0.80731 2.341099,-1.41551 3.62997,-1.86903 0.733824,-0.2582 1.210051,-0.38498 1.960306,-0.60299 0,0 -0.762983,0.58827 -0.762983,0.58827 v 0 c -0.773227,0.22837 -1.210957,0.34484 -1.96576,0.61752 -0.291885,0.1054 -0.577949,0.22632 -0.866938,0.33948 -0.252312,0.11628 -0.497406,0.24962 -0.756938,0.34869 -0.08152,0.0311 0.291646,-0.19152 0.218943,-0.14333 -0.170201,0.11274 -0.340924,0.22476 -0.511393,0.33715 -0.131814,0.11302 -0.271116,0.21804 -0.395528,0.33927 -0.340316,0.33164 -0.665896,0.79134 -0.742978,1.27266 -0.01441,0.09 -0.0057,0.18225 -0.0085,0.27337 0.02119,0.081 0.02967,0.16636 0.06358,0.24285 0.237378,0.53477 0.920907,0.78235 1.415699,0.98653 1.171114,0.38871 2.378918,0.65838 3.610388,0.76384 0.247029,0.0182 0.493647,0.0432 0.741085,0.0546 1.30081,0.0593 2.610535,-0.0325 3.892102,-0.2583 1.274941,-0.26078 2.545487,-0.57684 3.728583,-1.13313 -0.15733,0.10002 -0.325665,0.18452 -0.472003,0.30005 -0.107091,0.0846 0.238255,-0.13365 0.353624,-0.2066 0.375452,-0.23754 0.69637,-0.53467 0.916146,-0.92483 0.07205,-0.16342 0.1421,-0.28864 0.166414,-0.46752 0.04253,-0.31281 -0.0575,-0.62643 -0.205888,-0.89654 -0.04634,-0.0629 -0.08689,-0.1304 -0.13902,-0.18848 -0.346942,-0.38595 -0.86287,-0.57294 -1.347728,-0.70744 -0.980288,-0.19947 -1.980764,-0.25297 -2.979912,-0.20087 -0.828904,0.0624 -1.658813,0.14238 -2.472347,0.31972 -0.05736,0.0113 -0.212075,0.0767 -0.171994,0.0342 0.412255,-0.43779 0.630858,-0.58733 1.07363,-0.80865 0.452804,-0.24731 0.146494,-0.0826 -0.395161,0.23893 -0.123337,0.0732 0.248979,-0.14225 0.372203,-0.21552 0.514656,-0.30602 1.023575,-0.62225 1.525643,-0.94848 0.970353,-0.65804 1.95262,-1.3292 2.720632,-2.22704 0.271162,-0.40677 0.425199,-0.62727 -0.160649,-0.74058 -0.632156,-0.0627 -1.270688,-5.8e-4 -1.89728,0.0914 -0.38174,0.0801 -0.751159,0.18205 -1.109899,0.33808 -0.08434,0.0368 -0.326101,0.16924 -0.249372,0.1184 0.217133,-0.14382 0.448084,-0.26562 0.672126,-0.39842 -0.427316,0.26254 -0.709891,0.50036 -0.8768,0.99213 -0.202933,0.58987 -0.282883,1.20376 -0.330241,1.82432 -0.06075,0.75424 -0.125315,1.50907 -0.225667,2.25913 -0.07516,0.49027 -0.153896,0.98129 -0.201861,1.47487 -0.0071,0.0901 -0.0085,0.16792 0.01272,0.25619 0.0043,0.017 0.0085,0.0637 0.01808,0.0489 0.0028,-0.006 -0.0014,-0.0113 -0.0028,-0.0179 0.02105,0.0267 0.04196,0.0534 0.06301,0.0802 -9.92e-4,5.8e-4 -0.0028,10e-4 -0.0028,0.003 -0.0014,0.0235 -0.0028,0.047 -0.0028,0.0706 -7.59e-4,0.023 -0.01271,0.0188 0.0014,0.0379 0.0085,0.008 0.05877,0.0421 0.0558,0.0438 -0.810424,0.51073 -1.101999,0.26245 -0.902328,0.55265 0.0057,-0.12447 -0.01823,-0.24913 -0.02727,-0.37296 -0.08208,-0.67439 -0.214392,-1.34077 -0.345302,-2.00708 -0.24984,-1.09312 -0.545865,-2.17622 -0.917248,-3.23483 -0.175894,-0.51293 -0.350347,-1.02597 -0.575887,-1.51951 0.306564,-0.17765 0.620277,-0.34349 0.919692,-0.53293 0.01271,-0.007 -0.01808,-0.0356 -0.03094,-0.0294 -0.01413,0.007 0.0113,0.35952 -0.01413,0.36937 -0.06555,0.74084 -0.190798,1.47588 -0.288748,2.21287 -0.172715,1.08565 -0.446036,2.14453 -0.74863,3.20072 -0.172969,0.67207 -0.317005,1.35389 -0.348807,2.04937 0,0 -0.952553,0.47344 -0.952553,0.47344 z"
         inkscape:connector-curvature="0" />
    </g>
  </g>
  <g
     inkscape:groupmode="layer"
     id="layer7"
     inkscape:label="decals"
     sodipodi:insensitive="true">
    <rect
       style="opacity:1;fill:#e6e6e6;fill-opacity:1;fill-rule:nonzero;stroke:none;stroke-width:0.414;stroke-linecap:round;stroke-linejoin:round;stroke-miterlimit:4;stroke-dasharray:none;stroke-dashoffset:8.61732292;stroke-opacity:1;paint-order:markers fill stroke"
       id="rect1442"
       width="19.514801"
       height="25.964607"
       x="10.562599"
       y="84.985085"
       ry="0.79999942" />
    <g
       id="g1470"
       transform="matrix(1.053846,0,0,1.053846,-1.5314747,-0.65104945)">
      <path
         inkscape:connector-curvature="0"
         d="m 4.3682662,13.901863 c 0.050809,0.794095 0.131212,1.585652 0.2254188,2.3757 0.1200809,0.949467 0.2651926,1.895273 0.4260081,2.838624 0.112828,0.68841 0.3568156,0.706786 -1.1587886,0.287168 -0.067492,-0.01869 0.046119,-0.13231 0.065953,-0.199473 0.027425,-0.09286 0.050512,-0.186962 0.075767,-0.280442 0.1963773,-0.880282 0.4151854,-1.752874 0.6708565,-2.617814 0.198978,-0.643228 0.3785072,-1.301411 0.7472982,-1.871335 0.3958709,-0.448518 0.8573576,-0.209485 1.581271,-0.09376 0.097632,0.0156 0.4016198,0.795255 0.4266263,0.85741 0.4277576,1.165932 0.6850678,2.385811 0.9582443,3.594922 0.1060784,0.377407 0.1682875,0.769637 0.2894052,1.14316 0.01881,0.05801 0.035311,0.11902 0.070587,0.168764 0.01492,0.02103 0.096746,0.03165 0.070968,0.03082 -0.4063699,-0.01304 -0.8119059,-0.04516 -1.2178585,-0.06775 0.028806,-0.05798 0.063964,-0.113235 0.086419,-0.173958 0.048723,-0.131776 0.1833969,-0.640554 0.2084206,-0.739887 0.1382867,-0.548934 0.2380679,-1.102911 0.337636,-1.65985 0.1551216,-0.901632 0.2776613,-1.807302 0.5098654,-2.693265 0.027394,-0.07954 0.087244,-0.274449 0.1387646,-0.359334 0.026694,-0.04397 0.1081855,-0.144005 0.1761759,-0.141222 1.425773,0.05835 1.134847,-0.268856 1.511881,0.279659 0.425578,0.766913 0.602324,1.63917 0.788964,2.48748 0.124676,0.539721 0.210271,1.088852 0.367644,1.62087 0.08212,0.277615 0.182393,0.523336 0.285948,0.791789 0,0 -1.255443,0.04449 -1.255443,0.04449 v 0 C 10.658137,19.247499 10.567269,19.0045 10.488071,18.71878 10.339802,18.183876 10.253256,17.63471 10.126446,17.094854 9.9337691,16.263545 9.7551351,15.395536 9.2903038,14.66638 8.8914422,14.245618 9.1523722,14.585755 10.337187,14.500423 c 0.03219,-0.0024 -0.05485,-0.04254 -0.08713,-0.04226 -0.08584,7.33e-4 -0.132168,0.120799 -0.156428,0.172497 -0.03134,0.0668 -0.05551,0.13674 -0.08327,0.20511 -0.264817,0.87582 -0.394551,1.779715 -0.5495637,2.679814 -0.1548442,0.892348 -0.306429,1.790652 -0.5707619,2.658208 -0.4544383,0.02272 -0.9083754,0.07594 -1.3633147,0.06817 -0.041123,-7e-4 -0.095041,-0.183135 -0.1187454,-0.275491 C 7.3107121,19.587522 7.2511726,19.198939 7.157004,18.819288 6.9029113,17.612043 6.6436075,16.395322 6.1786067,15.248516 6.0832562,15.038713 5.9907204,14.795743 5.8488682,14.607058 c -0.03584,-0.04768 -0.1893454,-0.113432 -0.130399,-0.122512 0.3874908,-0.05972 0.7838972,-0.02095 1.1755676,-0.03858 0.031194,-0.0014 -0.0636,-0.02028 -0.09313,-0.01015 -0.039497,0.01357 -0.066254,0.05088 -0.099381,0.07631 -0.4030305,0.540469 -0.5859027,1.194165 -0.7878406,1.82915 -0.2548179,0.861579 -0.4710294,1.731027 -0.6426246,2.613296 -0.021987,0.09508 -0.043248,0.190311 -0.065958,0.285211 -0.017373,0.07259 0.0185,0.200688 -0.054284,0.217258 C 3.6993785,19.787487 3.8487873,19.889619 3.7518616,19.135076 3.6288835,18.18671 3.4899188,17.240501 3.3614197,16.292887 3.2580537,15.502068 3.1725147,14.709394 3.0747544,13.91795 c 0,0 1.2935118,-0.01609 1.2935118,-0.01609 z"
         id="path1445"
         style="opacity:1;fill:#e6e6e6;fill-opacity:1;fill-rule:nonzero;stroke:none;stroke-width:0.54555273;stroke-linecap:round;stroke-linejoin:round;stroke-miterlimit:4;stroke-dasharray:none;stroke-dashoffset:8.61732292;stroke-opacity:1;paint-order:markers fill stroke" />
      <path
         inkscape:connector-curvature="0"
         d="m 14.816946,15.452848 c -0.06099,-0.306266 -0.05751,-0.671608 -0.273546,-0.922846 -0.03582,-0.04165 -0.08464,-0.07005 -0.126953,-0.105078 -0.05175,-0.01923 -0.100717,-0.04906 -0.155243,-0.05767 -0.06183,-0.0098 -0.250269,8e-5 -0.187764,0.0036 0.346836,0.01895 0.699879,-0.02151 1.041165,0.04313 0.0907,0.01718 -0.174608,0.06208 -0.256043,0.105566 -0.270148,0.144254 -0.321597,0.218532 -0.550583,0.427379 -0.480339,0.49919 -0.838218,1.107987 -0.945064,1.800657 -0.02339,0.151632 -0.02425,0.305892 -0.03637,0.458837 0.02798,0.697268 0.137179,1.495491 0.670324,2.00751 0.08204,0.07879 0.184505,0.133069 0.276756,0.199604 0.101507,0.02919 0.409706,0.07791 0.304528,0.08755 -0.309014,0.02836 -0.628484,0.04136 -0.93045,-0.03011 -0.113156,-0.02679 0.227228,-0.05828 0.330393,-0.11193 0.4501,-0.234061 0.62687,-0.579273 0.863033,-1.001183 0.49963,-1.111401 0.536768,-2.24035 0.423224,-3.431898 -0.04175,-0.262374 -0.164593,-1.213706 -0.548461,-1.262593 -0.03872,-0.0049 -0.07539,0.0202 -0.113091,0.03029 2.04946,0.02505 1.155601,-0.293618 1.040989,0.280374 -0.01094,0.05508 -0.0062,0.112168 -0.0094,0.168263 0,0 -1.282981,-0.0065 -1.282981,-0.0065 v 0 c 0.04105,-0.906357 0.379528,-0.583706 1.528554,-0.639131 0.03891,0.01326 0.08164,0.01838 0.116754,0.03977 0.411439,0.250545 0.430013,0.972671 0.504047,1.37866 0.09441,1.188615 0.05892,2.391097 -0.421657,3.503737 -0.197952,0.383787 -0.230805,0.521749 -0.529096,0.827264 -0.64215,0.6577 -1.724726,0.670956 -2.532241,0.281621 -0.0918,-0.07727 -0.193933,-0.143736 -0.275404,-0.23184 -0.518297,-0.560498 -0.631664,-1.370667 -0.660996,-2.098882 0.01131,-0.159144 0.01125,-0.319502 0.0339,-0.477429 0.102443,-0.714254 0.455942,-1.348203 0.938635,-1.874373 0.233485,-0.232865 0.269673,-0.295505 0.542535,-0.469154 0.559122,-0.355822 0.856621,-0.183866 1.745052,-0.193201 0.06681,-6.97e-4 0.133834,0.01746 0.196043,0.04185 0.05776,0.02265 0.105803,0.06483 0.158703,0.09725 0.04285,0.04722 0.09194,0.08945 0.128574,0.141643 0.198859,0.283414 0.206713,0.648719 0.285614,0.973182 0,0 -1.293512,0.01609 -1.293512,0.01609 z"
         id="path1447"
         style="opacity:1;fill:#e6e6e6;fill-opacity:1;fill-rule:nonzero;stroke:none;stroke-width:0.54555273;stroke-linecap:round;stroke-linejoin:round;stroke-miterlimit:4;stroke-dasharray:none;stroke-dashoffset:8.61732292;stroke-opacity:1;paint-order:markers fill stroke" />
      <path
         inkscape:connector-curvature="0"
         d="m 20.331205,16.731861 c 0.151431,-0.231702 0.266214,-0.467516 0.226111,-0.747171 -0.09347,-0.342581 -0.336697,-0.567738 -0.635271,-0.739176 -0.07132,-0.02701 -0.141098,-0.0585 -0.213943,-0.08105 -0.08026,-0.02487 -0.161851,-0.04632 -0.244583,-0.06101 -0.08497,-0.01509 -0.343636,-0.0268 -0.257351,-0.02815 0.333046,-0.0051 0.667724,-0.01692 0.999125,0.01655 0.09074,0.0092 -0.181682,0.02658 -0.267543,0.05735 -0.089,0.03189 -0.16839,0.08602 -0.252585,0.129022 -0.485843,0.385569 -0.731761,0.974529 -0.805793,1.581489 -0.01645,0.134763 -0.01291,0.271219 -0.01932,0.40683 0.03613,0.397375 0.10745,1.143776 0.639796,1.20798 0.07501,0.0091 0.150252,-0.01602 0.225378,-0.02405 -0.340093,-0.02439 -0.694967,0.02895 -1.020277,-0.07319 -0.09537,-0.02994 0.172052,-0.103787 0.247399,-0.169466 0.341376,-0.297601 0.567228,-0.720639 0.778862,-1.112729 0.09689,-0.181325 0.172659,-0.372166 0.251712,-0.561461 0.0112,-0.02684 0.02368,-0.05313 0.03526,-0.07982 0.0088,-0.0204 0.0038,-0.06257 0.02601,-0.06141 0.442243,0.02293 0.881337,0.08755 1.322007,0.131315 0.109809,0.889624 0.256862,1.774392 0.397697,2.659535 0.120338,0.775656 0.247871,1.549866 0.334818,2.33022 0.04505,0.404338 0.108386,1.010687 0.101389,1.425013 -0.0034,0.203568 -0.03334,0.405825 -0.05002,0.608738 -0.112444,0.615801 -0.337888,1.263173 -0.942184,1.560913 -0.132728,0.0654 -0.275949,0.123277 -0.423619,0.132626 -0.571452,0.03619 -1.145191,0.002 -1.717788,0.0029 -0.177935,-0.05059 -0.360383,-0.08737 -0.533802,-0.151753 -0.865434,-0.321279 -1.65094,-0.89424 -2.319668,-1.520569 -0.177132,-0.1659 -0.339367,-0.347023 -0.509051,-0.520535 -0.396879,-0.446498 -0.800974,-0.906234 -1.080952,-1.43934 -0.110283,-0.209983 -0.222865,-0.470952 -0.198774,-0.719383 0.0099,-0.102008 0.06526,-0.194315 0.09788,-0.291474 0.292732,-0.37984 0.723271,-0.520477 1.150191,-0.696014 0,0 1.226466,0.146249 1.226466,0.146249 v 0 c -0.393669,0.156129 -0.801995,0.286685 -1.107226,0.596025 -0.03401,0.07764 -0.08982,0.149041 -0.102061,0.232917 -0.03269,0.223985 0.07697,0.476288 0.172448,0.663851 0.267496,0.525479 0.659646,0.97732 1.049786,1.413044 0.168627,0.170002 0.329608,0.347943 0.50588,0.510005 0.668515,0.614634 1.465648,1.181053 2.338306,1.462763 0.175321,0.0566 0.359279,0.08174 0.538919,0.122604 -0.249872,0.0086 -0.504573,0.07521 -0.749616,0.02558 -0.139473,-0.02824 0.284469,-0.04031 0.416655,-0.09301 0.605636,-0.241442 0.840023,-0.861268 0.960921,-1.448652 0.0199,-0.197772 0.05332,-0.394648 0.05971,-0.593316 0.01374,-0.426546 -0.0423,-0.996581 -0.08709,-1.41454 -0.08356,-0.779661 -0.213395,-1.552172 -0.345324,-2.324801 -0.154319,-0.877724 -0.304742,-1.756532 -0.48076,-2.630183 0.422399,-0.0017 0.845215,0.01355 1.267196,-0.0053 0.01848,-8.37e-4 -0.0055,-0.05494 -0.02348,-0.05029 -0.02605,0.0067 -0.03164,0.04383 -0.04389,0.0678 -0.09622,0.188076 -0.16567,0.390426 -0.274546,0.572464 -0.220875,0.406367 -0.452487,0.834483 -0.781142,1.166436 -0.07478,0.07553 -0.140166,0.185117 -0.244677,0.204457 -0.494921,0.0916 -1.003497,0.07959 -1.505245,0.119403 -0.07788,-0.01054 -0.159548,-0.0054 -0.233624,-0.03167 -0.524975,-0.185962 -0.582792,-0.900047 -0.622115,-1.355869 0.0067,-0.141522 0.0037,-0.283831 0.01999,-0.424565 0.07387,-0.636564 0.318489,-1.252947 0.795629,-1.690747 0.08485,-0.05407 0.163596,-0.119178 0.254549,-0.162188 0.08511,-0.04025 0.175166,-0.08078 0.269196,-0.08548 0.799464,-0.03995 1.536827,-0.130709 2.247403,0.21886 0.311346,0.211643 0.566448,0.472331 0.652357,0.851452 0.03857,0.321892 -0.0573,0.557223 -0.223871,0.83103 0,0 -1.291869,-0.06713 -1.291869,-0.06713 z"
         id="path1459"
         style="opacity:1;fill:#e6e6e6;fill-opacity:1;fill-rule:nonzero;stroke:none;stroke-width:0.54555273;stroke-linecap:round;stroke-linejoin:round;stroke-miterlimit:4;stroke-dasharray:none;stroke-dashoffset:8.61732292;stroke-opacity:1;paint-order:markers fill stroke" />
      <path
         inkscape:connector-curvature="0"
         d="m 24.022266,16.521296 c 0.143176,-0.410183 0.127599,-0.761319 -0.05199,-1.154134 -0.107595,-0.158433 -0.240256,-0.286192 -0.432706,-0.331019 -0.06416,-0.01494 -0.262539,-0.02042 -0.196672,-0.01941 1.183301,0.01825 1.368879,-0.0771 0.81035,0.114803 -0.656462,0.376786 -0.928403,1.020496 -1.103501,1.723474 -0.0416,0.285021 -0.129668,0.965442 0.317756,1.016012 0.06175,0.007 0.123303,-0.01571 0.184952,-0.02356 -0.348522,-0.01865 -0.705539,0.02277 -1.045568,-0.05594 -0.0883,-0.02044 0.162309,-0.08156 0.238306,-0.130946 0.352569,-0.229161 0.650754,-0.544407 0.947332,-0.838817 0.640723,-0.635468 0.834735,-0.547111 2.009367,-0.419115 0.09144,0.01002 0.312978,0.395616 0.330954,0.423687 0.05603,0.120799 0.117715,0.239132 0.168082,0.362399 0.09338,0.228524 0.271342,0.7671 0.345647,0.984244 0.219581,0.641693 0.437445,1.283948 0.657718,1.925404 0.292681,0.974238 0.684998,1.931245 0.862396,2.937177 0.02531,0.143583 0.03828,0.289072 0.05743,0.433609 0.04558,0.461037 -0.02567,0.912874 -0.402357,1.22269 -0.236371,0.194406 -0.392288,0.231149 -0.67584,0.346478 -0.142824,0.03352 -0.283439,0.07849 -0.428473,0.100584 -0.160144,0.02439 -0.322464,0.04009 -0.484447,0.03849 -0.996827,-0.0098 -1.470547,0.102034 -2.248678,-0.230437 -0.502164,-0.21456 -0.542084,-0.297664 -0.965666,-0.643413 -0.133036,-0.155037 -0.283796,-0.296476 -0.39911,-0.465111 -0.497374,-0.727354 -0.601016,-1.640384 -0.397862,-2.486672 0.0538,-0.224128 0.148689,-0.436355 0.223035,-0.654533 0.108609,-0.207735 0.21723,-0.41547 0.325845,-0.623205 0,0 1.213826,0.05907 1.213826,0.05907 v 0 c -0.107727,0.201491 -0.215445,0.402983 -0.323168,0.604474 -0.07319,0.210453 -0.166653,0.414918 -0.219581,0.631358 -0.19915,0.814404 -0.09372,1.690934 0.401918,2.381049 0.115937,0.161431 0.26625,0.295156 0.399375,0.442733 0.420086,0.319997 0.472517,0.408098 0.966834,0.597251 0.168108,0.06433 0.648691,0.02149 0.519611,0.146943 -0.173985,0.169091 -0.485308,0.02209 -0.72588,0.05353 -0.298239,0.03897 1.145383,-0.04986 0.896421,-0.103062 0.541082,-0.19329 1.017901,-0.386943 1.079588,-1.035066 0.0116,-0.122051 -0.0037,-0.245184 -0.0054,-0.367777 -0.01615,-0.141173 -0.02595,-0.283221 -0.04847,-0.42352 -0.160718,-1.001507 -0.541962,-1.956051 -0.834092,-2.922339 -0.222551,-0.642528 -0.445528,-1.284637 -0.677022,-1.924008 -0.08119,-0.224252 -0.261479,-0.735362 -0.36753,-0.968259 -0.05345,-0.117386 -0.12043,-0.228115 -0.180649,-0.342171 -0.05709,-0.0731 -0.103945,-0.155497 -0.171269,-0.219294 -0.04629,-0.04387 -0.227136,-0.08913 -0.164045,-0.09846 0.362098,-0.05353 0.731591,-0.02633 1.097387,-0.03951 -0.05942,0.01836 -0.122644,0.02724 -0.17826,0.05508 -0.158955,0.07958 -0.267347,0.200036 -0.395551,0.319524 -0.230132,0.228231 -0.458451,0.45952 -0.704132,0.671321 -0.03306,0.0285 -0.413118,0.347873 -0.4769,0.357249 -0.491816,0.07229 -0.992257,0.06216 -1.488386,0.09325 -0.06462,-0.01252 -0.133645,-0.01107 -0.193874,-0.03757 -0.434773,-0.191761 -0.349812,-0.81685 -0.299701,-1.181472 0.177768,-0.716278 0.462926,-1.413377 1.097315,-1.842569 0.664667,-0.321078 0.257685,-0.165483 1.722263,-0.142409 0.288451,0.0045 0.503856,0.253896 0.639186,0.475776 0.175633,0.431056 0.190543,0.809026 0.06726,1.258554 0,0 -1.293325,-0.0524 -1.293325,-0.0524 z"
         id="path1461"
         style="opacity:1;fill:#e6e6e6;fill-opacity:1;fill-rule:nonzero;stroke:none;stroke-width:0.54555273;stroke-linecap:round;stroke-linejoin:round;stroke-miterlimit:4;stroke-dasharray:none;stroke-dashoffset:8.61732292;stroke-opacity:1;paint-order:markers fill stroke" />
      <path
         inkscape:connector-curvature="0"
         d="m 28.425181,16.994397 c -0.363922,-0.007 -0.729512,0.01455 -1.091767,-0.02095 -0.08303,-0.0082 0.16424,-0.03312 0.242399,-0.06228 0.09716,-0.03625 0.191617,-0.08084 0.281181,-0.133113 0.408323,-0.238278 0.666076,-0.538502 0.965344,-0.896162 0.789861,-1.061376 1.307027,-2.290877 1.742715,-3.531261 0.193497,-0.627774 0.360029,-1.27068 0.413234,-1.927921 0.02015,-0.248898 0.02491,-0.5993155 -0.04216,-0.8510841 -0.0238,-0.089363 -0.07644,-0.1684196 -0.114659,-0.2526291 -0.05245,-0.04341 -0.09273,-0.1087653 -0.157344,-0.130229 -0.06153,-0.020438 -0.25835,0.00563 -0.194006,0.013511 0.338103,0.041424 0.705421,-0.047574 1.018142,0.087461 0.112234,0.048462 -0.201481,0.1409434 -0.287091,0.2282098 -0.304181,0.3100638 -0.436663,0.5729634 -0.671305,0.9468984 -0.672735,1.319504 -1.166261,2.734636 -1.412925,4.197148 -0.04675,0.277206 -0.07333,0.557439 -0.110007,0.836158 -0.03903,0.820579 -0.06083,1.729235 0.438627,2.43487 0.251134,0.354809 0.361353,0.368241 0.723934,0.580928 -0.232622,-0.03452 1.275687,0.349354 1.006962,0.142687 -0.163328,-0.125608 -0.649484,0.127467 -0.613505,-0.07541 0.03951,-0.22277 0.441683,-0.100888 0.657058,-0.170179 0.64899,-0.208797 0.778497,-0.307721 1.389853,-0.621957 1.19917,-0.66038 2.215429,-1.571787 3.083209,-2.62151 0.09323,-0.144443 0.652317,-0.752994 0.456452,-0.961011 -0.0312,-0.03313 -0.07681,-0.04882 -0.115225,-0.07323 -0.06379,-0.02211 -0.126189,-0.04873 -0.19137,-0.06632 -0.08535,-0.02304 -0.171896,-0.04259 -0.259378,-0.05532 -0.10007,-0.01456 -0.403361,-0.02646 -0.302233,-0.02642 0.303021,1.24e-4 0.613023,-0.03977 0.90867,0.02667 0.116635,0.02621 -0.234952,0.05197 -0.344354,0.10015 -0.117808,0.05188 -0.221191,0.131737 -0.331786,0.197606 -0.09522,0.09931 -0.205921,0.185811 -0.285672,0.297925 -0.382515,0.537755 -0.390086,1.260624 -0.10065,1.840835 0.08329,0.166986 0.20553,0.311528 0.308292,0.467291 0.777856,0.86462 1.872469,1.170442 2.959387,1.446503 0,0 -1.201274,0.159084 -1.201274,0.159084 v 0 c -1.129235,-0.299879 -2.194419,-0.617451 -2.987311,-1.535021 -0.104947,-0.165855 -0.230214,-0.320481 -0.314855,-0.497566 -0.296922,-0.621229 -0.288697,-1.386885 0.08866,-1.973173 0.07875,-0.122354 0.189677,-0.220722 0.284512,-0.331085 0.110428,-0.0763 0.212851,-0.165754 0.331297,-0.228904 0.58982,-0.314468 1.306224,-0.161091 1.938309,-0.154459 0.273061,0.0029 0.547844,0.08808 0.781504,0.224451 0.04109,0.04702 0.0933,0.08627 0.12325,0.141054 0.188059,0.343948 -0.340979,0.850403 -0.507443,1.087557 -0.894079,1.050838 -1.918114,1.982899 -3.125589,2.665486 -0.612877,0.328851 -0.729222,0.423096 -1.37912,0.649636 -0.213042,0.07426 -0.426056,0.162867 -0.650301,0.18769 -0.604174,0.06688 -1.213795,0.0754 -1.821568,0.08594 -0.51273,0.0088 -0.558402,-0.04831 -1.023876,-0.203603 -0.366634,-0.24603 -0.474944,-0.265364 -0.72242,-0.647757 -0.480492,-0.742446 -0.448285,-1.666338 -0.396793,-2.509582 0.03948,-0.281352 0.06951,-0.564191 0.11844,-0.844056 0.256861,-1.469441 0.743032,-2.893029 1.380061,-4.239391 0.230838,-0.397563 0.3473,-0.6443563 0.637456,-0.9869734 0.0834,-0.098478 0.150897,-0.2429076 0.276959,-0.2705063 0.494257,-0.1082078 1.007297,-0.1060467 1.513027,-0.1213775 0.07071,-0.00212 0.14297,0.028349 0.200567,0.069433 0.06395,0.045618 0.100506,0.1207701 0.150752,0.1811548 0.03439,0.095546 0.08247,0.1872265 0.103181,0.2866368 0.0555,0.2661853 0.04192,0.6216516 0.01517,0.8829946 -0.06804,0.664573 -0.241141,1.314203 -0.435285,1.95116 -0.431141,1.250533 -0.939957,2.49195 -1.71194,3.575323 -0.292606,0.372009 -0.547839,0.683468 -0.945253,0.949503 -0.07816,0.05233 -0.391966,0.235975 -0.512409,0.243688 -0.485007,0.03106 -0.971897,0.01418 -1.457844,0.02127 0,0 1.280102,-0.186461 1.280102,-0.186461 z"
         id="path1463"
         style="opacity:1;fill:#e6e6e6;fill-opacity:1;fill-rule:nonzero;stroke:none;stroke-width:0.54555273;stroke-linecap:round;stroke-linejoin:round;stroke-miterlimit:4;stroke-dasharray:none;stroke-dashoffset:8.61732292;stroke-opacity:1;paint-order:markers fill stroke" />
    </g>
    <path
       style="opacity:1;fill:#e6e6e6;fill-opacity:1;fill-rule:nonzero;stroke:none;stroke-width:0.414;stroke-linecap:round;stroke-linejoin:round;stroke-miterlimit:4;stroke-dasharray:none;stroke-dashoffset:8.61732292;stroke-opacity:1;paint-order:markers fill stroke"
       id="path1547"
       d="m 12.113105,51.979536 c 0.08208,-0.424408 0.31059,-0.798608 0.527716,-1.165643 0.345251,-0.546989 0.771296,-1.036865 1.218552,-1.501886 0.344205,-0.35732 0.849531,0.129458 0.505327,0.486777 v 0 c -0.410388,0.425305 -0.801284,0.873617 -1.120254,1.372804 -0.168982,0.284634 -0.349658,0.571947 -0.435113,0.894977 -0.06154,0.492308 -0.757767,0.405278 -0.696228,-0.08703 z"
       inkscape:connector-curvature="0" />
    <path
       style="opacity:1;fill:#e6e6e6;fill-opacity:1;fill-rule:nonzero;stroke:none;stroke-width:0.414;stroke-linecap:round;stroke-linejoin:round;stroke-miterlimit:4;stroke-dasharray:none;stroke-dashoffset:8.61732292;stroke-opacity:1;paint-order:markers fill stroke"
       id="path1549"
       d="m 15.894864,48.032791 c 0.220972,-0.417092 0.59816,-0.723429 0.945498,-1.031986 0.292524,-0.250148 0.604545,-0.475591 0.915184,-0.702249 0.400852,-0.292354 0.814305,0.274534 0.413453,0.566891 v 0 c -0.292628,0.213328 -0.586669,0.425352 -0.862837,0.660085 -0.271517,0.24084 -0.565976,0.477099 -0.766383,0.783653 -0.195439,0.456023 -0.840353,0.179631 -0.644915,-0.276394 z"
       inkscape:connector-curvature="0" />
    <path
       style="opacity:1;fill:#e6e6e6;fill-opacity:1;fill-rule:nonzero;stroke:none;stroke-width:0.414;stroke-linecap:round;stroke-linejoin:round;stroke-miterlimit:4;stroke-dasharray:none;stroke-dashoffset:8.61732292;stroke-opacity:1;paint-order:markers fill stroke"
       id="path1551"
       d="m 20.691356,44.93347 c 0.26841,-0.235096 0.548857,-0.455467 0.826857,-0.678937 0.506531,-0.370797 0.990341,-0.769204 1.463137,-1.181719 0.373915,-0.326099 0.83509,0.202697 0.461175,0.528796 v 0 c -0.480032,0.418473 -0.970465,0.823736 -1.484761,1.199825 -0.274804,0.220826 -0.551992,0.438621 -0.817225,0.671055 -0.381145,0.317619 -0.830328,-0.221401 -0.449183,-0.53902 z"
       inkscape:connector-curvature="0" />
    <path
       style="opacity:1;fill:#e6e6e6;fill-opacity:1;fill-rule:nonzero;stroke:none;stroke-width:0.414;stroke-linecap:round;stroke-linejoin:round;stroke-miterlimit:4;stroke-dasharray:none;stroke-dashoffset:8.61732292;stroke-opacity:1;paint-order:markers fill stroke"
       id="path1553"
       d="m 24.374058,41.631023 c 0.329578,-0.188069 0.609197,-0.450519 0.887652,-0.705252 0.34319,-0.317932 0.668201,-0.654349 0.993244,-0.990542 0.34487,-0.356677 0.849288,0.131043 0.504419,0.48772 v 0 c -0.335156,0.346606 -0.670457,0.693274 -1.02447,1.020892 -0.317089,0.289202 -0.636919,0.584205 -1.012731,0.796382 -0.430769,0.246153 -0.778883,-0.363045 -0.348114,-0.6092 z"
       inkscape:connector-curvature="0" />
    <path
       style="opacity:1;fill:#e6e6e6;fill-opacity:1;fill-rule:nonzero;stroke:none;stroke-width:0.414;stroke-linecap:round;stroke-linejoin:round;stroke-miterlimit:4;stroke-dasharray:none;stroke-dashoffset:8.61732292;stroke-opacity:1;paint-order:markers fill stroke"
       id="path1555"
       d="m 12.690791,56.785073 c 0.242039,0.176728 0.499073,0.331308 0.75354,0.489188 0.357381,0.220197 0.735209,0.401391 1.122497,0.561652 0.458222,0.19023 0.189199,0.838253 -0.269023,0.648025 v 0 c -0.421869,-0.175646 -0.834047,-0.372872 -1.2234,-0.61347 -0.260948,-0.161917 -0.524372,-0.320704 -0.772817,-0.50159 -0.412813,-0.275209 -0.02361,-0.859014 0.389203,-0.583805 z"
       inkscape:connector-curvature="0" />
    <path
       style="opacity:1;fill:#e6e6e6;fill-opacity:1;fill-rule:nonzero;stroke:none;stroke-width:0.414;stroke-linecap:round;stroke-linejoin:round;stroke-miterlimit:4;stroke-dasharray:none;stroke-dashoffset:8.61732292;stroke-opacity:1;paint-order:markers fill stroke"
       id="path1557"
       d="m 15.965141,58.948483 c 0.228387,0.168061 0.462334,0.326676 0.701739,0.478616 0.396445,0.256069 0.818984,0.462407 1.250587,0.650875 0.08012,0.03237 0.160239,0.06474 0.240359,0.09712 0.459914,0.186097 0.196731,0.836515 -0.263183,0.650417 v 0 c -0.08604,-0.03486 -0.172085,-0.06973 -0.258127,-0.10459 -0.464437,-0.203083 -0.918885,-0.426193 -1.345695,-0.70146 -0.243738,-0.154784 -0.482702,-0.315505 -0.714883,-0.48717 -0.412813,-0.275206 -0.02361,-0.859012 0.389203,-0.583803 z"
       inkscape:connector-curvature="0" />
    <path
       style="opacity:1;fill:#e6e6e6;fill-opacity:1;fill-rule:nonzero;stroke:none;stroke-width:0.414;stroke-linecap:round;stroke-linejoin:round;stroke-miterlimit:4;stroke-dasharray:none;stroke-dashoffset:8.61732292;stroke-opacity:1;paint-order:markers fill stroke"
       id="path1559"
       d="m 20.600618,61.826959 c 0.281276,0.226574 0.562308,0.451993 0.857987,0.659776 0.47076,0.310229 0.998364,0.513286 1.518669,0.722656 0.460256,0.185251 0.198273,0.836153 -0.261984,0.650902 v 0 c -0.570345,-0.229611 -1.147085,-0.455618 -1.660591,-0.799828 -0.296595,-0.209145 -0.581305,-0.432583 -0.861904,-0.662553 -0.403725,-0.288375 0.0041,-0.859327 0.407823,-0.570953 z"
       inkscape:connector-curvature="0" />
    <path
       style="opacity:1;fill:#e6e6e6;fill-opacity:1;fill-rule:nonzero;stroke:none;stroke-width:0.414;stroke-linecap:round;stroke-linejoin:round;stroke-miterlimit:4;stroke-dasharray:none;stroke-dashoffset:8.61732292;stroke-opacity:1;paint-order:markers fill stroke"
       id="path1561"
       d="m 24.936544,65.489213 c 0.22967,0.259652 0.507102,0.472253 0.777116,0.687671 0.41174,0.326522 0.833218,0.640308 1.240163,0.97286 0.05707,0.05046 0.114142,0.100922 0.17121,0.151384 0.371282,0.329096 -0.09413,0.854167 -0.46541,0.525073 v 0 c -0.04997,-0.04441 -0.09993,-0.08883 -0.1499,-0.133241 -0.404674,-0.330983 -0.824442,-0.642525 -1.233754,-0.967682 -0.320189,-0.255651 -0.650017,-0.509066 -0.910378,-0.828241 -0.288375,-0.403723 0.282578,-0.811549 0.570953,-0.407824 z"
       inkscape:connector-curvature="0" />
  </g>
  <g
     inkscape:groupmode="layer"
     id="layer8"
     inkscape:label="text"
     sodipodi:insensitive="true">
    <g
       id="g1529">
      <path
         inkscape:connector-curvature="0"
         d="m 6.5959336,34.136859 c 0.016571,0.712954 0.1519303,1.420291 0.2760834,2.121 0.1412253,0.767366 0.3380404,1.523058 0.5790213,2.26481 0.013433,0.02577 0.1136558,0.388136 0.1601544,0.366884 0.00861,-0.0039 0.012896,-0.01386 0.019344,-0.0208 -0.8061314,0.01635 -0.7702608,0.150799 -0.5329227,-0.157255 0.2087258,-0.22297 0.4320929,-0.431295 0.6424814,-0.652804 0.5659239,-0.604208 0.9641138,-1.331367 1.3315651,-2.066245 0.2883852,-0.654677 0.548418,-1.335556 0.6563341,-2.046671 0.013404,-0.08832 0.019021,-0.177655 0.028529,-0.266483 -0.0014,-0.147378 0.033948,-0.412708 -0.1385784,-0.495959 -0.041167,-0.01987 -0.095149,-0.01109 -0.137699,-0.0086 1.2004778,0.02331 0.5376228,-0.136348 0.4353867,0.181594 0,0 -0.6947024,-0.01937 -0.6947024,-0.01937 v 0 c 0.1069326,-0.409294 0.601051,-0.279664 0.9438655,-0.264782 0.02395,0.0053 0.04913,0.0067 0.07184,0.01595 0.227249,0.09261 0.197499,0.406802 0.185359,0.599199 -0.01237,0.09045 -0.02116,0.181459 -0.03711,0.271346 -0.126847,0.714833 -0.3911972,1.399717 -0.6784929,2.062951 -0.3621172,0.737074 -0.750321,1.468821 -1.2994912,2.086909 -0.2002266,0.222015 -0.4122788,0.432242 -0.6169057,0.650121 -0.2714178,0.317111 -0.022929,0.248505 -0.8503274,0.214611 C 6.8290611,38.86471 6.8403468,38.675702 6.7798957,38.542275 6.5711177,37.7917 6.3815353,37.035452 6.2392413,36.269123 c -0.130733,-0.70952 -0.2707568,-1.421095 -0.33647,-2.139984 0,0 0.6931596,0.0077 0.6931596,0.0077 z"
         id="path1503"
         style="opacity:1;fill:#e6e6e6;fill-opacity:1;fill-rule:nonzero;stroke:none;stroke-width:0.414;stroke-linecap:round;stroke-linejoin:round;stroke-miterlimit:4;stroke-dasharray:none;stroke-dashoffset:8.61732292;stroke-opacity:1;paint-order:markers fill stroke" />
      <path
         inkscape:connector-curvature="0"
         d="m 10.791451,37.851709 c 0.116545,-0.253418 0.156393,-0.528201 0.167522,-0.804182 -0.01307,-0.150638 -0.03974,-0.396968 -0.223228,-0.445167 -0.02781,-0.0073 -0.05751,-0.0011 -0.08626,-0.0013 0.194248,0.0088 0.392149,-0.01201 0.582743,0.02652 0.04387,0.0089 -0.08065,0.04023 -0.115872,0.06785 -0.04543,0.03562 -0.08678,0.07671 -0.124365,0.120526 -0.168926,0.196985 -0.271778,0.429059 -0.377403,0.662863 -0.167043,0.484537 -0.320215,0.999326 -0.286648,1.518798 0.0052,0.08062 0.02382,0.159809 0.03573,0.239713 0.0581,0.164944 0.136409,0.367509 0.329276,0.418245 0.05548,0.0146 0.228509,0.01199 0.172087,0.0016 -0.509734,-0.09356 -0.630865,0.03908 -0.254142,-0.186402 0.447322,-0.374232 0.7203,-0.898697 0.938541,-1.429591 0.05581,-0.167484 0.127417,-0.334844 0.15377,-0.510768 0.232611,0.02561 0.468628,0.0296 0.697833,0.0768 0.0222,0.0046 0.002,0.04531 0.0045,0.06784 0.0036,0.03273 0.0074,0.06551 0.0136,0.09784 0.03088,0.160348 0.08832,0.311875 0.144207,0.464677 0.123823,0.303771 0.314641,0.565947 0.518181,0.819716 0,0 -0.665458,0.0447 -0.665458,0.0447 v 0 c -0.205292,-0.261535 -0.39933,-0.531066 -0.528084,-0.840301 -0.07225,-0.190211 -0.143256,-0.377954 -0.17472,-0.579831 -0.0037,-0.02376 -0.03316,-0.06928 -0.0092,-0.07152 0.230579,-0.02159 0.463149,0.0049 0.694724,0.0074 -0.0013,-0.01066 0.0069,-0.03181 -0.0039,-0.032 -3.6e-5,0 -0.02214,0.06254 -0.03073,0.0882 -0.04442,0.132672 -0.08904,0.265316 -0.144241,0.394062 -0.231708,0.536498 -0.509386,1.068888 -0.944818,1.469242 -0.431079,0.300194 -0.19363,0.187751 -1.081023,0.219263 -0.130005,0.0046 -0.2306395,-0.04636 -0.3174459,-0.139285 -0.1137584,-0.12178 -0.1269846,-0.215498 -0.1816269,-0.370827 -0.010313,-0.08322 -0.02698,-0.165904 -0.030943,-0.249671 -0.024982,-0.528098 0.1265727,-1.049459 0.2888102,-1.545204 0.1233756,-0.291123 0.2499346,-0.598934 0.4835816,-0.822348 0.03475,-0.03323 0.06599,-0.08228 0.113614,-0.08886 0.258622,-0.03572 0.521634,-0.02326 0.782451,-0.03489 0.03001,0.01019 0.06233,0.01519 0.09004,0.03058 0.178593,0.09918 0.20626,0.334815 0.219111,0.514737 -0.01417,0.283329 -0.05398,0.564163 -0.158366,0.830048 0,0 -0.691856,-0.02895 -0.691856,-0.02895 z"
         id="path1505"
         style="opacity:1;fill:#e6e6e6;fill-opacity:1;fill-rule:nonzero;stroke:none;stroke-width:0.414;stroke-linecap:round;stroke-linejoin:round;stroke-miterlimit:4;stroke-dasharray:none;stroke-dashoffset:8.61732292;stroke-opacity:1;paint-order:markers fill stroke" />
      <path
         inkscape:connector-curvature="0"
         d="m 14.240815,32.337512 c -0.187898,0.581123 -0.187474,1.198668 -0.19205,1.802839 0.01592,0.955233 0.08216,1.912991 0.246487,2.855124 0.03141,0.180068 0.07137,0.358534 0.107053,0.537803 0.145389,0.543973 0.293392,1.119597 0.641584,1.576676 0.06193,0.0813 0.139186,0.14968 0.208779,0.22452 0,0 -0.658638,0.04816 -0.658638,0.04816 v 0 c -0.06793,-0.07887 -0.143438,-0.15181 -0.203793,-0.236622 -0.335403,-0.47131 -0.476533,-1.050062 -0.61622,-1.600665 -0.03421,-0.180213 -0.07232,-0.359731 -0.102638,-0.540639 -0.158588,-0.946365 -0.229741,-1.906109 -0.262287,-2.864263 -0.0064,-0.609947 -0.01357,-1.227791 0.140106,-1.823096 0,0 0.691617,0.02016 0.691617,0.02016 z"
         id="path1507"
         style="opacity:1;fill:#e6e6e6;fill-opacity:1;fill-rule:nonzero;stroke:none;stroke-width:0.414;stroke-linecap:round;stroke-linejoin:round;stroke-miterlimit:4;stroke-dasharray:none;stroke-dashoffset:8.61732292;stroke-opacity:1;paint-order:markers fill stroke" />
      <path
         inkscape:connector-curvature="0"
         d="m 16.352929,38.15103 c 0.273412,-0.348369 0.50186,-0.727319 0.727991,-1.10711 0.428029,-0.76614 0.864286,-1.527672 1.295704,-2.291934 0.266783,-0.510358 0.570817,-1.002882 0.821005,-1.521894 0.100313,-0.256815 -0.0059,-0.245308 0.68757,0.01789 0.04837,0.01836 -0.04479,0.09334 -0.06468,0.141099 -0.105359,0.252924 -0.110441,0.290865 -0.203934,0.577628 -0.273887,0.945028 -0.424611,1.925736 -0.479324,2.907676 -0.01187,0.213016 -0.0123,0.426513 -0.01845,0.63977 0.01997,0.616471 0.0068,1.283878 0.295562,1.850231 0.04399,0.0863 0.108086,0.160769 0.162129,0.241155 0,0 -0.661351,0.03751 -0.661351,0.03751 v 0 c -0.05125,-0.08512 -0.112277,-0.165074 -0.153758,-0.25536 -0.267754,-0.582785 -0.24603,-1.251011 -0.258682,-1.875481 0.0073,-0.214249 0.0097,-0.428725 0.022,-0.64275 0.05634,-0.98399 0.194902,-1.966671 0.438166,-2.922071 0.09601,-0.339503 0.07687,-0.291716 0.177326,-0.584674 0.01701,-0.04961 0.0022,-0.136099 0.05326,-0.148039 0.236378,-0.05528 0.484779,-0.02805 0.727447,-0.03454 0.0056,-1.49e-4 -0.0047,0.01019 -0.007,0.01529 -0.011,0.02233 -0.02201,0.04464 -0.03301,0.06696 -0.27699,0.513599 -0.594944,1.00521 -0.865839,1.52246 -0.430891,0.761759 -0.864292,1.522045 -1.27707,2.29384 -0.21774,0.380039 -0.438402,0.758227 -0.692756,1.115329 0,0 -0.692291,-0.04299 -0.692291,-0.04299 z"
         id="path1509"
         style="opacity:1;fill:#e6e6e6;fill-opacity:1;fill-rule:nonzero;stroke:none;stroke-width:0.414;stroke-linecap:round;stroke-linejoin:round;stroke-miterlimit:4;stroke-dasharray:none;stroke-dashoffset:8.61732292;stroke-opacity:1;paint-order:markers fill stroke" />
    </g>
    <g
       id="g1540">
      <path
         inkscape:connector-curvature="0"
         d="m 4.9068627,69.748576 c 0.051608,0.637776 0.236102,1.258867 0.416029,1.870118 0.2490493,0.790059 0.5406966,1.570334 0.9424842,2.296242 0.1294754,0.227586 0.2765991,0.446738 0.4481898,0.644919 0.1887689,0.206655 0.3482904,0.145193 -0.6142289,0.04121 -0.018092,-0.0019 0.014888,-0.03321 0.022331,-0.04982 0.1027742,-0.270314 0.2230144,-0.533455 0.3364039,-0.799475 0.3112289,-0.745284 0.5548807,-1.515896 0.7936995,-2.286656 0.2738157,-0.893271 0.5395949,-1.78893 0.8059277,-2.68445 0.066074,-0.210759 0.1221973,-0.424613 0.1880833,-0.635423 0.050286,-0.255024 0.00122,-0.05273 0.7035458,0.03957 0.00846,0.0011 -0.00103,0.01714 1.424e-4,0.02561 0.0032,0.02291 0.017335,0.04347 0.030124,0.06171 0.00578,0.01143 0.011557,0.02286 0.017335,0.03428 0,0 -0.6958004,0.03398 -0.6958004,0.03398 v 0 c -0.00598,-0.01074 -0.011962,-0.02146 -0.017944,-0.03219 -0.2041218,-0.420616 0.6611046,0.273677 0.6610019,-0.130974 -0.025739,0.03184 -0.039661,0.08981 -0.052857,0.125849 -0.060455,0.165103 -0.1178981,0.331295 -0.1745128,0.497747 -0.2967612,0.888278 -0.5682181,1.784887 -0.833515,2.682989 -0.231493,0.771006 -0.4620673,1.543418 -0.7539437,2.294279 -0.1063935,0.265665 -0.2207906,0.528285 -0.3143232,0.798735 -0.00663,0.01979 7.938e-4,0.0565 -0.019886,0.0594 -0.650907,0.09143 -0.5807088,0.21563 -0.7738041,-0.02897 C 5.8627041,74.400176 5.7221797,74.179376 5.6025639,73.94744 5.2233343,73.209154 4.9414839,72.425612 4.685534,71.637275 4.496142,71.017547 4.3032589,70.392154 4.214542,69.748576 c 0,0 0.6923212,0 0.6923207,0 z"
         id="path1511"
         style="opacity:1;fill:#e6e6e6;fill-opacity:1;fill-rule:nonzero;stroke:none;stroke-width:0.414;stroke-linecap:round;stroke-linejoin:round;stroke-miterlimit:4;stroke-dasharray:none;stroke-dashoffset:8.61732292;stroke-opacity:1;paint-order:markers fill stroke" />
      <path
         inkscape:connector-curvature="0"
         d="m 10.76231,72.78009 c 0.01812,-0.267851 -0.03361,-0.472932 -0.17197,-0.701246 -0.03205,-0.03301 -0.0608,-0.06959 -0.09615,-0.09904 -0.0734,-0.06115 -0.164079,-0.111667 -0.257579,-0.134191 -0.05141,-0.01238 -0.210512,-0.01685 -0.157641,-0.01773 0.666186,-0.01101 0.623959,-0.01767 0.315191,0.05677 -0.5425839,0.231471 -0.7340695,0.589092 -0.9543542,1.108993 -0.1218676,0.38903 -0.2613504,0.832493 -0.145207,1.242269 0.015084,0.05322 0.042941,0.101955 0.064412,0.152935 0.033399,0.03513 0.059451,0.07913 0.1001958,0.105394 0.1219703,0.07861 0.3591851,0.04631 0.2931494,0.03497 -0.1575084,-0.02705 -0.335679,0.02937 -0.4773658,-0.04456 -0.067541,-0.03524 0.1410383,-0.05867 0.207223,-0.09639 0.075806,-0.04321 0.1449866,-0.09713 0.2174798,-0.145692 0.41584,-0.31858 0.740105,-0.729195 1.000201,-1.180084 0.07027,-0.145124 0.181492,-0.285684 0.196328,-0.451694 0.231943,0.02582 0.468133,0.02627 0.695828,0.07745 0.02535,0.0057 -0.0038,0.05182 -0.0053,0.07775 -0.0022,0.03897 -0.005,0.07794 -0.0057,0.116965 -0.0031,0.195149 0.02502,0.371295 0.06621,0.561708 0.103522,0.332422 0.289934,0.63759 0.577085,0.843391 0.07226,0.05179 0.154284,0.08838 0.231427,0.132564 0,0 -0.662079,0.06845 -0.662079,0.06845 v 0 c -0.07736,-0.04854 -0.159743,-0.08987 -0.232068,-0.145632 -0.289047,-0.222853 -0.478299,-0.540287 -0.586161,-0.884142 -0.01666,-0.0737 -0.03687,-0.146677 -0.04997,-0.221088 -0.02773,-0.157589 -0.03013,-0.315209 -0.0301,-0.474427 5e-6,-0.02572 -0.02592,-0.07459 -3.18e-4,-0.07719 0.231326,-0.02344 0.465001,0.0044 0.697501,0.0065 -7.93e-4,-0.01016 0.0075,-0.03287 -0.0024,-0.03051 -0.01148,0.0027 -0.0071,0.02252 -0.01093,0.03368 -0.007,0.02043 -0.01336,0.0411 -0.02156,0.06107 -0.04923,0.119962 -0.121275,0.227907 -0.183746,0.341032 -0.272284,0.453451 -0.595828,0.874657 -1.010857,1.208135 -0.06331,0.04607 -0.323719,0.250436 -0.4189485,0.26575 -0.2849473,0.04582 -0.5752775,0.04925 -0.8636088,0.06188 -0.1846315,0.0081 -0.3040049,-0.06699 -0.3997981,-0.219943 -0.020473,-0.05594 -0.047324,-0.109945 -0.061419,-0.167823 -0.1035159,-0.425055 0.035934,-0.875696 0.1587259,-1.278853 0.2150483,-0.526174 0.412509,-0.911304 0.9457073,-1.170127 0.4314962,-0.14097 0.2096667,-0.08932 1.0285242,-0.06501 0.215168,0.0064 0.393572,0.151209 0.520446,0.310422 0.134939,0.240697 0.188632,0.460663 0.183701,0.737269 0,0 -0.694187,0 -0.694187,0 z"
         id="path1513"
         style="opacity:1;fill:#e6e6e6;fill-opacity:1;fill-rule:nonzero;stroke:none;stroke-width:0.414;stroke-linecap:round;stroke-linejoin:round;stroke-miterlimit:4;stroke-dasharray:none;stroke-dashoffset:8.61732292;stroke-opacity:1;paint-order:markers fill stroke" />
      <path
         inkscape:connector-curvature="0"
         d="m 13.093205,67.812054 c -0.01362,0.584719 -0.0486,1.168641 -0.07777,1.752727 -0.03556,0.905653 -0.06794,1.819508 0.05344,2.720739 0.02227,0.16537 0.05607,0.328981 0.08411,0.493472 0.144572,0.54814 0.314062,1.243441 0.838728,1.56305 0.07318,0.04458 0.157508,0.06754 0.236263,0.101309 0.385866,0.04599 0.345137,0.03883 -0.123977,-0.0046 0,0 0.65761,0.09577 0.65761,0.09577 v 0 c -1.023485,0.03701 -0.628477,0.09188 -1.196301,-0.01577 -0.07841,-0.03973 -0.162847,-0.06932 -0.235223,-0.1192 -0.512502,-0.353221 -0.672908,-1.047183 -0.8117,-1.610233 -0.02633,-0.16588 -0.05806,-0.330996 -0.07899,-0.497644 -0.113632,-0.904743 -0.08565,-1.82045 -0.0654,-2.729531 0.01843,-0.582997 0.04775,-1.166834 0.02596,-1.750113 0,0 0.693253,0 0.693253,0 z"
         id="path1515"
         style="opacity:1;fill:#e6e6e6;fill-opacity:1;fill-rule:nonzero;stroke:none;stroke-width:0.414;stroke-linecap:round;stroke-linejoin:round;stroke-miterlimit:4;stroke-dasharray:none;stroke-dashoffset:8.61732292;stroke-opacity:1;paint-order:markers fill stroke" />
      <path
         inkscape:connector-curvature="0"
         d="m 16.523413,69.823099 c -0.08819,-0.174281 -0.159303,-0.343292 -0.16364,-0.540583 0.05667,-0.324202 0.301984,-0.569421 0.507383,-0.811433 0.256806,-0.285302 0.527378,-0.578114 0.862511,-0.77385 0.05852,-0.03418 0.12145,-0.06019 0.182175,-0.09028 0.439878,-0.132381 1.079405,-0.233084 1.359551,0.212709 0.130626,0.207865 0.141192,0.36933 0.194115,0.609629 0.0088,0.14559 0.027,0.290915 0.02633,0.436767 -0.0038,0.824306 -0.211288,1.675624 -0.493456,2.445202 -0.08591,0.234312 -0.189108,0.46192 -0.283662,0.69288 -0.53123,1.141746 -1.238529,2.208898 -2.148678,3.085283 -0.146844,0.141396 -0.306454,0.268904 -0.459682,0.403357 -0.293062,0.207899 -0.452524,0.346779 -0.774355,0.487706 -0.094,0.04116 -0.191199,0.08502 -0.293519,0.09286 -0.295675,0.02268 -0.594714,0.02891 -0.889626,-0.0021 -0.06418,-0.0068 -0.11877,-0.05912 -0.160388,-0.108445 -0.04345,-0.0515 -0.05708,-0.122074 -0.08562,-0.183113 -6.88e-4,-0.07931 -0.01328,-0.159417 -0.002,-0.237929 0.05965,-0.416605 0.344988,-0.812065 0.658302,-1.077418 0.09024,-0.07643 0.192389,-0.137559 0.288584,-0.206338 0.105216,-0.05131 0.206054,-0.112794 0.315648,-0.153934 0.107819,-0.04047 0.219928,-0.07145 0.333625,-0.08979 0.335872,-0.05417 1.206995,0.01868 1.337231,0.03573 0.169698,0.02222 0.526136,0.20988 0.672301,0.280521 0.467096,0.271037 0.897076,0.60062 1.37913,0.846754 0.352164,0.179811 0.432829,0.196842 0.806178,0.334701 0.379506,0.09766 0.511398,0.14374 0.902644,0.195112 0.153337,0.02013 0.308158,0.02662 0.462236,0.03993 0,0 -0.63275,0.09425 -0.63275,0.09425 v 0 c -0.154186,-0.01519 -0.30917,-0.02371 -0.462557,-0.04553 -0.401267,-0.05708 -0.518212,-0.101232 -0.907031,-0.206071 -0.381062,-0.144332 -0.451266,-0.158062 -0.810385,-0.344233 -0.480999,-0.249354 -0.911882,-0.579684 -1.385499,-0.841327 -0.112029,-0.05136 -0.221203,-0.109461 -0.336086,-0.154067 -0.109859,-0.04265 -0.313043,0.0082 -0.336893,-0.107225 -0.02081,-0.100727 0.374322,0.02767 0.30479,-0.04812 -0.07735,-0.08432 -0.229646,-0.0078 -0.34321,0.0062 -0.299145,0.03686 -0.376703,0.09701 -0.647559,0.219916 -0.09574,0.06516 -0.197312,0.122471 -0.287215,0.195467 -0.304369,0.247128 -0.585488,0.624694 -0.639509,1.024159 -0.0093,0.06842 0.0042,0.138028 0.0063,0.207045 0.02778,0.04846 0.0429,0.106862 0.08334,0.145396 0.04051,0.0386 0.2024,0.05827 0.149465,0.0764 -0.135125,0.04628 -0.299503,0.08123 -0.428067,0.019 -0.09452,-0.04575 0.207146,-0.04065 0.305084,-0.07853 0.328003,-0.12687 0.502659,-0.27114 0.799817,-0.470209 0.156438,-0.13235 0.319475,-0.257271 0.469313,-0.397047 0.921093,-0.859248 1.627972,-1.92304 2.154888,-3.061663 0.09301,-0.229447 0.195001,-0.455457 0.279037,-0.68834 0.277029,-0.767705 0.471133,-1.600732 0.4559,-2.421737 -0.0026,-0.142552 -0.02464,-0.284088 -0.03697,-0.426135 -0.05811,-0.225102 -0.07274,-0.384633 -0.209702,-0.57295 -0.0417,-0.05734 -0.09586,-0.106802 -0.155501,-0.145148 -0.05133,-0.033 -0.230346,-0.04989 -0.171192,-0.06489 0.158299,-0.04014 0.326765,-0.02732 0.489673,-0.01587 0.06177,0.0043 -0.1213,0.025 -0.18195,0.0375 -0.06113,0.02687 -0.124534,0.04906 -0.183383,0.08061 -0.337994,0.181203 -0.607276,0.473377 -0.860326,0.754375 -0.192041,0.228367 -0.425625,0.461902 -0.48951,0.762709 0.0042,0.181533 0.07819,0.35006 0.167568,0.506111 0,0 -0.693192,0.03602 -0.693192,0.03602 z"
         id="path1523"
         style="opacity:1;fill:#e6e6e6;fill-opacity:1;fill-rule:nonzero;stroke:none;stroke-width:0.414;stroke-linecap:round;stroke-linejoin:round;stroke-miterlimit:4;stroke-dasharray:none;stroke-dashoffset:8.61732292;stroke-opacity:1;paint-order:markers fill stroke" />
    </g>
    <g
       id="g1634"
       transform="translate(1.984556,-0.86824324)"
       style="fill:#e6e6e6">
      <path
         inkscape:connector-curvature="0"
         d="m 22.240124,52.052225 c -0.09978,0.0109 -0.199411,0.02323 -0.299333,0.03277 -0.195476,0.02106 -0.317145,-0.01701 -0.564867,-0.04006 -0.0043,-0.02167 -0.0031,-0.04411 -0.0018,-0.06607 3.97e-4,-0.0054 8.47e-4,-0.01082 0.0012,-0.01625 0.166621,0.0048 0.333781,1.3e-4 0.499862,0.01437 0.01038,7.94e-4 0.0068,0.01969 0.01065,0.02939 0.007,0.01791 0.01431,0.03573 0.02187,0.05343 0.04507,0.105503 0.0919,0.210299 0.138636,0.315066 0.106536,0.238705 0.215686,0.476697 0.367135,0.690589 0.013,0.01241 0.02226,0.03068 0.03899,0.03726 0.01047,0.0041 0.04373,-0.0085 0.0325,-0.0091 -0.153767,-0.0086 -0.310132,0.01204 -0.461781,-0.01482 -0.02224,-0.0039 0.01999,-0.04068 0.02699,-0.06215 0.0241,-0.07387 0.04501,-0.18525 0.06028,-0.257532 0.07615,-0.365866 0.122647,-0.736801 0.18264,-1.105411 0.02465,-0.08966 0.01799,-0.199599 0.0681,-0.282381 0.0083,-0.01371 0.01786,-0.03379 0.03386,-0.03406 0.177289,-0.0029 0.356973,-0.0073 0.531361,0.02479 0.03192,0.0059 0.03451,0.05498 0.05177,0.08247 0.172447,0.367604 0.294192,0.756504 0.432798,1.137671 0.0646,0.166772 0.06767,0.180321 0.135763,0.336148 0.02737,0.06264 0.08428,0.214251 0.157307,0.248052 0.01558,0.0072 0.03433,5.29e-4 0.0515,7.94e-4 -0.142553,-0.0063 -0.287364,0.0071 -0.427657,-0.01895 -0.02738,-0.0051 0.04759,-0.02942 0.06857,-0.04774 0.02923,-0.02553 0.05573,-0.05411 0.08142,-0.08319 0.113012,-0.127969 0.207291,-0.272148 0.304609,-0.411906 0.188587,-0.282001 0.379807,-0.561756 0.611383,-0.810488 0.194722,-0.187621 0.271801,-0.136744 0.653877,-0.09139 0.03795,0.0045 0.09872,0.254196 0.105272,0.27954 0.05045,0.237083 0.110637,0.475049 0.20658,0.698495 0.07515,0.175025 0.116651,0.231939 0.214627,0.396007 0,0 -0.464702,0.02492 -0.464702,0.02492 v 0 c -0.101157,-0.171159 -0.138732,-0.222269 -0.217345,-0.404185 -0.09738,-0.225354 -0.161236,-0.464111 -0.218616,-0.702101 -0.01562,-0.05122 -0.03841,-0.145508 -0.07213,-0.194662 -0.0094,-0.01368 -0.05506,-0.02938 -0.0386,-0.03137 0.144363,-0.01741 0.29061,-0.01106 0.435915,-0.01659 -0.01908,0.0073 -0.03988,0.01109 -0.05724,0.02186 -0.02517,0.01561 -0.04583,0.03753 -0.06874,0.05629 -0.240532,0.240278 -0.435104,0.517874 -0.620479,0.801973 -0.09579,0.1412 -0.188352,0.286054 -0.295294,0.41929 -0.02484,0.03095 -0.05084,0.06103 -0.07798,0.08999 -0.02113,0.02254 -0.0361,0.05998 -0.06669,0.06439 -0.178855,0.0258 -0.361078,0.01558 -0.541616,0.02336 -0.01732,-0.0092 -0.03705,-0.01484 -0.05195,-0.02759 -0.07501,-0.06409 -0.110768,-0.179652 -0.145631,-0.266356 -0.06732,-0.16742 -0.0626,-0.159054 -0.128474,-0.338412 -0.135265,-0.379193 -0.254649,-0.769165 -0.449679,-1.122828 -0.154435,-0.171154 -0.08225,-0.05929 0.388135,-0.08465 0.01156,-5.29e-4 -0.02594,-0.0061 -0.03469,0.0013 -0.02662,0.02302 -0.05004,0.126773 -0.05456,0.145651 -0.0098,0.04105 -0.01717,0.08264 -0.02575,0.123968 -0.068,0.36754 -0.115231,0.738526 -0.181858,1.106334 -0.01353,0.07674 -0.03131,0.186465 -0.0503,0.264953 -0.0065,0.02703 0.0037,0.07367 -0.02333,0.08009 -0.305463,0.07254 -0.442418,0.161997 -0.583155,-0.01902 -0.142124,-0.221189 -0.248534,-0.461298 -0.360037,-0.698857 -0.02906,-0.06183 -0.08028,-0.17109 -0.110982,-0.235479 -0.02394,-0.0502 -0.04226,-0.08609 -0.06409,-0.135306 -0.0046,-0.01037 -0.02428,-0.03037 -0.01299,-0.03148 0.16256,-0.01598 0.326526,-0.01027 0.489789,-0.0154 -5.82e-4,0.0019 -0.0017,0.0035 -0.0018,0.0054 -0.0019,0.01635 -0.0032,0.03305 3.97e-4,0.04926 -0.855201,-0.02901 -0.599041,-0.0065 -0.41532,-0.02016 0.100225,-0.0075 0.200067,-0.01905 0.29988,-0.03072 0,0 0.485697,0.07075 0.485697,0.07075 z"
         id="path1613"
         style="opacity:1;fill:#e6e6e6;fill-opacity:1;fill-rule:nonzero;stroke:none;stroke-width:0.414;stroke-linecap:round;stroke-linejoin:round;stroke-miterlimit:4;stroke-dasharray:none;stroke-dashoffset:8.61732292;stroke-opacity:1;paint-order:markers fill stroke" />
      <path
         inkscape:connector-curvature="0"
         d="m 26.633749,52.382737 c 0.007,-0.127902 0.0163,-0.267012 -0.05003,-0.382887 -0.01368,-0.02389 -0.03282,-0.04418 -0.04923,-0.06627 -0.06995,-0.07099 -0.147948,-0.120112 -0.248867,-0.132244 -0.03681,-0.0044 -0.148146,-0.004 -0.111218,-7.93e-4 0.382877,0.03405 0.470628,-0.03114 0.231679,0.08051 -0.242927,0.171887 -0.400945,0.439616 -0.421324,0.739473 -0.0041,0.06017 0.0039,0.120563 0.0058,0.180843 0.03967,0.207886 0.13984,0.409371 0.363666,0.464082 0.04948,0.01209 0.20308,0.01598 0.152394,0.01101 -0.101937,-0.01003 -0.204116,-0.01741 -0.306175,-0.02614 0.308818,-0.09355 0.559625,-0.301964 0.740256,-0.566658 0.03285,-0.04813 0.05971,-0.100082 0.08957,-0.150122 0.07692,-0.168717 0.171217,-0.390163 0.03383,-0.555414 -0.01889,-0.02273 -0.04364,-0.0399 -0.06546,-0.05984 -0.06208,-0.03092 -0.08579,-0.04792 -0.153964,-0.06182 -0.02426,-0.0049 -0.09873,-0.007 -0.07396,-0.0071 0.880811,-0.0037 0.488318,-0.02394 0.355976,0.01736 0.02,-0.01461 0.0055,-0.0075 0.04842,-9.8e-5 0,0 -0.487008,0.05134 -0.487008,0.05134 v 0 c -0.05794,-0.05361 -0.04189,-0.02122 -0.05197,-0.0952 0.02416,-0.02871 0.0254,-0.04082 0.07089,-0.04187 0.303432,-0.007 0.53694,-0.06669 0.773845,0.09967 0.02193,0.02418 0.04723,0.04572 0.06581,0.07259 0.131085,0.189524 0.04245,0.418732 -0.04463,0.605671 -0.0305,0.05181 -0.05808,0.10545 -0.0915,0.155419 -0.181621,0.271505 -0.432446,0.489677 -0.740783,0.602522 -0.03203,0.0013 -0.58733,0.07162 -0.788504,0.0016 -0.227144,-0.07911 -0.323487,-0.296056 -0.362125,-0.515575 -0.0016,-0.06327 -0.0092,-0.126672 -0.0049,-0.18982 0.02113,-0.310806 0.175669,-0.591325 0.417181,-0.783868 0.288709,-0.1655 0.105694,-0.08533 0.718627,-0.10106 0.148601,-0.0038 0.273066,0.06712 0.368096,0.176231 0.01667,0.02572 0.03612,0.04984 0.05001,0.07716 0.06401,0.125895 0.05659,0.270651 0.0564,0.407409 0,0 -0.490784,-0.0061 -0.490784,-0.0061 z"
         id="path1615"
         style="opacity:1;fill:#e6e6e6;fill-opacity:1;fill-rule:nonzero;stroke:none;stroke-width:0.414;stroke-linecap:round;stroke-linejoin:round;stroke-miterlimit:4;stroke-dasharray:none;stroke-dashoffset:8.61732292;stroke-opacity:1;paint-order:markers fill stroke" />
      <path
         inkscape:connector-curvature="0"
         d="m 28.487613,51.986531 c 0.02601,0.347089 0.116562,0.685612 0.213183,1.018675 0.01876,0.05427 0.03583,0.109151 0.05627,0.162809 0.0177,0.04643 0.06742,0.16791 0.103338,0.215299 0.0099,0.01307 0.05578,0.02932 0.03937,0.02956 -0.490029,0.0073 -0.502764,0.120137 -0.443796,-0.08108 0.01595,-0.378976 -0.06927,-0.754714 -0.151148,-1.122508 -0.0345,-0.142558 -0.07546,-0.283361 -0.116113,-0.424231 -0.01836,-0.06362 -0.04174,-0.124767 -0.04661,-0.190746 0.0052,-0.01312 0.0064,-0.02875 0.01572,-0.03934 0.04994,-0.05658 0.169873,-0.04492 0.233635,-0.04873 0.123452,-0.0074 0.157104,-0.0079 0.285054,-0.01288 0.301345,-0.0086 0.385805,-0.01265 0.79266,-0.0036 0.131231,0.0029 0.276014,0.02865 0.37718,0.119615 0.02774,0.02495 0.04662,0.05826 0.06993,0.08739 0.04835,0.130551 0.03472,0.0635 0.04155,0.20102 0,0 -0.483483,0.0024 -0.483483,0.0024 v 0 c -0.006,-0.116647 0.0067,-0.06018 -0.03896,-0.169246 -0.06511,-0.06985 -0.06889,-0.08916 -0.164214,-0.124981 -0.136996,-0.05148 -0.627155,-0.05541 0.03818,-0.04442 0.05417,7.94e-4 -0.108315,0.003 -0.162475,0.0044 -0.128432,0.0048 -0.256411,0.01323 -0.384718,0.01955 -0.03758,0.0019 -0.0754,-0.0048 -0.112876,-0.0013 -0.006,5.29e-4 -0.01082,0.0054 -0.01622,0.0081 4.5e-5,0.06089 0.02162,0.121372 0.03626,0.180067 0.03546,0.142169 0.07205,0.284067 0.104454,0.426979 0.07945,0.37586 0.163854,0.756148 0.167693,1.141812 -0.03496,0.259652 0.01363,0.141873 -0.529397,0.10989 -0.0285,-0.0016 -0.122719,-0.252966 -0.127878,-0.267753 -0.01902,-0.0545 -0.03524,-0.109937 -0.05286,-0.164907 -0.09567,-0.337868 -0.184973,-0.679167 -0.231907,-1.027724 0,0 0.48818,-0.004 0.48818,-0.004 z"
         id="path1617"
         style="opacity:1;fill:#e6e6e6;fill-opacity:1;fill-rule:nonzero;stroke:none;stroke-width:0.414;stroke-linecap:round;stroke-linejoin:round;stroke-miterlimit:4;stroke-dasharray:none;stroke-dashoffset:8.61732292;stroke-opacity:1;paint-order:markers fill stroke" />
      <path
         inkscape:connector-curvature="0"
         d="m 30.51775,52.863241 c 0.0972,0.497393 0.18188,0.996977 0.26289,1.497219 0.04936,0.271518 0.08683,0.545235 0.137592,0.81651 0.0158,0.08438 0.03483,0.226504 0.07838,0.307284 -0.162497,-0.01331 -0.332701,0.01132 -0.487493,-0.03989 -0.03924,-0.01299 -0.0027,-0.0827 -0.0072,-0.123783 -0.04101,-0.371419 -0.137054,-0.738081 -0.221353,-1.10123 -0.102563,-0.499472 -0.262012,-0.994947 -0.283406,-1.507908 -0.0032,-0.07593 0.0013,-0.151992 0.0021,-0.227991 0.02479,-0.245383 0.107899,-0.47062 0.314547,-0.618728 0.114064,-0.08175 0.16333,-0.08801 0.294058,-0.132874 0.292007,-0.04373 0.753128,-0.119272 0.997164,0.09393 0.09127,0.07974 0.09096,0.110477 0.139306,0.218382 0.0071,0.04746 0.02066,0.0944 0.02133,0.142383 0.003,0.225062 -0.108979,0.442939 -0.244737,0.61513 -0.03286,0.04167 -0.07101,0.07889 -0.106508,0.118332 -0.256587,0.237506 -0.372358,0.241779 -0.794917,0.171622 -0.02643,-0.0044 -0.0074,-0.05309 -0.01117,-0.07963 0,0 0.489027,-0.0089 0.489027,-0.0089 v 0 c 0.05342,0.162322 0.02236,0.04202 -0.431758,0.03696 -0.02556,-2.65e-4 0.0511,-0.0074 0.07482,-0.01693 0.0336,-0.01355 0.06578,-0.03115 0.09556,-0.05179 0.03726,-0.02582 0.06973,-0.05793 0.104597,-0.0869 0.03594,-0.03735 0.07461,-0.07225 0.107834,-0.112035 0.131805,-0.157856 0.24493,-0.366133 0.239477,-0.578202 -0.0011,-0.04358 -0.015,-0.08589 -0.02249,-0.128828 -0.06374,-0.12668 -0.101623,-0.194046 -0.2428,-0.24846 -0.03946,-0.01521 -0.16479,-0.02212 -0.123256,-0.0301 0.108082,-0.02077 0.22002,-0.01265 0.330036,-0.0096 0.05039,0.0013 -0.100335,0.0097 -0.150503,0.01458 -0.05071,0.01458 -0.102989,0.02453 -0.152117,0.04376 -0.207952,0.08147 -0.360704,0.237717 -0.424336,0.453509 -0.01873,0.06355 -0.02474,0.13018 -0.03712,0.195267 -0.0021,0.07449 -0.008,0.148982 -0.0061,0.223475 0.01307,0.510562 0.168068,1.005192 0.272378,1.501117 0.08824,0.367016 0.186084,0.734515 0.249367,1.106955 0.0074,0.04359 0.05928,0.115332 0.0181,0.131408 -0.154008,0.06012 -0.328686,0.03599 -0.493027,0.05398 -0.08044,-0.373682 -0.09989,-0.759056 -0.177324,-1.133428 -0.08343,-0.502176 -0.170822,-1.004247 -0.29764,-1.497658 0,0 0.486765,-0.0069 0.486765,-0.0069 z"
         id="path1619"
         style="opacity:1;fill:#e6e6e6;fill-opacity:1;fill-rule:nonzero;stroke:none;stroke-width:0.414;stroke-linecap:round;stroke-linejoin:round;stroke-miterlimit:4;stroke-dasharray:none;stroke-dashoffset:8.61732292;stroke-opacity:1;paint-order:markers fill stroke" />
      <path
         inkscape:connector-curvature="0"
         d="m 32.437377,50.538729 c -0.0063,0.03312 -0.01479,0.06591 -0.01894,0.09937 -0.01455,0.117168 -0.01696,0.251709 -0.01625,0.367766 0.0019,0.288644 0.02402,0.576802 0.04201,0.864724 0.01942,0.27364 0.04338,0.547471 0.08771,0.818383 0.02508,0.153199 0.05266,0.293568 0.11136,0.43666 0.138753,0.135395 0.112247,0.09153 -0.392125,0.01818 -0.02252,-0.0033 0.04311,-0.01693 0.06049,-0.0316 0.091,-0.07681 0.194421,-0.242912 0.265184,-0.338664 0.177366,-0.232566 0.36584,-0.477769 0.627621,-0.621504 0.04346,-0.02387 0.09061,-0.04029 0.135916,-0.06044 0.263933,-0.05614 0.604862,-0.135329 0.822045,0.05571 0.115025,0.101182 0.151458,0.246919 0.192574,0.386929 0.03948,0.155112 0.04993,0.314878 0.05554,0.474141 0.0034,0.09774 0.0027,0.184282 0.02852,0.278614 0.0093,0.0094 0.0186,0.01881 0.02792,0.02821 0,0 -0.489008,0.03029 -0.489008,0.03029 v 0 c -0.0087,-0.01582 -0.0173,-0.03165 -0.02596,-0.04747 -0.0473,-0.24674 0.01003,-0.506304 -0.07192,-0.74957 -0.0418,-0.128968 -0.07813,-0.265713 -0.195427,-0.349739 -0.03049,-0.02186 -0.138096,-0.03849 -0.101801,-0.04796 0.115644,-0.03017 0.238541,-0.01725 0.358045,-0.01889 0.04276,-5.29e-4 -0.08489,0.0105 -0.127331,0.01574 -0.04539,0.01741 -0.09258,0.03072 -0.136189,0.05223 -0.264985,0.130731 -0.455424,0.372623 -0.628263,0.603406 -0.0331,0.04636 -0.0665,0.09251 -0.0993,0.139078 -0.01704,0.02421 -0.182827,0.273929 -0.215079,0.276257 -0.521523,0.03764 -0.443498,0.123727 -0.573186,-0.07599 -0.133207,-0.406804 -0.125187,-0.847793 -0.17208,-1.269021 -0.03096,-0.447844 -0.08476,-0.900739 -0.04112,-1.349107 0,0 0.489048,0.01426 0.489048,0.01426 z"
         id="path1621"
         style="opacity:1;fill:#e6e6e6;fill-opacity:1;fill-rule:nonzero;stroke:none;stroke-width:0.414;stroke-linecap:round;stroke-linejoin:round;stroke-miterlimit:4;stroke-dasharray:none;stroke-dashoffset:8.61732292;stroke-opacity:1;paint-order:markers fill stroke" />
      <path
         inkscape:connector-curvature="0"
         d="m 25.718966,55.226177 c -0.02317,-0.0021 -0.04631,-0.0048 -0.06951,-0.0067 -0.04596,-0.0039 -0.156215,-0.01172 -0.198176,-0.01257 -0.04306,-7.94e-4 -0.172177,-0.0016 -0.129191,0.0011 0.334836,0.02024 0.450004,-0.01228 0.153698,0.04052 -0.391914,0.09855 -0.734293,0.318995 -1.015348,0.606795 -0.06601,0.06759 -0.124408,0.142209 -0.186612,0.213313 -0.202716,0.282694 -0.383148,0.604501 -0.383734,0.963512 -3.71e-4,0.228227 0.03843,0.27437 0.11678,0.484663 0.04892,0.07447 0.08996,0.15475 0.14676,0.223399 0.278659,0.336793 0.711344,0.523065 1.139947,0.564335 0.137838,0.01328 0.276935,0.003 0.415402,0.0044 0.01058,-0.01778 0.01206,-0.04694 0.03173,-0.05331 0.162186,-0.05245 0.331733,-0.07859 0.4976,-0.117885 0.170883,-0.0571 0.341766,-0.114202 0.51265,-0.171302 0,0 0.420923,0.05262 0.420923,0.05262 v 0 c -0.169727,0.05851 -0.337164,0.124143 -0.50918,0.17553 -0.623435,0.186235 -0.605761,0.131159 -1.388711,0.182396 -0.140803,-0.0038 -0.282457,0.0044 -0.422408,-0.01154 -0.438588,-0.04993 -0.876976,-0.249698 -1.157044,-0.598879 -0.0578,-0.07206 -0.09938,-0.155742 -0.149064,-0.233611 -0.07879,-0.219279 -0.118592,-0.269523 -0.117688,-0.506302 0.0014,-0.36799 0.183447,-0.698793 0.389076,-0.990658 0.06202,-0.0728 0.120244,-0.149011 0.186061,-0.218395 0.277367,-0.292404 0.614527,-0.522692 1.003874,-0.634148 0.05532,-0.01177 0.109522,-0.03171 0.165968,-0.03531 0.34243,-0.02188 0.689106,-0.02737 1.031141,0.0068 0,0 -0.484952,0.07132 -0.484952,0.07132 z"
         id="path1623"
         style="opacity:1;fill:#e6e6e6;fill-opacity:1;fill-rule:nonzero;stroke:none;stroke-width:0.414;stroke-linecap:round;stroke-linejoin:round;stroke-miterlimit:4;stroke-dasharray:none;stroke-dashoffset:8.61732292;stroke-opacity:1;paint-order:markers fill stroke" />
      <path
         inkscape:connector-curvature="0"
         d="m 27.768309,55.136597 c 0.217196,0.35588 0.378717,0.738428 0.530725,1.125437 0.190092,0.514188 0.367083,1.033145 0.559281,1.546566 0.04453,0.0904 0.06815,0.193418 0.122656,0.279331 0.0066,0.0104 0.01291,0.02297 0.02416,0.02797 0.0062,0.0028 0.02498,-0.0089 0.0182,-0.0091 -0.158972,-0.004 -0.318043,-0.0019 -0.477065,-0.0026 0.05239,-0.08001 0.08019,-0.177615 0.116663,-0.266303 0.143949,-0.353338 0.320831,-0.691896 0.495763,-1.030544 0.236177,-0.443942 0.462626,-0.893064 0.684117,-1.344499 0.01707,-0.03514 0.03464,-0.07005 0.0512,-0.105431 0.01048,-0.02238 0.02003,-0.04522 0.02991,-0.06789 0.0054,-0.01238 0.01101,-0.02468 0.0159,-0.03727 0.0011,-0.0026 -0.0011,-0.0084 0.0019,-0.0082 0.49203,0.04002 0.586865,-0.06233 0.449639,0.06928 -0.178121,0.160086 -0.128175,0.05729 -0.566076,0.01423 0.0127,-0.04989 0.0055,-0.02556 0.02143,-0.07304 0,0 0.491149,0.01646 0.491149,0.01646 v 0 c -0.01476,0.0407 -0.0083,0.0209 -0.01961,0.05931 -0.648735,-0.0011 -0.596143,0.08895 -0.417153,-0.05818 0.15271,-0.127627 0.03089,-0.0342 0.534887,-0.01265 0.005,2.14e-4 -0.0045,0.01066 -0.02633,0.05176 -0.01214,0.02283 -0.02347,0.04613 -0.03563,0.06898 -0.01871,0.0352 -0.03799,0.0701 -0.05698,0.105145 -0.238628,0.444966 -0.467985,0.894694 -0.698998,1.343631 -0.168724,0.336558 -0.338383,0.673923 -0.469741,1.027282 -0.03701,0.09638 -0.06984,0.194154 -0.109905,0.289216 -0.16822,0.0074 -0.336275,0.02209 -0.504656,0.02225 -0.0063,5e-6 -0.03282,-0.04389 -0.03986,-0.0586 -0.04368,-0.09122 -0.06786,-0.19103 -0.105891,-0.284372 -0.176321,-0.51685 -0.348255,-1.035441 -0.544145,-1.545346 -0.157922,-0.38508 -0.323215,-0.769099 -0.563875,-1.111348 0,0 0.488532,-0.03148 0.488532,-0.03148 z"
         id="path1625"
         style="opacity:1;fill:#e6e6e6;fill-opacity:1;fill-rule:nonzero;stroke:none;stroke-width:0.414;stroke-linecap:round;stroke-linejoin:round;stroke-miterlimit:4;stroke-dasharray:none;stroke-dashoffset:8.61732292;stroke-opacity:1;paint-order:markers fill stroke" />
    </g>
    <g
       id="g1675"
       transform="matrix(1.2972912,0,0,1.2972912,-4.9378397,-27.500932)">
      <path
         inkscape:connector-curvature="0"
         d="m 14.697637,89.485397 c -0.162321,-0.167976 -0.366005,-0.24576 -0.58933,-0.293422 -0.466588,-0.0079 0.366604,0.0061 0.387132,0.0081 0.04599,0.0045 -0.09165,0.01429 -0.135752,0.02808 -0.144235,0.04511 -0.248057,0.132754 -0.358781,0.230719 -0.168886,0.193675 -0.292649,0.428593 -0.331219,0.685165 -0.0082,0.05459 -0.0077,0.110146 -0.01155,0.165219 0.03083,0.356868 0.218349,0.668457 0.473273,0.914059 0.05862,0.05648 0.124232,0.105214 0.186348,0.157824 0.200108,0.130646 0.413151,0.246972 0.654065,0.279064 0.07099,0.0094 0.285799,0.01376 0.214824,0.0042 -0.483213,-0.06535 -0.619588,0.04059 -0.280146,-0.126984 0.05211,-0.04724 0.109863,-0.08891 0.156321,-0.141714 0.215355,-0.244774 0.328696,-0.576921 0.371739,-0.894982 0.01088,-0.08035 0.01236,-0.161698 0.01855,-0.242546 -0.0048,-0.319307 -0.06678,-0.652746 -0.293682,-0.892998 -0.032,-0.03388 -0.06931,-0.06233 -0.103966,-0.09349 -0.08376,-0.04973 -0.106787,-0.07459 -0.20132,-0.09108 -0.02727,-0.0048 -0.110719,-0.0024 -0.08304,-0.0019 1.325515,0.02103 0.679789,-0.09843 0.535502,0.05477 -0.0083,0.05949 -0.01285,0.02986 0.01983,0.08773 0,0 -0.691967,0.0277 -0.691967,0.0277 v 0 c -0.03552,-0.1036 -0.03012,-0.0523 -0.02121,-0.153307 0.01003,-0.0217 0.01506,-0.0465 0.0301,-0.06508 0.01405,-0.01736 0.03203,-0.03776 0.05431,-0.03917 0.182453,-0.01156 0.679419,-0.101907 0.936016,0.05126 0.03609,0.02154 0.06806,0.04934 0.102097,0.07402 0.03438,0.03476 0.07172,0.06683 0.103142,0.104291 0.220381,0.262673 0.279951,0.609602 0.282878,0.942525 -0.0066,0.0833 -0.0087,0.167079 -0.01986,0.249899 -0.04443,0.330885 -0.157617,0.672422 -0.368627,0.936461 -0.04659,0.05829 -0.104501,0.106555 -0.156752,0.159832 -0.422714,0.250812 -0.158829,0.13258 -1.055163,0.156617 -0.323077,0.0087 -0.613142,-0.149177 -0.869868,-0.327805 -0.06244,-0.0554 -0.128384,-0.107074 -0.187304,-0.166201 -0.262246,-0.26316 -0.454261,-0.592711 -0.484913,-0.967256 0.0035,-0.05875 0.0024,-0.117951 0.01051,-0.176247 0.03733,-0.269295 0.164331,-0.515657 0.33209,-0.725725 0.09099,-0.08849 0.123108,-0.129318 0.230297,-0.196702 0.362227,-0.227711 0.825745,-0.13702 1.233683,-0.105349 0.229594,0.06048 0.434743,0.158081 0.603335,0.330099 0,0 -0.691595,0.05443 -0.691595,0.05443 z"
         id="path1660"
         style="opacity:1;fill:#1a1a1a;fill-opacity:1;fill-rule:nonzero;stroke:none;stroke-width:0.414;stroke-linecap:round;stroke-linejoin:round;stroke-miterlimit:4;stroke-dasharray:none;stroke-dashoffset:8.61732292;stroke-opacity:1;paint-order:markers fill stroke" />
      <path
         inkscape:connector-curvature="0"
         d="m 17.677124,89.858566 c -0.195735,0.255151 -0.281553,0.566047 -0.325568,0.879345 -0.0091,0.154109 -0.01384,0.530513 0.211875,0.554292 0.0359,0.0038 0.07153,-0.0097 0.107297,-0.01461 -0.183129,-0.01262 -0.374021,0.01638 -0.549385,-0.03787 -0.05241,-0.01622 0.09497,-0.05558 0.138234,-0.08932 0.233605,-0.182184 0.405218,-0.434663 0.571015,-0.675878 0.196807,-0.289968 0.33053,-0.611712 0.453218,-0.937758 0.0096,-0.02651 0.02046,-0.05261 0.02893,-0.07952 0.0086,-0.02743 0.01544,-0.05875 0.01641,-0.08799 1.46e-4,-0.0044 -0.0064,-0.01318 -0.002,-0.01302 0.713542,0.02582 0.69491,-0.191775 0.691157,0.102251 0.0124,0.327901 0.06633,0.658513 0.173123,0.969457 0.0312,0.09085 0.06969,0.179038 0.10453,0.26856 0.109127,0.255916 0.277171,0.469379 0.455251,0.678926 0,0 -0.665406,0.04613 -0.665406,0.04613 v 0 c -0.176102,-0.217755 -0.343202,-0.439264 -0.452229,-0.700421 -0.03563,-0.09126 -0.07466,-0.181261 -0.106885,-0.273773 -0.110591,-0.317465 -0.171096,-0.653089 -0.200473,-0.987242 -0.01656,-0.310856 -0.03188,-0.102722 0.700118,-0.10595 0.0079,-3.4e-5 -3.6e-5,0.01593 -8.74e-4,0.02384 -0.0069,0.06475 -0.02749,0.125852 -0.05563,0.18451 -0.134991,0.328009 -0.270777,0.656122 -0.470003,0.952085 -0.167346,0.247594 -0.339607,0.49975 -0.564167,0.700225 -0.04301,0.0384 -0.07931,0.09665 -0.136075,0.106801 -0.265777,0.04753 -0.538406,0.04131 -0.807609,0.06197 -0.03764,-0.0064 -0.07775,-0.0044 -0.112934,-0.01931 -0.221824,-0.09367 -0.214641,-0.443722 -0.204204,-0.635823 0.04536,-0.323799 0.131166,-0.640051 0.309578,-0.918114 0,0 0.692688,0.0482 0.692688,0.0482 z"
         id="path1662"
         style="opacity:1;fill:#1a1a1a;fill-opacity:1;fill-rule:nonzero;stroke:none;stroke-width:0.414;stroke-linecap:round;stroke-linejoin:round;stroke-miterlimit:4;stroke-dasharray:none;stroke-dashoffset:8.61732292;stroke-opacity:1;paint-order:markers fill stroke" />
      <path
         inkscape:connector-curvature="0"
         d="m 20.335127,88.183655 c -0.0577,0.588661 -0.05604,1.180793 -0.04801,1.771526 0.0352,0.457097 5.55e-4,0.940292 0.159787,1.378548 0.0083,0.004 0.03409,0.01206 0.02488,0.01201 -0.228952,-0.0013 -0.459119,0.0093 -0.686686,-0.01585 -0.02,-0.0021 2.91e-4,-0.04034 -0.0018,-0.06036 -0.0037,-0.03514 -0.0085,-0.07023 -0.01565,-0.104839 -0.02029,-0.09863 -0.05302,-0.201435 -0.08129,-0.297481 -0.116155,-0.31831 -0.258253,-0.628769 -0.411778,-0.930897 -0.02714,-0.06266 -0.175705,-0.222658 -0.06365,-0.287208 0.01896,-0.01093 0.04319,-0.0071 0.06478,-0.01069 0.613889,-0.0028 1.226455,0.0283 1.840161,0.03676 0.467819,0.0042 0.229432,0.0024 0.715162,0.0053 0,0 -0.643975,0.101643 -0.643975,0.101643 v 0 c -0.490847,-0.0024 -0.249654,-7.94e-4 -0.723579,-0.0044 -0.261826,-0.003 -0.523605,-0.0057 -0.78531,-0.01474 -0.05667,-0.0019 -0.113322,-0.0044 -0.169972,-0.007 -0.04447,-0.0019 -0.17791,-0.0055 -0.133401,-0.0064 0.195252,-0.004 0.390582,-0.0019 0.585873,-0.0029 -0.136944,-0.02429 -9e-5,0.01064 -0.08649,-0.03623 -0.0029,-0.0016 -0.0081,0.0032 -0.0074,0.0065 0.01345,0.06803 0.07651,0.121309 0.09217,0.188394 0.144167,0.309859 0.288132,0.621319 0.406382,0.941996 0.0079,0.02569 0.152768,0.498534 0.117067,0.505122 -0.68204,0.125849 -0.609122,0.250393 -0.724574,0.0019 -0.114844,-0.456086 -0.09752,-0.931834 -0.121504,-1.398021 -0.0095,-0.592792 -0.01339,-1.185609 0.0085,-1.778231 0,0 0.690393,0.0057 0.690393,0.0057 z"
         id="path1664"
         style="opacity:1;fill:#1a1a1a;fill-opacity:1;fill-rule:nonzero;stroke:none;stroke-width:0.414;stroke-linecap:round;stroke-linejoin:round;stroke-miterlimit:4;stroke-dasharray:none;stroke-dashoffset:8.61732292;stroke-opacity:1;paint-order:markers fill stroke" />
      <path
         inkscape:connector-curvature="0"
         d="m 23.208817,89.913689 c 0.03497,1.56e-4 0.06997,-7.94e-4 0.104914,5.29e-4 0.17047,0.0065 0.340467,0.02474 0.511083,0.02907 0.07237,0.0019 0.289562,0.0011 0.217173,5.29e-4 -0.141384,-0.0011 -0.282774,-0.0016 -0.424161,-0.0021 0.242012,-0.0034 0.483995,-0.0085 0.725985,-0.01318 0,0 0.662387,0.103648 0.662387,0.103648 v 0 c -0.242239,0.0044 -0.484471,0.009 -0.726705,0.01363 -0.586202,0.0019 -1.17024,0.0034 -1.755395,-0.02355 0,0 0.684719,-0.108448 0.684719,-0.108448 z"
         id="path1666"
         style="opacity:1;fill:#1a1a1a;fill-opacity:1;fill-rule:nonzero;stroke:none;stroke-width:0.414;stroke-linecap:round;stroke-linejoin:round;stroke-miterlimit:4;stroke-dasharray:none;stroke-dashoffset:8.61732292;stroke-opacity:1;paint-order:markers fill stroke" />
      <path
         inkscape:connector-curvature="0"
         d="m 24.419207,89.15392 c 0.22304,0.178048 0.4475,0.354467 0.680798,0.518924 0.233429,0.150355 0.465412,0.30684 0.718348,0.42305 0.0078,0.0031 0.09601,0.04007 0.112715,0.04343 0.0089,0.0019 0.03622,-0.0024 0.02715,-0.0021 -1.229506,0.03981 -0.478862,0.154755 -0.736196,-0.0074 -0.02925,-0.01915 -0.06544,-0.03676 -0.101475,-0.0373 -0.01238,-1.87e-4 -0.04894,0.0065 -0.03655,0.0067 0.610137,0.0096 0.858384,-0.02625 0.590893,0.0098 -0.24731,0.103867 -0.451081,0.299498 -0.65321,0.471562 -0.331953,0.284244 -0.636329,0.59876 -0.937017,0.915352 -0.0247,0.02856 -0.05014,0.05649 -0.0741,0.08567 -0.0144,0.01754 -0.02797,0.03579 -0.04093,0.05443 -0.0022,0.0032 -5.82e-4,0.01117 -0.0045,0.01087 -0.711998,-0.05625 -0.859019,0.05618 -0.60995,-0.103876 0,0 0.688842,0.06444 0.688842,0.06444 v 0 c -0.0188,0.01598 -0.03174,0.04754 -0.05642,0.04793 -0.494696,0.0078 -0.892238,0.142724 -0.661392,-0.123444 0.02604,-0.03003 0.05331,-0.05896 0.07997,-0.08844 0.309957,-0.311706 0.616328,-0.627761 0.944423,-0.920613 0.203165,-0.178667 0.40418,-0.364125 0.635844,-0.505814 0.286463,-0.103058 0.68603,-0.147021 0.930025,0.05838 0.227892,0.309383 -0.566814,0.238609 -0.783541,0.09715 -0.245683,-0.128188 -0.477331,-0.281855 -0.707715,-0.435295 -0.236261,-0.169241 -0.466628,-0.346453 -0.697715,-0.522674 0,0 0.691701,-0.06075 0.691701,-0.06075 z"
         id="path1668"
         style="opacity:1;fill:#1a1a1a;fill-opacity:1;fill-rule:nonzero;stroke:none;stroke-width:0.414;stroke-linecap:round;stroke-linejoin:round;stroke-miterlimit:4;stroke-dasharray:none;stroke-dashoffset:8.61732292;stroke-opacity:1;paint-order:markers fill stroke" />
    </g>
  </g>
  <g
     inkscape:groupmode="layer"
     id="layer6"
     inkscape:label="components"
     style="display:none">
    <circle
       style="opacity:1;fill:#0000ff;fill-opacity:1;fill-rule:nonzero;stroke:none;stroke-width:0.414;stroke-linecap:round;stroke-linejoin:round;stroke-miterlimit:4;stroke-dasharray:none;stroke-dashoffset:8.61732292;stroke-opacity:1;paint-order:markers fill stroke"
       id="path1474"
       cx="20.32"
       cy="102.37001"
       r="4.465251"
       inkscape:label="cvout" />
    <circle
       style="opacity:1;fill:#ff0000;fill-opacity:1;fill-rule:nonzero;stroke:none;stroke-width:0.414;stroke-linecap:round;stroke-linejoin:round;stroke-miterlimit:4;stroke-dasharray:none;stroke-dashoffset:8.61732292;stroke-opacity:1;paint-order:markers fill stroke"
       id="path1474-3"
       cx="30.57354"
       cy="36.218143"
       r="4.465251"
       inkscape:label="val1" />
    <circle
       style="opacity:1;fill:#00ff00;fill-opacity:1;fill-rule:nonzero;stroke:none;stroke-width:0.414;stroke-linecap:round;stroke-linejoin:round;stroke-miterlimit:4;stroke-dasharray:none;stroke-dashoffset:8.61732292;stroke-opacity:1;paint-order:markers fill stroke"
       id="path1474-6"
       cx="9.0741825"
       cy="53.913773"
       r="4.465251"
       inkscape:label="morphamt" />
    <circle
       style="opacity:1;fill:#ff0000;fill-opacity:1;fill-rule:nonzero;stroke:none;stroke-width:0.414;stroke-linecap:round;stroke-linejoin:round;stroke-miterlimit:4;stroke-dasharray:none;stroke-dashoffset:8.61732292;stroke-opacity:1;paint-order:markers fill stroke"
       id="path1474-7"
       cx="30.57354"
       cy="71.609398"
       r="4.465251"
       inkscape:label="val2" />
  </g>
</svg>
