<?xml version="1.0" encoding="UTF-8" standalone="no"?>
<!-- Created with Inkscape (http://www.inkscape.org/) -->

<svg
   xmlns:dc="http://purl.org/dc/elements/1.1/"
   xmlns:cc="http://creativecommons.org/ns#"
   xmlns:rdf="http://www.w3.org/1999/02/22-rdf-syntax-ns#"
   xmlns:svg="http://www.w3.org/2000/svg"
   xmlns="http://www.w3.org/2000/svg"
   xmlns:sodipodi="http://sodipodi.sourceforge.net/DTD/sodipodi-0.dtd"
   xmlns:inkscape="http://www.inkscape.org/namespaces/inkscape"
   width="40.639999mm"
   height="128.05mm"
   viewBox="0 0 40.639999 128.05"
   version="1.1"
   id="svg8"
   inkscape:version="0.92.5 (2060ec1f9f, 2020-04-08)"
   sodipodi:docname="simpleOSCvarSaw.svg">
  <defs
     id="defs2" />
  <sodipodi:namedview
     id="base"
     pagecolor="#ffffff"
     bordercolor="#666666"
     borderopacity="1.0"
     inkscape:pageopacity="0.0"
     inkscape:pageshadow="2"
     inkscape:zoom="1.4"
     inkscape:cx="-211.01438"
     inkscape:cy="231.12698"
     inkscape:document-units="mm"
     inkscape:current-layer="layer3"
     showgrid="false"
     inkscape:window-width="1920"
     inkscape:window-height="1019"
     inkscape:window-x="0"
     inkscape:window-y="0"
     inkscape:window-maximized="1" />
  <metadata
     id="metadata5">
    <rdf:RDF>
      <cc:Work
         rdf:about="">
        <dc:format>image/svg+xml</dc:format>
        <dc:type
           rdf:resource="http://purl.org/dc/dcmitype/StillImage" />
        <dc:title />
      </cc:Work>
    </rdf:RDF>
  </metadata>
  <g
     inkscape:label="Bckgrd"
     inkscape:groupmode="layer"
     id="layer1"
     transform="translate(0,-168.95)"
     style="display:inline">
    <rect
       style="fill:#373e48;fill-opacity:1;stroke-width:0.26458332"
       id="rect10"
       width="40.639999"
       height="128.05"
       x="-5.9760731e-07"
       y="169.05507"
       sodipodi:insensitive="true" />
    <rect
       transform="translate(0,168.95)"
       style="display:inline;fill:#e6e6e6;fill-opacity:1;stroke-width:0.23707746"
       id="rect33"
       width="11.528273"
       height="15.497025"
       x="24.00149"
       y="102.5366"
       rx="0.63599998"
       ry="0.66100001" />
  </g>
  <g
     inkscape:groupmode="layer"
     id="layer2"
     inkscape:label="text"
     style="display:inline">
    <g
       aria-label="simpleVariableSawOSC"
       style="font-style:normal;font-variant:normal;font-weight:normal;font-stretch:normal;font-size:4.93888903px;line-height:1.25;font-family:Uroob;-inkscape-font-specification:'Uroob, Normal';font-variant-ligatures:normal;font-variant-caps:normal;font-variant-numeric:normal;font-feature-settings:normal;text-align:start;letter-spacing:0px;word-spacing:0px;writing-mode:lr-tb;text-anchor:start;fill:#e6e6e6;fill-opacity:1;stroke:none;stroke-width:0.26458332"
       id="text37">
      <path
         d="M 3.8875833,9.0373558 Q 3.8924064,8.902308 3.7211852,8.902308 H 3.4197393 q -0.2073947,0.00241 -0.1881022,0.2821534 0.00482,0.072347 0.00482,0.1302246 0,0.1808675 0.1832791,0.1808675 h 0.4220242 q 0.2170411,0 0.3496772,0.1543403 0.1350478,0.1543403 0.1350478,0.3689702 v 0.323149 q 0,0.221865 -0.144694,0.381028 -0.144694,0.156752 -0.3641466,0.156752 H 3.2871031 q -0.2363335,0 -0.3689697,-0.151929 -0.1350477,-0.151929 -0.1350477,-0.388262 h 0.4147895 q -0.00482,0.08441 0.040997,0.120578 0.048231,0.03376 0.1254015,0.03376 h 0.3496772 q 0.1832791,0 0.1832791,-0.180867 v -0.241157 q 0,-0.1881022 -0.1832791,-0.1881022 H 3.316042 q -0.2194526,0 -0.3641467,-0.1374594 Q 2.8072013,9.6088971 2.8072013,9.3918561 V 9.0397673 q 0,-0.217041 0.1350478,-0.3713813 0.1350477,-0.1543402 0.3496772,-0.1543402 h 0.5184869 q 0.2218641,0 0.3569119,0.1471055 0.1350477,0.1471056 0.1350477,0.3762045 z"
         style="font-size:4.93888903px;fill:#e6e6e6;stroke-width:0.26458332"
         id="path38"
         inkscape:connector-curvature="0" />
      <path
         d="m 5.025843,7.8219261 q 0.2652723,0 0.2652723,0.2700954 0,0.2725071 -0.2652723,0.2725071 -0.1302246,0 -0.2001601,-0.069935 -0.069935,-0.072347 -0.069935,-0.2025717 0,-0.1302246 0.069935,-0.20016 0.069935,-0.069935 0.2001601,-0.069936 z M 5.2284146,10.865323 H 4.8136251 V 8.5212805 h 0.4147895 z"
         style="font-size:4.93888903px;fill:#e6e6e6;stroke-width:0.26458332"
         id="path40"
         inkscape:connector-curvature="0" />
      <path
         d="M 6.8393412,8.6949133 Q 6.9478617,8.5261036 7.1263177,8.5261036 h 0.4581977 q 0.2098063,0 0.361735,0.1422824 0.1519288,0.1422825 0.1519288,0.3545004 V 10.87497 H 7.6858012 V 9.1024681 q 0,-0.09164 -0.053055,-0.1543403 -0.050643,-0.065112 -0.1495171,-0.065112 H 7.1552565 q -0.1205784,0 -0.1567519,0.1663981 -0.00965,0.043408 -0.00965,0.079582 V 10.87497 H 6.5740689 V 9.063883 q 0,-0.1205783 -0.1278131,-0.1688097 -0.036174,-0.014469 -0.072347,-0.012058 H 6.02182 q -0.144694,0 -0.144694,0.3400309 V 10.87497 H 5.4623365 V 8.5261036 h 0.3689698 v 0.144694 Q 5.9374152,8.5261036 6.0893439,8.5261036 H 6.523426 q 0.2025716,0 0.3159152,0.1688097 z"
         style="font-size:4.93888903px;fill:#e6e6e6;stroke-width:0.26458332"
         id="path42"
         inkscape:connector-curvature="0" />
      <path
         d="M 8.7203634,8.6442704 Q 8.8771153,8.5309267 9.0700406,8.5309267 h 0.1688097 q 0.306269,0 0.4895481,0.1760444 0.1832791,0.1760444 0.1832791,0.4871365 v 0.9646264 q 0,0.506429 -0.3400309,0.66077 -0.1181668,0.05305 -0.2845649,0.05305 H 9.0218093 q -0.1567518,0 -0.2652724,-0.118167 v 1.179257 h -0.417201 l 0.00241,-3.4027213 h 0.378616 z M 9.4992995,10.127384 V 9.2519852 q 0,-0.1881022 -0.040997,-0.2508029 Q 9.3835443,8.8854271 9.2099115,8.8854271 H 9.0025168 q -0.074759,0 -0.161575,0.053054 -0.084405,0.053055 -0.084405,0.1254015 v 1.2130184 q 0,0.07235 0.089228,0.156752 0.089228,0.08199 0.1567519,0.08199 h 0.2073947 q 0.2387451,0 0.2773302,-0.238745 0.00965,-0.06994 0.012058,-0.149517 z"
         style="font-size:4.93888903px;fill:#e6e6e6;stroke-width:0.26458332"
         id="path44"
         inkscape:connector-curvature="0" />
      <path
         d="m 10.611032,10.877381 q -0.467844,0 -0.467844,-0.407554 V 8.1330182 h 0.436493 v 2.2089948 q 0,0.144694 0.09405,0.176045 0.04341,0.01447 0.101286,0.01206 0.06029,-0.0024 0.130225,-0.0024 v 0.349677 z"
         style="font-size:4.93888903px;fill:#e6e6e6;stroke-width:0.26458332"
         id="path46"
         inkscape:connector-curvature="0" />
      <path
         d="m 12.704272,10.33719 q -0.0072,0.364147 -0.282153,0.496783 -0.09164,0.04341 -0.209806,0.04341 h -0.571542 q -0.214629,0 -0.3545,-0.15434 -0.142282,-0.15434 -0.142282,-0.371381 V 9.0349442 q 0,-0.2146294 0.130224,-0.3689697 0.130225,-0.1543403 0.342443,-0.1543403 h 0.612538 q 0.214629,0 0.342442,0.1639865 0.127813,0.1639866 0.127813,0.3834392 v 0.3135037 q 0,0.2122179 -0.118167,0.3641466 -0.118166,0.1495171 -0.327973,0.1495171 h -0.704177 v 0.4364937 q 0,0.192925 0.195337,0.192925 h 0.366558 q 0.08199,0 0.130225,-0.04582 0.05064,-0.04823 0.04823,-0.132637 z M 11.744469,8.8854271 q -0.195337,0 -0.195337,0.2025716 v 0.4413167 h 0.528133 q 0.09164,0 0.15434,-0.050643 0.06511,-0.053055 0.06511,-0.1519287 V 9.0783524 q 0,-0.1012858 -0.06511,-0.1471056 -0.0627,-0.04582 -0.15434,-0.04582 z"
         style="font-size:4.93888903px;fill:#e6e6e6;stroke-width:0.26458332"
         id="path48"
         inkscape:connector-curvature="0" />
      <path
         d="m 15.004907,7.7857525 q 0.09646,0 0.09646,0.1012859 0,0.028939 -0.0627,0.2459798 -0.06029,0.2146294 -0.163987,0.578776 -0.103697,0.3641466 -0.209806,0.7307048 -0.103697,0.3641466 -0.207395,0.725882 -0.101286,0.361735 -0.202571,0.706589 H 13.791889 Q 13.586906,10.185262 13.425331,9.6306012 13.263756,9.0759408 13.155235,8.7117942 13.049126,8.3476476 12.99366,8.1595454 12.93819,7.9714432 12.92855,7.9473275 q -0.0072,-0.024116 -0.01206,-0.062701 -0.0048,-0.038585 0.02653,-0.067524 0.03135,-0.03135 0.07958,-0.033762 h 0.291799 l 0.696943,2.3030465 0.696943,-2.300635 z"
         style="font-size:4.93888903px;fill:#e6e6e6;stroke-width:0.26458332"
         id="path50"
         inkscape:connector-curvature="0" />
      <path
         d="m 16.59413,9.0879987 q 0,-0.2025716 -0.195337,-0.2025716 h -0.438905 q -0.07235,0 -0.113344,0.04582 -0.03858,0.043408 -0.041,0.1133437 h -0.414789 q 0.0048,-0.2194526 0.142282,-0.3713813 0.13746,-0.1519287 0.349677,-0.1519287 h 0.643889 q 0.207395,0 0.340031,0.1495171 0.132636,0.1495172 0.132636,0.3641466 v 1.8424365 h -0.402732 v -0.09405 q -0.130224,0.101286 -0.255626,0.101286 h -0.395497 q -0.219452,0 -0.397908,-0.142282 -0.178456,-0.142283 -0.178456,-0.349678 V 9.9344587 q 0,-0.2122179 0.178456,-0.3545004 0.178456,-0.1422824 0.397908,-0.1422824 h 0.467844 q 0.09646,0 0.180868,0.053055 z m -0.0072,1.2250763 V 10.01404 q 0,-0.091639 -0.05305,-0.1543399 -0.05064,-0.065112 -0.149517,-0.065112 h -0.409966 q -0.101286,0 -0.147106,0.065112 -0.04582,0.062701 -0.04582,0.1543399 v 0.299035 q 0,0.09164 0.04582,0.156752 0.04582,0.0627 0.147106,0.0627 h 0.409966 q 0.09888,0 0.149517,-0.0627 0.05305,-0.06511 0.05305,-0.156752 z"
         style="font-size:4.93888903px;fill:#e6e6e6;stroke-width:0.26458332"
         id="path52"
         inkscape:connector-curvature="0" />
      <path
         d="m 18.325634,8.8830155 -0.243568,-0.00241 q -0.303857,0 -0.395497,0.2194526 -0.03135,0.074759 -0.03135,0.1712213 V 10.87497 h -0.412378 l -0.0024,-2.1366485 q -0.106109,0 -0.106109,-0.079582 V 8.5188689 h 0.475079 v 0.2194526 q 0.03376,-0.096463 0.12299,-0.1591634 0.08923,-0.062701 0.190514,-0.062701 h 0.402731 z"
         style="font-size:4.93888903px;fill:#e6e6e6;stroke-width:0.26458332"
         id="path54"
         inkscape:connector-curvature="0" />
      <path
         d="m 18.776598,7.8219261 q 0.265272,0 0.265272,0.2700954 0,0.2725071 -0.265272,0.2725071 -0.130225,0 -0.20016,-0.069935 -0.06994,-0.072347 -0.06994,-0.2025717 0,-0.1302246 0.06994,-0.20016 0.06994,-0.069935 0.20016,-0.069936 z m 0.202571,3.0433969 H 18.56438 V 8.5212805 h 0.414789 z"
         style="font-size:4.93888903px;fill:#e6e6e6;stroke-width:0.26458332"
         id="path56"
         inkscape:connector-curvature="0" />
      <path
         d="m 20.450224,9.0879987 q 0,-0.2025716 -0.195337,-0.2025716 h -0.438905 q -0.07235,0 -0.113344,0.04582 -0.03859,0.043408 -0.041,0.1133437 h -0.41479 q 0.0048,-0.2194526 0.142283,-0.3713813 0.137459,-0.1519287 0.349677,-0.1519287 H 20.3827 q 0.207395,0 0.340031,0.1495171 0.132636,0.1495172 0.132636,0.3641466 v 1.8424365 h -0.402731 v -0.09405 q -0.130225,0.101286 -0.255627,0.101286 h -0.395497 q -0.219452,0 -0.397908,-0.142282 -0.178456,-0.142283 -0.178456,-0.349678 V 9.9344587 q 0,-0.2122179 0.178456,-0.3545004 0.178456,-0.1422824 0.397908,-0.1422824 h 0.467844 q 0.09646,0 0.180868,0.053055 z m -0.0072,1.2250763 V 10.01404 q 0,-0.091639 -0.05305,-0.1543399 -0.05064,-0.065112 -0.149517,-0.065112 H 19.83049 q -0.101286,0 -0.147105,0.065112 -0.04582,0.062701 -0.04582,0.1543399 v 0.299035 q 0,0.09164 0.04582,0.156752 0.04582,0.0627 0.147105,0.0627 h 0.409967 q 0.09887,0 0.149517,-0.0627 0.05305,-0.06511 0.05305,-0.156752 z"
         style="font-size:4.93888903px;fill:#e6e6e6;stroke-width:0.26458332"
         id="path58"
         inkscape:connector-curvature="0" />
      <path
         d="m 21.511314,8.596039 q 0.120578,-0.072347 0.265272,-0.072347 h 0.265273 q 0.315915,0 0.470255,0.1929254 0.154341,0.1929253 0.154341,0.5208984 v 0.9163952 q 0,0.311092 -0.18328,0.511252 -0.183279,0.20016 -0.489548,0.20016 h -0.168809 q -0.192926,0 -0.349678,-0.113343 v 0.113343 H 21.096524 V 7.8074567 h 0.41479 z m 0.742763,1.550638 V 9.2688662 q 0,-0.1905138 -0.041,-0.2580377 -0.07958,-0.1302246 -0.248391,-0.1302246 h -0.255627 q -0.122989,0 -0.180867,0.098874 -0.01929,0.03135 -0.01688,0.067524 v 1.2853651 q -0.0024,0.110932 0.171221,0.163987 0.04341,0.01447 0.07476,0.01447 h 0.207395 q 0.248391,0 0.279741,-0.214629 0.0096,-0.06752 0.0096,-0.149517 z"
         style="font-size:4.93888903px;fill:#e6e6e6;stroke-width:0.26458332"
         id="path60"
         inkscape:connector-curvature="0" />
      <path
         d="m 23.370631,10.877381 q -0.467844,0 -0.467844,-0.407554 V 8.1330182 h 0.436494 v 2.2089948 q 0,0.144694 0.09405,0.176045 0.04341,0.01447 0.101286,0.01206 0.06029,-0.0024 0.130225,-0.0024 v 0.349677 z"
         style="font-size:4.93888903px;fill:#e6e6e6;stroke-width:0.26458332"
         id="path62"
         inkscape:connector-curvature="0" />
      <path
         d="m 25.463873,10.33719 q -0.0072,0.364147 -0.282153,0.496783 -0.09164,0.04341 -0.209807,0.04341 h -0.571541 q -0.214629,0 -0.3545,-0.15434 -0.142283,-0.15434 -0.142283,-0.371381 V 9.0349442 q 0,-0.2146294 0.130225,-0.3689697 0.130224,-0.1543403 0.342442,-0.1543403 h 0.612538 q 0.21463,0 0.342443,0.1639865 0.127813,0.1639866 0.127813,0.3834392 v 0.3135037 q 0,0.2122179 -0.118167,0.3641466 -0.118167,0.1495171 -0.327973,0.1495171 h -0.704178 v 0.4364937 q 0,0.192925 0.195337,0.192925 h 0.366559 q 0.08199,0 0.130224,-0.04582 0.05064,-0.04823 0.04823,-0.132637 z M 24.504069,8.8854271 q -0.195337,0 -0.195337,0.2025716 v 0.4413167 h 0.528134 q 0.09164,0 0.15434,-0.050643 0.06511,-0.053055 0.06511,-0.1519287 V 9.0783524 q 0,-0.1012858 -0.06511,-0.1471056 -0.0627,-0.04582 -0.15434,-0.04582 z"
         style="font-size:4.93888903px;fill:#e6e6e6;stroke-width:0.26458332"
         id="path64"
         inkscape:connector-curvature="0" />
      <path
         d="m 26.30792,8.178838 q -0.183279,0 -0.183279,0.1905137 v 0.5932455 q 0,0.1808675 0.183279,0.1808675 h 0.639065 q 0.217041,0 0.349678,0.1543403 0.135047,0.1543403 0.135047,0.3689697 v 0.6752383 q 0,0.221865 -0.144694,0.381028 -0.144694,0.156752 -0.364146,0.156752 h -0.747586 q -0.236334,0 -0.36897,-0.151929 -0.135047,-0.151929 -0.135047,-0.388262 h 0.414789 q -0.0048,0.08441 0.041,0.120578 0.04823,0.03376 0.125401,0.03376 h 0.566718 q 0.183279,0 0.183279,-0.180867 V 9.7198292 q 0,-0.1881022 -0.183279,-0.1881022 h -0.614949 q -0.219453,0 -0.364147,-0.1591634 Q 25.695382,9.2134002 25.695382,8.991536 V 8.3162973 q 0,-0.2170411 0.135048,-0.3713813 0.135048,-0.1543403 0.349677,-0.1543403 h 0.747586 q 0.221864,0 0.352089,0.1471056 0.127813,0.1471055 0.127813,0.3762044 h -0.41479 Q 26.997628,8.178838 26.826407,8.178838 Z"
         style="font-size:4.93888903px;fill:#e6e6e6;stroke-width:0.26458332"
         id="path66"
         inkscape:connector-curvature="0" />
      <path
         d="m 28.914826,9.0879987 q 0,-0.2025716 -0.195337,-0.2025716 h -0.438906 q -0.07235,0 -0.113343,0.04582 -0.03859,0.043408 -0.041,0.1133437 h -0.414789 q 0.0048,-0.2194526 0.142282,-0.3713813 0.137459,-0.1519287 0.349677,-0.1519287 h 0.643889 q 0.207394,0 0.340031,0.1495171 0.132636,0.1495172 0.132636,0.3641466 v 1.8424365 h -0.402732 v -0.09405 q -0.130225,0.101286 -0.255626,0.101286 h -0.395497 q -0.219453,0 -0.397909,-0.142282 Q 27.68975,10.600051 27.68975,10.392656 V 9.9344587 q 0,-0.2122179 0.178455,-0.3545004 0.178456,-0.1422824 0.397909,-0.1422824 h 0.467844 q 0.09646,0 0.180868,0.053055 z m -0.0072,1.2250763 V 10.01404 q 0,-0.091639 -0.05306,-0.1543399 -0.05064,-0.065112 -0.149517,-0.065112 h -0.409966 q -0.101286,0 -0.147106,0.065112 -0.04582,0.062701 -0.04582,0.1543399 v 0.299035 q 0,0.09164 0.04582,0.156752 0.04582,0.0627 0.147106,0.0627 h 0.409966 q 0.09887,0 0.149517,-0.0627 0.05306,-0.06511 0.05306,-0.156752 z"
         style="font-size:4.93888903px;fill:#e6e6e6;stroke-width:0.26458332"
         id="path68"
         inkscape:connector-curvature="0" />
      <path
         d="m 30.764496,10.698925 q -0.171221,0.166398 -0.356912,0.166398 h -0.318327 q -0.214629,0 -0.36897,-0.13987 -0.15434,-0.139871 -0.15434,-0.354501 V 8.5261036 h 0.412378 v 1.7652674 q 0,0.09164 0.04582,0.156751 0.04582,0.0627 0.147105,0.0627 h 0.18328 q 0.125401,0 0.183279,-0.110932 0.01688,-0.03376 0.01688,-0.07235 V 8.5261036 l 0.414789,-0.00241 v 1.8086754 q 0,0.07717 0.05547,0.127813 0.05788,0.05064 0.135048,0.05064 h 0.183279 q 0.09887,0 0.149517,-0.0627 0.05306,-0.06511 0.05306,-0.156751 V 8.5261036 l 0.412378,-0.00241 v 1.8472604 q 0,0.209807 -0.149518,0.352089 -0.149517,0.142282 -0.364146,0.142282 h -0.313504 q -0.20016,0 -0.366558,-0.166398 z"
         style="font-size:4.93888903px;fill:#e6e6e6;stroke-width:0.26458332"
         id="path70"
         inkscape:connector-curvature="0" />
      <path
         d="m 33.938119,10.27449 q 0,0.248391 -0.183279,0.426847 -0.18328,0.176044 -0.438906,0.176044 h -0.482313 q -0.258038,0 -0.44614,-0.173632 -0.190514,-0.173633 -0.190514,-0.429259 V 8.3934674 q 0,-0.2580376 0.190514,-0.4316705 0.190514,-0.1736328 0.44614,-0.1736328 h 0.482313 q 0.253215,0 0.438906,0.1760444 0.183279,0.1760444 0.183279,0.4292589 z M 33.501625,10.19491 V 8.4730491 q 0,-0.1953369 -0.135048,-0.2773302 -0.04341,-0.028939 -0.103697,-0.026527 h -0.40032 q -0.103698,0 -0.166398,0.091639 -0.0627,0.09164 -0.0627,0.2122179 v 1.7218592 q 0,0.190514 0.127813,0.274919 0.04341,0.02894 0.101286,0.02894 h 0.40032 q 0.110932,0 0.176044,-0.09405 0.0627,-0.09405 0.0627,-0.209807 z"
         style="font-size:4.93888903px;fill:#e6e6e6;stroke-width:0.26458332"
         id="path72"
         inkscape:connector-curvature="0" />
      <path
         d="m 34.81834,8.178838 q -0.183279,0 -0.183279,0.1905137 v 0.5932455 q 0,0.1808675 0.183279,0.1808675 h 0.639065 q 0.217041,0 0.349677,0.1543403 0.135048,0.1543403 0.135048,0.3689697 v 0.6752383 q 0,0.221865 -0.144694,0.381028 -0.144694,0.156752 -0.364146,0.156752 h -0.747586 q -0.236334,0 -0.36897,-0.151929 -0.135048,-0.151929 -0.135048,-0.388262 h 0.41479 q -0.0048,0.08441 0.041,0.120578 0.04823,0.03376 0.125402,0.03376 h 0.566718 q 0.183279,0 0.183279,-0.180867 V 9.7198292 q 0,-0.1881022 -0.183279,-0.1881022 h -0.614949 q -0.219453,0 -0.364147,-0.1591634 Q 34.205802,9.2134002 34.205802,8.991536 V 8.3162973 q 0,-0.2170411 0.135048,-0.3713813 0.135048,-0.1543403 0.349677,-0.1543403 h 0.747586 q 0.221864,0 0.352088,0.1471056 0.127814,0.1471055 0.127814,0.3762044 h -0.41479 Q 35.508048,8.178838 35.336827,8.178838 Z"
         style="font-size:4.93888903px;fill:#e6e6e6;stroke-width:0.26458332"
         id="path74"
         inkscape:connector-curvature="0" />
      <path
         d="m 37.42042,8.4031137 q 0,-0.2315104 -0.190513,-0.233922 h -0.424436 q -0.09405,0 -0.13746,0.060289 -0.04341,0.060289 -0.04341,0.1471055 v 1.9171958 q 0,0.08682 0.04341,0.147106 0.04341,0.06029 0.13746,0.06029 h 0.424436 q 0.18569,0 0.190513,-0.21463 0,-0.05788 0,-0.110932 h 0.436494 v 0.197749 q 0,0.217041 -0.156752,0.361735 -0.156752,0.142282 -0.36897,0.142282 h -0.55466 q -0.224276,0 -0.405143,-0.142282 Q 36.18811,10.592816 36.18811,10.373364 V 8.2970047 q 0,-0.2194526 0.183279,-0.3641466 0.183279,-0.144694 0.405143,-0.144694 h 0.55466 q 0.21463,0 0.371382,0.1471056 0.15434,0.1471056 0.15434,0.361735 V 8.5188689 H 37.42042 Z"
         style="font-size:4.93888903px;fill:#e6e6e6;stroke-width:0.26458332"
         id="path76"
         inkscape:connector-curvature="0" />
    </g>
    <g
       aria-label="OUT"
       style="font-style:normal;font-variant:normal;font-weight:normal;font-stretch:normal;font-size:3.17499995px;line-height:1.25;font-family:Uroob;-inkscape-font-specification:'Uroob, Normal';font-variant-ligatures:normal;font-variant-caps:normal;font-variant-numeric:normal;font-feature-settings:normal;text-align:start;letter-spacing:0px;word-spacing:0px;writing-mode:lr-tb;text-anchor:start;fill:#1a1a1a;fill-opacity:1;stroke:none;stroke-width:0.26458332"
       id="text27">
      <path
         d="m 29.011408,105.17284 q 0,0.15968 -0.117822,0.27441 -0.117822,0.11317 -0.282153,0.11317 h -0.310059 q -0.165881,0 -0.286804,-0.11162 -0.122473,-0.11163 -0.122473,-0.27596 v -1.20922 q 0,-0.16589 0.122473,-0.27751 0.122473,-0.11162 0.286804,-0.11162 h 0.310059 q 0.16278,0 0.282153,0.11317 0.117822,0.11317 0.117822,0.27596 z m -0.280603,-0.0512 v -1.1069 q 0,-0.12558 -0.08682,-0.17829 -0.02791,-0.0186 -0.06666,-0.017 h -0.257348 q -0.06666,0 -0.106971,0.0589 -0.04031,0.0589 -0.04031,0.13643 v 1.1069 q 0,0.12248 0.08216,0.17674 0.02791,0.0186 0.06511,0.0186 h 0.257348 q 0.07131,0 0.113172,-0.0605 0.04031,-0.0605 0.04031,-0.13488 z"
         style="fill:#1a1a1a;stroke-width:0.26458332"
         id="path31"
         inkscape:connector-curvature="0" />
      <path
         d="m 29.44704,105.1837 q 0,0.13332 0.116272,0.13332 h 0.319361 q 0.05891,0 0.08992,-0.0388 0.03256,-0.0388 0.03256,-0.0946 v -1.60766 l 0.280603,-0.002 v 1.66037 q 0,0.13642 -0.113171,0.23099 -0.113172,0.0946 -0.255799,0.0946 h -0.37207 q -0.144177,0 -0.260449,-0.0915 -0.117823,-0.0915 -0.117823,-0.23409 v -1.65882 h 0.280603 z"
         style="fill:#1a1a1a;stroke-width:0.26458332"
         id="path33"
         inkscape:connector-curvature="0" />
      <path
         d="m 31.56009,103.57914 q 0.06976,0 0.07906,0.0775 v 0.17828 h -0.458887 v 1.72548 h -0.283704 v -1.72548 h -0.458886 v -0.17828 q 0,-0.0341 0.02325,-0.0558 0.02481,-0.0217 0.05736,-0.0217 z"
         style="fill:#1a1a1a;stroke-width:0.26458332"
         id="path35"
         inkscape:connector-curvature="0" />
    </g>
    <g
       aria-label="V/OCT"
       style="font-style:normal;font-variant:normal;font-weight:normal;font-stretch:normal;font-size:3.17499995px;line-height:1.25;font-family:Uroob;-inkscape-font-specification:'Uroob, Normal';font-variant-ligatures:normal;font-variant-caps:normal;font-variant-numeric:normal;font-feature-settings:normal;text-align:start;letter-spacing:0px;word-spacing:0px;writing-mode:lr-tb;text-anchor:start;fill:#e6e6e6;fill-opacity:1;stroke:none;stroke-width:0.26458332"
       id="text15"
       transform="translate(0.30257929,-0.3077493)">
      <path
         d="m 6.9451376,56.443776 q 0.062012,0 0.062012,0.06511 0,0.0186 -0.040308,0.15813 -0.038757,0.137976 -0.1054199,0.37207 -0.066663,0.234095 -0.1348755,0.469739 -0.066663,0.234094 -0.1333252,0.466638 -0.065112,0.232544 -0.1302246,0.454236 H 6.1653402 Q 6.0335653,57.986317 5.9296957,57.62975 5.8258261,57.273183 5.7560629,57.039088 5.68785,56.804994 5.6521933,56.684071 q -0.035657,-0.120922 -0.041858,-0.136425 -0.00465,-0.0155 -0.00775,-0.04031 -0.0031,-0.02481 0.017053,-0.04341 0.020154,-0.02015 0.05116,-0.0217 h 0.1875854 l 0.4480347,1.480529 0.4480346,-1.478979 z"
         style="font-size:3.17499995px;fill:#e6e6e6;stroke-width:0.26458332"
         id="path91"
         inkscape:connector-curvature="0" />
      <path
         d="M 8.0768514,56.449977 7.4567343,58.894789 H 7.1714804 l 0.6201171,-2.444812 z"
         style="font-size:3.17499995px;fill:#e6e6e6;stroke-width:0.26458332"
         id="path93"
         inkscape:connector-curvature="0" />
      <path
         d="m 9.3527426,58.043678 q 0,0.15968 -0.1178223,0.274402 Q 9.117098,58.431252 8.952767,58.431252 H 8.6427084 q -0.1658814,0 -0.2868042,-0.111622 Q 8.2334311,58.208009 8.2334311,58.043678 V 56.83445 q 0,-0.165882 0.1224731,-0.277503 0.1224731,-0.111621 0.2868042,-0.111621 H 8.952767 q 0.1627807,0 0.2821533,0.113172 0.1178223,0.113171 0.1178223,0.275952 z m -0.2806031,-0.05116 v -1.10691 q 0,-0.125573 -0.086816,-0.178283 -0.027905,-0.0186 -0.066663,-0.01705 H 8.6613119 q -0.066663,0 -0.1069702,0.05891 -0.040308,0.05891 -0.040308,0.136425 v 1.10691 q 0,0.122473 0.082166,0.176733 0.027905,0.0186 0.065112,0.0186 h 0.2573486 q 0.071314,0 0.1131714,-0.06046 0.040308,-0.06046 0.040308,-0.134875 z"
         style="font-size:3.17499995px;fill:#e6e6e6;stroke-width:0.26458332"
         id="path95"
         inkscape:connector-curvature="0" />
      <path
         d="m 10.299971,56.840651 q 0,-0.148828 -0.122473,-0.150378 H 9.9046467 q -0.060462,0 -0.088367,0.03876 -0.027905,0.03876 -0.027905,0.09457 v 1.232483 q 0,0.05581 0.027905,0.09457 0.027905,0.03876 0.088367,0.03876 h 0.2728513 q 0.119373,0 0.122473,-0.137976 0,-0.03721 0,-0.07131 h 0.280603 v 0.127124 q 0,0.139527 -0.100769,0.232544 -0.100769,0.09147 -0.237194,0.09147 H 9.8860432 q -0.1441773,0 -0.2604493,-0.09147 -0.1178222,-0.09147 -0.1178222,-0.232544 v -1.334802 q 0,-0.141077 0.1178222,-0.234094 0.1178223,-0.09302 0.2604493,-0.09302 h 0.3565678 q 0.137976,0 0.238745,0.09457 0.09922,0.09457 0.09922,0.232544 v 0.142627 h -0.280603 z"
         style="font-size:3.17499995px;fill:#e6e6e6;stroke-width:0.26458332"
         id="path97"
         inkscape:connector-curvature="0" />
      <path
         d="m 11.856466,56.449977 q 0.06976,0 0.07906,0.07752 v 0.178283 h -0.458887 v 1.725477 H 11.19294 V 56.70578 h -0.458886 v -0.178283 q 0,-0.03411 0.02325,-0.05581 0.02481,-0.0217 0.05736,-0.0217 z"
         style="font-size:3.17499995px;fill:#e6e6e6;stroke-width:0.26458332"
         id="path99"
         inkscape:connector-curvature="0" />
    </g>
    <g
       aria-label="AFT"
       style="font-style:normal;font-variant:normal;font-weight:normal;font-stretch:normal;font-size:3.17499995px;line-height:1.25;font-family:Uroob;-inkscape-font-specification:'Uroob, Normal';font-variant-ligatures:normal;font-variant-caps:normal;font-variant-numeric:normal;font-feature-settings:normal;text-align:start;letter-spacing:0px;word-spacing:0px;writing-mode:lr-tb;text-anchor:start;fill:#e6e6e6;fill-opacity:1;stroke:none;stroke-width:0.26458332"
       id="text19"
       transform="translate(0.3025799,-0.15388676)">
      <path
         d="m 8.0619172,78.283234 h -0.280603 v -0.84336 H 7.1922028 v 0.84336 H 6.9115998 V 76.62442 q 0,-0.141076 0.1178223,-0.234094 0.1178223,-0.09302 0.2604492,-0.09302 h 0.4030762 q 0.1395263,0 0.254248,0.09457 0.1147217,0.09457 0.1147217,0.232544 z M 7.7813142,77.201129 V 76.67558 q 0,-0.05581 -0.032556,-0.09457 -0.031006,-0.03876 -0.089917,-0.03876 H 7.3084748 q -0.060461,0 -0.088367,0.03876 -0.027905,0.03876 -0.027905,0.09457 v 0.525549 z"
         style="font-size:3.17499995px;fill:#e6e6e6;stroke-width:0.26458332"
         id="path84"
         inkscape:connector-curvature="0" />
      <path
         d="m 9.2680451,76.542255 h -0.651123 q -0.060462,0 -0.088367,0.03876 -0.027905,0.03876 -0.027905,0.09457 v 0.47904 h 0.703833 v 0.238745 h -0.703833 v 0.888318 H 8.2200471 V 76.62442 q 0,-0.141076 0.1178222,-0.234094 0.1178223,-0.09302 0.2604492,-0.09302 h 0.6697266 z"
         style="font-size:3.17499995px;fill:#e6e6e6;stroke-width:0.26458332"
         id="path86"
         inkscape:connector-curvature="0" />
      <path
         d="m 10.547037,76.301959 q 0.06976,0 0.07906,0.07752 v 0.178284 H 10.16721 v 1.725476 H 9.8835114 V 76.557758 H 9.4246247 v -0.178284 q 0,-0.03411 0.023254,-0.05581 0.024805,-0.0217 0.057361,-0.0217 z"
         style="font-size:3.17499995px;fill:#e6e6e6;stroke-width:0.26458332"
         id="path88"
         inkscape:connector-curvature="0" />
    </g>
    <g
       aria-label="PW"
       style="font-style:normal;font-variant:normal;font-weight:normal;font-stretch:normal;font-size:3.17499995px;line-height:1.25;font-family:Uroob;-inkscape-font-specification:'Uroob, Normal';font-variant-ligatures:normal;font-variant-caps:normal;font-variant-numeric:normal;font-feature-settings:normal;text-align:start;letter-spacing:0px;word-spacing:0px;writing-mode:lr-tb;text-anchor:start;fill:#e6e6e6;fill-opacity:1;stroke:none;stroke-width:0.26458332"
       id="text23"
       transform="translate(0.30256705)">
      <path
         d="m 8.5417327,96.737625 q 0,0.137976 -0.083716,0.224793 -0.083716,0.08527 -0.2232422,0.08527 H 7.6890716 V 97.90655 H 7.4069182 V 95.91907 H 8.172763 q 0.1519287,0 0.2604492,0.10077 0.1085205,0.100769 0.1085205,0.252697 z m -0.280603,-0.06666 v -0.347266 q 0,-0.10387 -0.080615,-0.150378 -0.024805,-0.0155 -0.057361,-0.01395 h -0.434082 v 0.644922 h 0.4805908 q 0.079065,-0.0016 0.088367,-0.08527 0.0031,-0.02481 0.0031,-0.04806 z"
         style="fill:#e6e6e6;stroke-width:0.26458332"
         id="path79"
         inkscape:connector-curvature="0" />
      <path
         d="m 8.6936614,95.985733 q 0,-0.07596 0.097668,-0.06666 h 0.1891357 v 1.16117 l 0.3286621,-0.765845 h 0.2046387 l 0.3302124,0.830957 V 95.91907 h 0.1782837 q 0.02015,-0.0016 0.03566,-0.0016 0.05736,0 0.06666,0.03721 0.0093,0.03721 0.0047,0.06511 v 1.880505 H 9.8889373 L 9.4238494,96.847696 H 9.400595 L 8.9355071,97.900345 H 8.6952117 V 96.01984 q -0.0031,-0.01705 -0.00155,-0.03411 z"
         style="fill:#e6e6e6;stroke-width:0.26458332"
         id="path81"
         inkscape:connector-curvature="0" />
    </g>
    <g
       aria-label="TRANSP"
       style="font-style:normal;font-variant:normal;font-weight:normal;font-stretch:normal;font-size:3.17499995px;line-height:1.25;font-family:Uroob;-inkscape-font-specification:'Uroob, Normal';font-variant-ligatures:normal;font-variant-caps:normal;font-variant-numeric:normal;font-feature-settings:normal;text-align:start;letter-spacing:0px;word-spacing:0px;writing-mode:lr-tb;text-anchor:start;fill:#e6e6e6;fill-opacity:1;stroke:none;stroke-width:0.26458332"
       id="text47"
       transform="translate(0.3025777,-0.46159973)">
      <path
         d="m 5.9938263,37.055331 q 0.069763,0 0.079065,0.07751 V 37.31113 H 5.6140045 v 1.725476 H 5.3303009 V 37.31113 H 4.8714142 v -0.178284 q 0,-0.03411 0.023254,-0.05581 0.024805,-0.0217 0.057361,-0.0217 z"
         style="fill:#e6e6e6;stroke-width:0.26458332"
         id="path102"
         inkscape:connector-curvature="0" />
      <path
         d="M 7.437149,39.042807 H 7.145694 L 6.7348663,38.183945 H 6.5131744 v 0.858862 H 6.2310211 v -1.987476 h 0.7658447 q 0.1519287,0 0.2604492,0.100769 0.1085206,0.10077 0.1085206,0.252698 v 0.465088 q 0,0.220142 -0.1891358,0.288355 -0.058911,0.0217 -0.1302246,0.0217 z M 7.0852325,37.807224 v -0.347266 q 0,-0.10387 -0.080615,-0.150379 -0.024805,-0.0155 -0.057361,-0.01395 H 6.5131744 v 0.644922 h 0.4805908 q 0.079065,-0.0016 0.088367,-0.08527 0.0031,-0.02481 0.0031,-0.04806 z"
         style="fill:#e6e6e6;stroke-width:0.26458332"
         id="path104"
         inkscape:connector-curvature="0" />
      <path
         d="M 8.739395,39.036606 H 8.458792 v -0.84336 H 7.8696807 v 0.84336 h -0.280603 v -1.658814 q 0,-0.141076 0.1178222,-0.234094 0.1178223,-0.09302 0.2604492,-0.09302 h 0.4030762 q 0.1395264,0 0.254248,0.09457 0.1147217,0.09457 0.1147217,0.232544 z M 8.458792,37.954501 v -0.525549 q 0,-0.05581 -0.032556,-0.09457 -0.031006,-0.03876 -0.089917,-0.03876 H 7.9859527 q -0.060462,0 -0.088367,0.03876 -0.027905,0.03876 -0.027905,0.09457 v 0.525549 z"
         style="fill:#e6e6e6;stroke-width:0.26458332"
         id="path106"
         inkscape:connector-curvature="0" />
      <path
         d="m 10.091251,38.963742 q 0,0.03101 -0.02325,0.05426 -0.02325,0.0217 -0.05426,0.0217 H 9.8742096 Q 9.7889435,38.869174 9.5719025,38.4785 9.3548614,38.087827 9.1827789,37.766916 v 1.27279 H 8.897525 v -1.90686 q 0,-0.03101 0.023254,-0.05426 0.023254,-0.02325 0.05426,-0.02325 h 0.1612304 q 0,0.0016 0.026355,0.05271 0.026355,0.05116 0.069763,0.136426 0.043408,0.08527 0.099219,0.193787 0.057361,0.10852 0.116272,0.224792 0.060461,0.116272 0.1193726,0.230994 0.058911,0.113171 0.1085205,0.209289 0.049609,0.09457 0.083716,0.161231 0.035657,0.06666 0.046509,0.08837 v -1.297596 h 0.2852545 z"
         style="fill:#e6e6e6;stroke-width:0.26458332"
         id="path108"
         inkscape:connector-curvature="0" />
      <path
         d="m 10.650906,37.301828 q -0.117822,0 -0.117822,0.122473 v 0.381372 q 0,0.116272 0.117822,0.116272 h 0.410828 q 0.139526,0 0.224792,0.09922 0.08682,0.09922 0.08682,0.237195 v 0.434082 q 0,0.142627 -0.09302,0.244946 -0.09302,0.100769 -0.234094,0.100769 H 10.56564 q -0.151929,0 -0.237195,-0.09767 -0.08682,-0.09767 -0.08682,-0.249597 h 0.26665 q -0.0031,0.05426 0.02636,0.07751 0.03101,0.0217 0.08062,0.0217 h 0.364318 q 0.117823,0 0.117823,-0.116272 v -0.381372 q 0,-0.120923 -0.117823,-0.120923 h -0.395324 q -0.141077,0 -0.234095,-0.102319 -0.09302,-0.102319 -0.09302,-0.244946 v -0.434082 q 0,-0.139527 0.08682,-0.238745 0.08682,-0.09922 0.224793,-0.09922 h 0.480591 q 0.142627,0 0.226342,0.09457 0.08217,0.09457 0.08217,0.241845 h -0.266651 q 0.0031,-0.08682 -0.10697,-0.08682 z"
         style="fill:#e6e6e6;stroke-width:0.26458332"
         id="path110"
         inkscape:connector-curvature="0" />
      <path
         d="m 12.666287,37.873886 q 0,0.137976 -0.08372,0.224793 -0.08371,0.08527 -0.223242,0.08527 h -0.545703 v 0.858862 h -0.282153 v -1.987476 h 0.765845 q 0.151928,0 0.260449,0.100769 0.10852,0.10077 0.10852,0.252698 z m -0.280603,-0.06666 V 37.45996 q 0,-0.10387 -0.08061,-0.150379 -0.0248,-0.0155 -0.05736,-0.01395 h -0.434082 v 0.644922 h 0.480591 q 0.07906,-0.0016 0.08837,-0.08527 0.0031,-0.02481 0.0031,-0.04806 z"
         style="fill:#e6e6e6;stroke-width:0.26458332"
         id="path112"
         inkscape:connector-curvature="0" />
    </g>
    <g
       aria-label="OCT"
       style="font-style:normal;font-variant:normal;font-weight:normal;font-stretch:normal;font-size:3.17499995px;line-height:1.25;font-family:Uroob;-inkscape-font-specification:'Uroob, Normal';font-variant-ligatures:normal;font-variant-caps:normal;font-variant-numeric:normal;font-feature-settings:normal;text-align:start;letter-spacing:0px;word-spacing:0px;writing-mode:lr-tb;text-anchor:start;fill:#e6e6e6;fill-opacity:1;stroke:none;stroke-width:0.26458332"
       id="text69"
       transform="translate(-1.8337432,-0.08053451)">
      <path
         d="m 33.185797,38.271061 q 0,0.15968 -0.117822,0.274402 -0.117822,0.113171 -0.282153,0.113171 h -0.310059 q -0.165881,0 -0.286804,-0.111621 -0.122473,-0.111621 -0.122473,-0.275952 v -1.209229 q 0,-0.165881 0.122473,-0.277502 0.122473,-0.111621 0.286804,-0.111621 h 0.310059 q 0.16278,0 0.282153,0.113171 0.117822,0.113172 0.117822,0.275952 z m -0.280603,-0.05116 v -1.106909 q 0,-0.125574 -0.08682,-0.178284 -0.02791,-0.0186 -0.06666,-0.01705 h -0.257349 q -0.06666,0 -0.10697,0.05891 -0.04031,0.05891 -0.04031,0.136426 v 1.106909 q 0,0.122473 0.08217,0.176734 0.0279,0.0186 0.06511,0.0186 h 0.257349 q 0.07131,0 0.113171,-0.06046 0.04031,-0.06046 0.04031,-0.134876 z"
         style="fill:#e6e6e6;stroke-width:0.26458332"
         id="path115"
         inkscape:connector-curvature="0" />
      <path
         d="m 34.133026,37.068034 q 0,-0.148828 -0.122473,-0.150379 h -0.272852 q -0.06046,0 -0.08837,0.03876 -0.02791,0.03876 -0.02791,0.09457 v 1.232483 q 0,0.05581 0.02791,0.09457 0.0279,0.03876 0.08837,0.03876 h 0.272852 q 0.119372,0 0.122473,-0.137976 0,-0.03721 0,-0.07131 h 0.280603 v 0.127124 q 0,0.139526 -0.100769,0.232544 -0.100769,0.09147 -0.237195,0.09147 h -0.356567 q -0.144177,0 -0.260449,-0.09147 -0.117823,-0.09147 -0.117823,-0.232544 v -1.334802 q 0,-0.141077 0.117823,-0.234095 0.117822,-0.09302 0.260449,-0.09302 h 0.356567 q 0.137976,0 0.238745,0.09457 0.09922,0.09457 0.09922,0.232544 v 0.142627 h -0.280603 z"
         style="fill:#e6e6e6;stroke-width:0.26458332"
         id="path117"
         inkscape:connector-curvature="0" />
      <path
         d="m 35.68952,36.67736 q 0.06976,0 0.07906,0.07751 v 0.178284 H 35.309693 V 38.65863 H 35.02599 V 36.933154 H 34.567103 V 36.75487 q 0,-0.03411 0.02326,-0.05581 0.0248,-0.0217 0.05736,-0.0217 z"
         style="fill:#e6e6e6;stroke-width:0.26458332"
         id="path119"
         inkscape:connector-curvature="0" />
    </g>
    <g
       aria-label="SPREAD"
       transform="matrix(0.26458333,0,0,0.26458333,-0.7728613,0.76352903)"
       style="font-style:normal;font-variant:normal;font-weight:normal;font-stretch:normal;font-size:12px;line-height:1.25;font-family:Uroob;-inkscape-font-specification:'Uroob, Normal';font-variant-ligatures:normal;font-variant-caps:normal;font-variant-numeric:normal;font-feature-settings:normal;text-align:start;letter-spacing:0px;word-spacing:0px;writing-mode:lr-tb;text-anchor:start;display:inline;fill:#e6e6e6;fill-opacity:1;stroke:none"
       id="flowRoot122">
      <path
         d="m 111.40625,285.83789 q -0.44531,0 -0.44531,0.46289 v 1.44141 q 0,0.43945 0.44531,0.43945 h 1.55273 q 0.52735,0 0.84961,0.375 0.32813,0.375 0.32813,0.89648 v 1.64063 q 0,0.53906 -0.35156,0.92578 -0.35157,0.38086 -0.88477,0.38086 h -1.81641 q -0.57421,0 -0.89648,-0.36914 -0.32812,-0.36914 -0.32812,-0.94336 h 1.00781 q -0.0117,0.20508 0.0996,0.29297 0.11718,0.082 0.30468,0.082 h 1.37696 q 0.44531,0 0.44531,-0.43945 V 289.582 q 0,-0.45703 -0.44531,-0.45703 h -1.49414 q -0.53321,0 -0.88477,-0.38672 -0.35156,-0.38672 -0.35156,-0.92578 v -1.64063 q 0,-0.52734 0.32812,-0.90234 0.32813,-0.375 0.84961,-0.375 h 1.81641 q 0.53906,0 0.85547,0.35742 0.31055,0.35742 0.31055,0.91407 h -1.00782 q 0.0117,-0.32813 -0.40429,-0.32813 z"
         id="path139"
         inkscape:connector-curvature="0" />
      <path
         d="m 119.02344,288 q 0,0.52148 -0.31641,0.84961 -0.3164,0.32226 -0.84375,0.32226 h -2.0625 v 3.2461 h -1.0664 v -7.51172 h 2.89453 q 0.57422,0 0.98437,0.38086 0.41016,0.38086 0.41016,0.95508 z m -1.06055,-0.25195 v -1.3125 q 0,-0.39258 -0.30469,-0.56836 -0.0937,-0.0586 -0.21679,-0.0527 h -1.64063 v 2.4375 h 1.81641 q 0.29883,-0.006 0.33398,-0.32226 0.0117,-0.0937 0.0117,-0.18164 z"
         id="path141"
         inkscape:connector-curvature="0" />
      <path
         d="m 124.16211,292.41797 h -1.10156 l -1.55274,-3.2461 h -0.83789 v 3.2461 h -1.0664 v -7.51172 h 2.89453 q 0.57422,0 0.98437,0.38086 0.41016,0.38086 0.41016,0.95508 V 288 q 0,0.83203 -0.71485,1.08984 -0.22265,0.082 -0.49218,0.082 z m -1.33008,-4.66992 v -1.3125 q 0,-0.39258 -0.30469,-0.56836 -0.0937,-0.0586 -0.21679,-0.0527 h -1.64063 v 2.4375 h 1.81641 q 0.29883,-0.006 0.33398,-0.32226 0.0117,-0.0937 0.0117,-0.18164 z"
         id="path143"
         inkscape:connector-curvature="0" />
      <path
         d="m 128.69727,292.39453 h -2.53125 q -0.54493,0 -0.98438,-0.3457 -0.44531,-0.34571 -0.44531,-0.87891 V 286.125 q 0,-0.5332 0.44531,-0.88477 0.44531,-0.35156 0.98438,-0.35156 h 2.53125 v 0.92578 h -2.46094 q -0.22852,0 -0.33399,0.14649 -0.10546,0.14648 -0.10546,0.35742 v 1.81055 h 2.66015 v 0.90234 h -2.66015 v 1.94531 q 0,0.21094 0.10546,0.35742 0.10547,0.14649 0.33399,0.14649 h 2.46094 z"
         id="path145"
         inkscape:connector-curvature="0" />
      <path
         d="m 133.61914,292.39453 h -1.06055 v -3.1875 h -2.22656 v 3.1875 h -1.06055 V 286.125 q 0,-0.5332 0.44532,-0.88477 0.44531,-0.35156 0.98437,-0.35156 h 1.52344 q 0.52734,0 0.96094,0.35742 0.43359,0.35743 0.43359,0.87891 z m -1.06055,-4.08984 v -1.98633 q 0,-0.21094 -0.12304,-0.35742 -0.11719,-0.14649 -0.33985,-0.14649 h -1.32422 q -0.22851,0 -0.33398,0.14649 -0.10547,0.14648 -0.10547,0.35742 v 1.98633 z"
         id="path147"
         inkscape:connector-curvature="0" />
      <path
         d="m 138.50586,291.22266 q 0,0.52148 -0.31641,0.84961 -0.3164,0.32226 -0.84375,0.32226 h -3.1289 v -7.48828 h 2.89453 q 0.57422,0 0.98437,0.38086 0.41016,0.38086 0.41016,0.95508 z m -1.06055,-0.25196 v -4.53515 q 0,-0.39258 -0.30469,-0.56836 -0.0937,-0.0586 -0.21679,-0.0527 h -1.64063 v 5.66016 h 1.81641 q 0.29883,-0.006 0.33398,-0.32227 0.0117,-0.0937 0.0117,-0.18164 z"
         id="path149"
         inkscape:connector-curvature="0" />
    </g>
    <g
       aria-label="TUNE"
       transform="matrix(0.26458333,0,0,0.26458333,0.31622058,1.0223375)"
       style="font-style:normal;font-variant:normal;font-weight:normal;font-stretch:normal;font-size:12px;line-height:1.25;font-family:Uroob;-inkscape-font-specification:'Uroob, Normal';font-variant-ligatures:normal;font-variant-caps:normal;font-variant-numeric:normal;font-feature-settings:normal;text-align:start;letter-spacing:0px;word-spacing:0px;writing-mode:lr-tb;text-anchor:start;fill:#e6e6e6;fill-opacity:1;stroke:none"
       id="flowRoot114">
      <path
         d="m 114.82813,209.19141 q 0.26367,0 0.29882,0.29296 v 0.67383 h -1.73437 v 6.52149 h -1.07227 v -6.52149 h -1.73437 v -0.67383 q 0,-0.1289 0.0879,-0.21093 0.0937,-0.082 0.2168,-0.082 z"
         id="path130"
         inkscape:connector-curvature="0" />
      <path
         d="m 116.78516,215.25586 q 0,0.50391 0.43945,0.50391 h 1.20703 q 0.22266,0 0.33984,-0.14649 0.12305,-0.14648 0.12305,-0.35742 v -6.07617 l 1.06055,-0.006 v 6.27539 q 0,0.51562 -0.42774,0.87305 -0.42773,0.35742 -0.96679,0.35742 h -1.40625 q -0.54492,0 -0.98438,-0.34571 -0.44531,-0.3457 -0.44531,-0.88476 v -6.26953 h 1.06055 z"
         id="path132"
         inkscape:connector-curvature="0" />
      <path
         d="m 125.02344,216.4043 q 0,0.11718 -0.0879,0.20507 -0.0879,0.082 -0.20508,0.082 h -0.52734 q -0.32227,-0.64454 -1.14258,-2.1211 -0.82032,-1.47656 -1.47071,-2.68945 v 4.81055 h -1.07812 v -7.20704 q 0,-0.11718 0.0879,-0.20507 0.0879,-0.0879 0.20508,-0.0879 h 0.60937 q 0,0.006 0.0996,0.19921 0.0996,0.19336 0.26367,0.51563 0.16407,0.32227 0.375,0.73242 0.2168,0.41016 0.43946,0.84961 0.22851,0.43945 0.45117,0.87305 0.22266,0.42773 0.41016,0.79101 0.1875,0.35743 0.3164,0.60938 0.13477,0.25195 0.17578,0.33398 v -4.90429 h 1.07813 z"
         id="path134"
         inkscape:connector-curvature="0" />
      <path
         d="m 129.54687,216.67969 h -2.53124 q -0.54493,0 -0.98438,-0.34571 -0.44531,-0.3457 -0.44531,-0.8789 v -5.04492 q 0,-0.53321 0.44531,-0.88477 0.44531,-0.35156 0.98438,-0.35156 h 2.53124 v 0.92578 h -2.46093 q -0.22852,0 -0.33399,0.14648 -0.10547,0.14649 -0.10547,0.35743 v 1.81054 h 2.66016 v 0.90235 h -2.66016 v 1.94531 q 0,0.21094 0.10547,0.35742 0.10547,0.14648 0.33399,0.14648 h 2.46093 z"
         id="path136"
         inkscape:connector-curvature="0" />
    </g>
    <g
       aria-label="MW"
       transform="matrix(0.26458333,0,0,0.26458333,0.75081903,-0.24699693)"
       style="font-style:normal;font-variant:normal;font-weight:normal;font-stretch:normal;font-size:12px;line-height:1.25;font-family:Uroob;-inkscape-font-specification:'Uroob, Normal';font-variant-ligatures:normal;font-variant-caps:normal;font-variant-numeric:normal;font-feature-settings:normal;text-align:start;letter-spacing:0px;word-spacing:0px;writing-mode:lr-tb;text-anchor:start;fill:#e6e6e6;fill-opacity:1;stroke:none"
       id="flowRoot186">
      <path
         d="m 112.71094,363.77148 q 0,-0.33984 0.5625,-0.30468 0.13476,0.0117 0.22265,0.0117 v 0.006 h 0.12305 l 1.79883,4.07227 1.80469,-4.07227 h 0.0644 v -0.006 h 0.49219 q 0.21093,0 0.3164,0.17578 0.0352,0.0527 0.0352,0.11718 v 7.19532 h -1.07813 v -4.63477 l -1.125,2.67188 h -1.01367 l -1.125,-2.42579 v 4.38868 h -1.07812 z"
         id="path194"
         inkscape:connector-curvature="0" />
      <path
         d="m 118.70508,363.73047 q 0,-0.28711 0.36914,-0.25195 h 0.71484 v 4.38867 l 1.24219,-2.89453 h 0.77344 l 1.24804,3.14062 v -4.63476 h 0.67383 q 0.0762,-0.006 0.13477,-0.006 0.2168,0 0.25195,0.14062 0.0352,0.14063 0.0176,0.24609 v 7.10743 h -0.9082 l -1.75782,-3.97852 h -0.0879 l -1.75781,3.97852 h -0.9082 v -7.10743 q -0.0117,-0.0645 -0.006,-0.1289 z"
         id="path196"
         inkscape:connector-curvature="0" />
    </g>
  </g>
  <g
     inkscape:groupmode="layer"
     id="layer3"
     inkscape:label="components"
     style="display:inline">
    <circle
       style="fill:#00ff00;fill-opacity:1;stroke-width:0.26458332"
       id="path113"
       cx="9.0714283"
       cy="47.472946"
       r="2.6458333"
       inkscape:label="octCVIn" />
    <circle
       style="fill:#00ff00;fill-opacity:1;stroke-width:0.26458332"
       id="path113-3"
       cx="9.0714283"
       cy="67.248573"
       r="2.6458333"
       inkscape:label="aftIn" />
    <circle
       style="fill:#00ff00;fill-opacity:1;stroke-width:0.26458332"
       id="path113-6"
       cx="9.0714283"
       cy="87.0242"
       r="2.6458333"
       inkscape:label="pwIn" />
    <circle
       style="fill:#0000ff;fill-opacity:1;stroke-width:0.26458332"
       id="path113-6-5"
       cx="29.765625"
       cy="111.98602"
       r="2.6458333"
       inkscape:label="outPort" />
    <circle
       style="fill:#ff0000;fill-opacity:1;stroke-width:0.26458332"
       id="path113-36"
       cx="9.0714283"
       cy="27.697325"
       r="2.6458333"
       inkscape:label="transp" />
    <circle
       style="fill:#ff0000;fill-opacity:1;stroke-width:0.26458332"
       id="path113-7"
       cx="32.08379"
       cy="27.697325"
       r="2.6458333"
       inkscape:label="octave" />
    <circle
       style="fill:#ff0000;fill-opacity:1;stroke-width:0.26458332"
       id="path113-5"
       cx="32.08379"
       cy="47.472954"
       r="2.6458333"
       inkscape:label="tune" />
    <circle
       style="fill:#ff0000;fill-opacity:1;stroke-width:0.26458332"
       id="path113-5-3"
       cx="32.08379"
       cy="67.248573"
       r="2.6458333"
       inkscape:label="unisonSpread" />
    <circle
       style="fill:#00ff00;fill-opacity:1;stroke-width:0.26458332"
       id="path113-6-56"
       cx="32.08379"
       cy="87.0242"
       r="2.6458333"
       inkscape:label="mwIn" />
  </g>
</svg>
