<?xml version="1.0" encoding="UTF-8" standalone="no"?>
<!-- Created with Inkscape (http://www.inkscape.org/) -->

<svg
   xmlns:dc="http://purl.org/dc/elements/1.1/"
   xmlns:cc="http://creativecommons.org/ns#"
   xmlns:rdf="http://www.w3.org/1999/02/22-rdf-syntax-ns#"
   xmlns:svg="http://www.w3.org/2000/svg"
   xmlns="http://www.w3.org/2000/svg"
   xmlns:sodipodi="http://sodipodi.sourceforge.net/DTD/sodipodi-0.dtd"
   xmlns:inkscape="http://www.inkscape.org/namespaces/inkscape"
   width="40.639999mm"
   height="128.5mm"
   viewBox="0 0 40.639999 128.5"
   version="1.1"
   id="svg16"
   inkscape:version="0.92.5 (2060ec1f9f, 2020-04-08)"
   sodipodi:docname="simpleStereoEcho.svg">
  <defs
     id="defs10" />
  <sodipodi:namedview
     id="base"
     pagecolor="#ffffff"
     bordercolor="#666666"
     borderopacity="1.0"
     inkscape:pageopacity="0.0"
     inkscape:pageshadow="2"
     inkscape:zoom="1.4"
     inkscape:cx="-77.378634"
     inkscape:cy="231.93899"
     inkscape:document-units="mm"
     inkscape:current-layer="layer1"
     showgrid="false"
     showguides="true"
     inkscape:pagecheckerboard="false"
     inkscape:showpageshadow="true"
     borderlayer="false"
     showborder="true"
     inkscape:window-width="1920"
     inkscape:window-height="1019"
     inkscape:window-x="0"
     inkscape:window-y="0"
     inkscape:window-maximized="1">
    <inkscape:grid
       type="xygrid"
       id="grid3728"
       units="mm"
       dotted="true" />
  </sodipodi:namedview>
  <metadata
     id="metadata13">
    <rdf:RDF>
      <cc:Work
         rdf:about="">
        <dc:format>image/svg+xml</dc:format>
        <dc:type
           rdf:resource="http://purl.org/dc/dcmitype/StillImage" />
        <dc:title />
        <cc:license
           rdf:resource="http://creativecommons.org/licenses/by/4.0/" />
      </cc:Work>
      <cc:License
         rdf:about="http://creativecommons.org/licenses/by/4.0/">
        <cc:permits
           rdf:resource="http://creativecommons.org/ns#Reproduction" />
        <cc:permits
           rdf:resource="http://creativecommons.org/ns#Distribution" />
        <cc:requires
           rdf:resource="http://creativecommons.org/ns#Notice" />
        <cc:requires
           rdf:resource="http://creativecommons.org/ns#Attribution" />
        <cc:permits
           rdf:resource="http://creativecommons.org/ns#DerivativeWorks" />
      </cc:License>
    </rdf:RDF>
  </metadata>
  <g
     inkscape:label="Ebene 1"
     id="layer1"
     transform="translate(0,-168.5)"
     style="display:inline"
     inkscape:groupmode="layer">
    <rect
       style="fill:#333333;fill-opacity:1;stroke-width:0.26455069;image-rendering:auto"
       id="rect3732"
       width="40.639999"
       height="128.5"
       x="-0.00027852383"
       y="168.49937"
       sodipodi:insensitive="true" />
    <g
       aria-label="TIME_L"
       style="font-style:normal;font-variant:normal;font-weight:normal;font-stretch:normal;font-size:4.23333311px;line-height:1.25;font-family:Uroob;-inkscape-font-specification:'Uroob, Normal';font-variant-ligatures:normal;font-variant-caps:normal;font-variant-numeric:normal;font-feature-settings:normal;text-align:start;letter-spacing:0px;word-spacing:0px;writing-mode:lr-tb;text-anchor:start;fill:#e6e6e6;fill-opacity:1;stroke:none;stroke-width:0.26458332"
       id="text4545"
       transform="translate(-0.69789996,-0.92912223)">
      <path
         d="m 8.2966761,194.06284 q 0.093018,0 0.1054199,0.10336 v 0.23771 H 7.7902471 v 2.30063 H 7.4119756 v -2.30063 H 6.8001267 v -0.23771 q 0,-0.0455 0.031006,-0.0744 0.033073,-0.0289 0.076481,-0.0289 z"
         style="fill:#e6e6e6;stroke-width:0.26458332"
         id="path4906"
         inkscape:connector-curvature="0" />
      <path
         d="M 8.9932744,196.70454 H 8.6129359 v -2.53834 q 0,-0.0413 0.031006,-0.0724 0.031006,-0.031 0.072347,-0.031 h 0.1736328 q 0.041341,0 0.072347,0.031 0.031006,0.031 0.031006,0.0724 z"
         style="fill:#e6e6e6;stroke-width:0.26458332"
         id="path4908"
         inkscape:connector-curvature="0" />
      <path
         d="m 9.1958461,194.1662 q 0,-0.11989 0.1984375,-0.10749 0.047542,0.004 0.078548,0.004 v 0.002 h 0.043408 l 0.6345874,1.43661 0.636653,-1.43661 h 0.02274 v -0.002 h 0.173633 q 0.07441,0 0.111621,0.062 0.0124,0.0186 0.0124,0.0413 v 2.53834 h -0.380339 v -1.63504 l -0.396875,0.94258 H 9.9730596 l -0.396875,-0.85576 v 1.54822 H 9.1958461 Z"
         style="fill:#e6e6e6;stroke-width:0.26458332"
         id="path4910"
         inkscape:connector-curvature="0" />
      <path
         d="m 12.709843,196.70454 h -0.892968 q -0.192237,0 -0.347266,-0.12195 -0.157096,-0.12196 -0.157096,-0.31006 v -1.77974 q 0,-0.1881 0.157096,-0.31212 0.157096,-0.12403 0.347266,-0.12403 h 0.892968 v 0.3266 h -0.868164 q -0.08061,0 -0.117822,0.0517 -0.03721,0.0517 -0.03721,0.12609 v 0.63872 h 0.938444 v 0.31832 H 11.68665 v 0.68627 q 0,0.0744 0.03721,0.12609 0.03721,0.0517 0.117822,0.0517 h 0.868164 z"
         style="fill:#e6e6e6;stroke-width:0.26458332"
         id="path4912"
         inkscape:connector-curvature="0" />
      <path
         d="M 14.466842,197.85796 H 12.92275 v -0.2005 h 1.544092 z"
         style="fill:#e6e6e6;stroke-width:0.26458332"
         id="path4914"
         inkscape:connector-curvature="0" />
      <path
         d="m 15.060087,196.70454 q -0.401009,0 -0.401009,-0.34933 v -2.29237 h 0.374138 v 2.18282 q 0,0.0827 0.0186,0.10955 0.0186,0.0269 0.09508,0.0269 h 0.702799 v 0.32246 z"
         style="fill:#e6e6e6;stroke-width:0.26458332"
         id="path4916"
         inkscape:connector-curvature="0" />
    </g>
    <g
       aria-label="TIME_R"
       style="font-style:normal;font-variant:normal;font-weight:normal;font-stretch:normal;font-size:4.23333311px;line-height:1.25;font-family:Uroob;-inkscape-font-specification:'Uroob, Normal';font-variant-ligatures:normal;font-variant-caps:normal;font-variant-numeric:normal;font-feature-settings:normal;text-align:start;letter-spacing:0px;word-spacing:0px;writing-mode:lr-tb;text-anchor:start;fill:#e6e6e6;fill-opacity:1;stroke:none;stroke-width:0.26458332"
       id="text4549"
       transform="translate(-1.6848537,-0.92912223)">
      <path
         d="m 28.252053,194.06284 q 0.09302,0 0.10542,0.10336 v 0.23771 h -0.611849 v 2.30063 h -0.378272 v -2.30063 h -0.611849 v -0.23771 q 0,-0.0455 0.03101,-0.0744 0.03307,-0.0289 0.07648,-0.0289 z"
         style="fill:#e6e6e6;stroke-width:0.26458332"
         id="path4893"
         inkscape:connector-curvature="0" />
      <path
         d="m 28.948651,196.70454 h -0.380338 v -2.53834 q 0,-0.0413 0.03101,-0.0724 0.03101,-0.031 0.07235,-0.031 h 0.173633 q 0.04134,0 0.07235,0.031 0.03101,0.031 0.03101,0.0724 z"
         style="fill:#e6e6e6;stroke-width:0.26458332"
         id="path4895"
         inkscape:connector-curvature="0" />
      <path
         d="m 29.151223,194.1662 q 0,-0.11989 0.198437,-0.10749 0.04754,0.004 0.07855,0.004 v 0.002 h 0.04341 l 0.634586,1.43661 0.636654,-1.43661 h 0.02274 v -0.002 h 0.173633 q 0.07441,0 0.111621,0.062 0.0124,0.0186 0.0124,0.0413 v 2.53834 h -0.380339 v -1.63504 l -0.396875,0.94258 h -0.357601 l -0.396875,-0.85576 v 1.54822 h -0.380338 z"
         style="fill:#e6e6e6;stroke-width:0.26458332"
         id="path4897"
         inkscape:connector-curvature="0" />
      <path
         d="m 32.66522,196.70454 h -0.892969 q -0.192236,0 -0.347265,-0.12195 -0.157097,-0.12196 -0.157097,-0.31006 v -1.77974 q 0,-0.1881 0.157097,-0.31212 0.157096,-0.12403 0.347265,-0.12403 h 0.892969 v 0.3266 h -0.868164 q -0.08062,0 -0.117822,0.0517 -0.03721,0.0517 -0.03721,0.12609 v 0.63872 h 0.938444 v 0.31832 h -0.938444 v 0.68627 q 0,0.0744 0.03721,0.12609 0.03721,0.0517 0.117822,0.0517 h 0.868164 z"
         style="fill:#e6e6e6;stroke-width:0.26458332"
         id="path4899"
         inkscape:connector-curvature="0" />
      <path
         d="m 34.422218,197.85796 h -1.544091 v -0.2005 h 1.544091 z"
         style="fill:#e6e6e6;stroke-width:0.26458332"
         id="path4901"
         inkscape:connector-curvature="0" />
      <path
         d="m 36.222625,196.71281 h -0.388606 l -0.54777,-1.14515 h -0.29559 v 1.14515 h -0.376204 v -2.64997 h 1.021126 q 0.202572,0 0.347266,0.13436 0.144694,0.13436 0.144694,0.33693 v 0.62012 q 0,0.29352 -0.252181,0.38447 -0.07855,0.0289 -0.173633,0.0289 z m -0.469222,-1.64744 v -0.46302 q 0,-0.1385 -0.107486,-0.20051 -0.03307,-0.0207 -0.07648,-0.0186 h -0.578776 v 0.85989 h 0.640788 q 0.10542,-0.002 0.117822,-0.11368 0.0041,-0.0331 0.0041,-0.0641 z"
         style="fill:#e6e6e6;stroke-width:0.26458332"
         id="path4903"
         inkscape:connector-curvature="0" />
    </g>
    <g
       aria-label="FDBK_L"
       style="font-style:normal;font-variant:normal;font-weight:normal;font-stretch:normal;font-size:4.23333311px;line-height:1.25;font-family:Uroob;-inkscape-font-specification:'Uroob, Normal';font-variant-ligatures:normal;font-variant-caps:normal;font-variant-numeric:normal;font-feature-settings:normal;text-align:start;letter-spacing:0px;word-spacing:0px;writing-mode:lr-tb;text-anchor:start;fill:#e6e6e6;fill-opacity:1;stroke:none;stroke-width:0.26458332"
       id="text4553"
       transform="translate(-0.69790026,0.14591045)">
      <path
         d="m 7.6042119,211.68591 h -0.868164 q -0.080615,0 -0.1178222,0.0517 -0.037207,0.0517 -0.037207,0.12609 v 0.63872 h 0.938444 v 0.31833 h -0.938444 v 1.18442 H 6.2068813 v -2.20968 q 0,-0.18811 0.1570963,-0.31213 0.1570964,-0.12402 0.3472656,-0.12402 h 0.8929687 z"
         style="fill:#e6e6e6;stroke-width:0.26458332"
         id="path4919"
         inkscape:connector-curvature="0" />
      <path
         d="m 9.3198694,213.59381 q 0,0.18396 -0.1116211,0.29972 -0.1116211,0.11369 -0.2976562,0.11369 H 7.8067836 v -2.6417 h 1.0211262 q 0.2025716,0 0.3472656,0.13436 0.144694,0.13436 0.144694,0.33693 z m -0.3741373,-0.0889 v -1.5999 q 0,-0.13849 -0.107487,-0.2005 -0.033073,-0.0207 -0.076481,-0.0186 H 8.182988 v 1.99678 h 0.6407877 q 0.1054199,-0.002 0.1178223,-0.11369 0.00413,-0.0331 0.00413,-0.0641 z"
         style="fill:#e6e6e6;stroke-width:0.26458332"
         id="path4921"
         inkscape:connector-curvature="0" />
      <path
         d="m 10.992119,212.3391 q 0,0.22118 -0.152962,0.29352 0.214974,0.062 0.214974,0.36174 v 0.56431 q 0,0.18603 -0.10542,0.31626 -0.10542,0.13229 -0.287321,0.13229 H 9.5245082 v -2.6417 h 0.3762045 v 0.002 h 0.6986653 q 0.186035,0 0.289388,0.13642 0.103353,0.13643 0.103353,0.3266 z m -0.367936,-0.48782 q 0,-0.15503 -0.177767,-0.15503 H 9.9007127 V 212.49 h 0.5911783 q 0.06408,0 0.09715,-0.0496 0.03514,-0.0496 0.03514,-0.10956 z m -0.09509,1.84174 q 0.157096,0 0.157096,-0.16329 v -0.55604 q 0,-0.15503 -0.177767,-0.15503 H 9.9007127 v 0.87436 z"
         style="fill:#e6e6e6;stroke-width:0.26458332"
         id="path4923"
         inkscape:connector-curvature="0" />
      <path
         d="m 12.897946,214.01342 h -0.396875 l -0.671794,-1.11415 -0.194303,0.3266 v 0.78135 h -0.376205 v -2.52801 q -0.01033,-0.10956 0.05168,-0.12196 0.03927,-0.008 0.08682,-0.004 h 0.237712 v 1.2485 l 0.756543,-1.2485 h 0.173632 q 0.05168,0 0.09095,0.031 0.03927,0.031 0.03927,0.0682 0,0.0351 -0.04134,0.11369 -0.04134,0.0785 -0.10542,0.18811 -0.06408,0.10955 -0.14056,0.23564 -0.07648,0.12609 -0.148828,0.24185 -0.07028,0.11368 -0.126091,0.20463 -0.05581,0.0889 -0.07855,0.12403 0.21084,0.35967 0.429948,0.72347 0.219108,0.3638 0.413412,0.72967 z"
         style="fill:#e6e6e6;stroke-width:0.26458332"
         id="path4925"
         inkscape:connector-curvature="0" />
      <path
         d="m 15.060087,215.16064 h -1.544091 v -0.20051 h 1.544091 z"
         style="fill:#e6e6e6;stroke-width:0.26458332"
         id="path4927"
         inkscape:connector-curvature="0" />
      <path
         d="m 15.653333,214.00722 q -0.401009,0 -0.401009,-0.34934 v -2.29236 h 0.374137 v 2.18281 q 0,0.0827 0.0186,0.10955 0.0186,0.0269 0.09508,0.0269 h 0.7028 v 0.32246 z"
         style="fill:#e6e6e6;stroke-width:0.26458332"
         id="path4929"
         inkscape:connector-curvature="0" />
    </g>
    <g
       aria-label="FDBK_R"
       style="font-style:normal;font-variant:normal;font-weight:normal;font-stretch:normal;font-size:4.23333311px;line-height:1.25;font-family:Uroob;-inkscape-font-specification:'Uroob, Normal';font-variant-ligatures:normal;font-variant-caps:normal;font-variant-numeric:normal;font-feature-settings:normal;text-align:start;letter-spacing:0px;word-spacing:0px;writing-mode:lr-tb;text-anchor:start;fill:#e6e6e6;fill-opacity:1;stroke:none;stroke-width:0.26458332"
       id="text4557"
       transform="translate(-1.6848527,0.14591045)">
      <path
         d="m 27.559589,211.68591 h -0.868164 q -0.08061,0 -0.117822,0.0517 -0.03721,0.0517 -0.03721,0.12609 v 0.63872 h 0.938444 v 0.31833 h -0.938444 v 1.18442 h -0.374138 v -2.20968 q 0,-0.18811 0.157097,-0.31213 0.157096,-0.12402 0.347265,-0.12402 h 0.892969 z"
         style="fill:#e6e6e6;stroke-width:0.26458332"
         id="path4932"
         inkscape:connector-curvature="0" />
      <path
         d="m 29.275247,213.59381 q 0,0.18396 -0.111622,0.29972 -0.111621,0.11369 -0.297656,0.11369 h -1.103808 v -2.6417 h 1.021126 q 0.202572,0 0.347266,0.13436 0.144694,0.13436 0.144694,0.33693 z m -0.374138,-0.0889 v -1.5999 q 0,-0.13849 -0.107487,-0.2005 -0.03307,-0.0207 -0.07648,-0.0186 h -0.578776 v 1.99678 h 0.640788 q 0.10542,-0.002 0.117822,-0.11369 0.0041,-0.0331 0.0041,-0.0641 z"
         style="fill:#e6e6e6;stroke-width:0.26458332"
         id="path4934"
         inkscape:connector-curvature="0" />
      <path
         d="m 30.947496,212.3391 q 0,0.22118 -0.152962,0.29352 0.214974,0.062 0.214974,0.36174 v 0.56431 q 0,0.18603 -0.10542,0.31626 -0.10542,0.13229 -0.287321,0.13229 h -1.136882 v -2.6417 h 0.376205 v 0.002 h 0.698665 q 0.186035,0 0.289388,0.13642 0.103353,0.13643 0.103353,0.3266 z m -0.367936,-0.48782 q 0,-0.15503 -0.177767,-0.15503 H 29.85609 V 212.49 h 0.591178 q 0.06408,0 0.09715,-0.0496 0.03514,-0.0496 0.03514,-0.10956 z m -0.09509,1.84174 q 0.157096,0 0.157096,-0.16329 v -0.55604 q 0,-0.15503 -0.177766,-0.15503 h -0.60771 v 0.87436 z"
         style="fill:#e6e6e6;stroke-width:0.26458332"
         id="path4936"
         inkscape:connector-curvature="0" />
      <path
         d="m 32.853323,214.01342 h -0.396875 l -0.671794,-1.11415 -0.194303,0.3266 v 0.78135 h -0.376205 v -2.52801 q -0.01033,-0.10956 0.05168,-0.12196 0.03927,-0.008 0.08682,-0.004 h 0.237712 v 1.2485 l 0.756543,-1.2485 h 0.173633 q 0.05168,0 0.09095,0.031 0.03927,0.031 0.03927,0.0682 0,0.0351 -0.04134,0.11369 -0.04134,0.0785 -0.10542,0.18811 -0.06408,0.10955 -0.14056,0.23564 -0.07648,0.12609 -0.148828,0.24185 -0.07028,0.11368 -0.12609,0.20463 -0.05581,0.0889 -0.07855,0.12403 0.21084,0.35967 0.429948,0.72347 0.219108,0.3638 0.413412,0.72967 z"
         style="fill:#e6e6e6;stroke-width:0.26458332"
         id="path4938"
         inkscape:connector-curvature="0" />
      <path
         d="m 35.015464,215.16064 h -1.544091 v -0.20051 h 1.544091 z"
         style="fill:#e6e6e6;stroke-width:0.26458332"
         id="path4940"
         inkscape:connector-curvature="0" />
      <path
         d="m 36.815871,214.01549 h -0.388606 l -0.54777,-1.14515 h -0.29559 v 1.14515 h -0.376204 v -2.64997 h 1.021126 q 0.202572,0 0.347266,0.13436 0.144694,0.13436 0.144694,0.33693 v 0.62011 q 0,0.29353 -0.252181,0.38448 -0.07855,0.0289 -0.173633,0.0289 z m -0.469222,-1.64745 v -0.46302 q 0,-0.13849 -0.107486,-0.2005 -0.03307,-0.0207 -0.07648,-0.0186 h -0.578776 v 0.8599 h 0.640788 q 0.10542,-0.002 0.117822,-0.11369 0.0041,-0.0331 0.0041,-0.0641 z"
         style="fill:#e6e6e6;stroke-width:0.26458332"
         id="path4942"
         inkscape:connector-curvature="0" />
    </g>
    <g
       aria-label="simpleStereoEcho"
       transform="matrix(0.90350462,0,0,1.1068012,0.17487676,173.52423)"
       style="font-style:normal;font-variant:normal;font-weight:normal;font-stretch:normal;font-size:7.48660898px;line-height:1.25;font-family:Uroob;-inkscape-font-specification:'Uroob, Normal';font-variant-ligatures:normal;font-variant-caps:normal;font-variant-numeric:normal;font-feature-settings:normal;text-align:start;letter-spacing:0px;word-spacing:0px;writing-mode:lr-tb;text-anchor:start;display:inline;fill:#e6e6e6;fill-opacity:1;stroke:none;stroke-width:0.46791306"
       id="text4856">
      <path
         d="m 3.7581297,4.7837394 q 0.00731,-0.204712 -0.2522344,-0.204712 H 3.048949 q -0.3143791,0.00366 -0.2851345,0.4277018 0.00731,0.1096671 0.00731,0.1974008 0,0.2741678 0.2778234,0.2741678 h 0.6397249 q 0.3290014,0 0.5300577,0.2339565 0.204712,0.2339566 0.204712,0.5593024 v 0.4898465 q 0,0.3363125 -0.2193342,0.5775801 Q 3.9847751,7.5765954 3.6521182,7.5765954 H 2.8478926 q -0.3582459,0 -0.5593023,-0.2303009 -0.204712,-0.230301 -0.204712,-0.5885469 h 0.6287582 q -0.00731,0.127945 0.062145,0.1827785 0.073111,0.051178 0.1900897,0.051178 h 0.5300577 q 0.2778234,0 0.2778234,-0.2741678 V 6.3519792 q 0,-0.2851345 -0.2778234,-0.2851345 H 2.8917595 q -0.332657,0 -0.5519912,-0.2083675 Q 2.120434,5.6501096 2.120434,5.3211083 V 4.7873949 q 0,-0.3290013 0.204712,-0.5629579 0.2047119,-0.2339565 0.5300577,-0.2339565 h 0.7859478 q 0.3363125,0 0.5410244,0.2229898 0.204712,0.2229898 0.204712,0.5702691 z"
         style="fill:#e6e6e6;stroke-width:0.46791306"
         id="path4860"
         inkscape:connector-curvature="0" />
      <path
         d="m 5.4835591,2.9413317 q 0.4021128,0 0.4021128,0.4094239 0,0.4130795 -0.4021128,0.4130795 -0.1974008,0 -0.3034124,-0.1060115 -0.1060115,-0.1096672 -0.1060115,-0.307068 0,-0.1974008 0.1060115,-0.3034124 Q 5.2861583,2.9413317 5.4835591,2.9413317 Z M 5.7906271,7.554662 H 5.1618689 V 4.0014472 h 0.6287582 z"
         style="fill:#e6e6e6;stroke-width:0.46791306"
         id="path4862"
         inkscape:connector-curvature="0" />
      <path
         d="M 8.2325484,4.2646483 Q 8.3970491,4.0087584 8.6675613,4.0087584 h 0.6945585 q 0.3180346,0 0.5483356,0.2156786 0.2303006,0.2156787 0.2303006,0.5373689 V 7.5692843 H 9.5156538 V 4.8824398 q 0,-0.1389117 -0.080423,-0.2339566 -0.076767,-0.0987 -0.2266454,-0.0987 H 8.7114282 q -0.1827786,0 -0.2376121,0.2522344 -0.014622,0.0658 -0.014622,0.1206338 V 7.5692843 H 7.8304356 V 4.8239506 q 0,-0.1827785 -0.1937452,-0.2558899 -0.054834,-0.021933 -0.1096672,-0.018278 H 6.9933099 q -0.2193342,0 -0.2193342,0.5154355 v 2.504066 H 6.1452175 V 4.0087584 H 6.7045198 V 4.2280926 Q 6.8653649,4.0087584 7.0956659,4.0087584 h 0.6580027 q 0.307068,0 0.4788798,0.2558899 z"
         style="fill:#e6e6e6;stroke-width:0.46791306"
         id="path4864"
         inkscape:connector-curvature="0" />
      <path
         d="m 11.083894,4.1878813 q 0.237612,-0.1718118 0.530057,-0.1718118 h 0.25589 q 0.464258,0 0.742081,0.2668567 0.277824,0.2668566 0.277824,0.7384253 v 1.4622283 q 0,0.7676698 -0.515436,1.0016264 -0.179123,0.080423 -0.431357,0.080423 H 11.54084 q -0.237612,0 -0.402113,-0.1791229 v 1.7875741 h -0.632413 l 0.0037,-5.1580104 h 0.573925 z m 1.180749,2.2481761 V 5.1090852 q 0,-0.2851346 -0.06214,-0.3801794 Q 12.089181,4.5534384 11.82598,4.5534384 H 11.5116 q -0.113322,0 -0.244923,0.080423 -0.127945,0.080423 -0.127945,0.1900896 v 1.8387521 q 0,0.1096672 0.135256,0.2376121 0.135257,0.1242895 0.237612,0.1242895 h 0.31438 q 0.361901,0 0.42039,-0.3619016 0.01462,-0.1060115 0.01828,-0.2266453 z"
         style="fill:#e6e6e6;stroke-width:0.46791306"
         id="path4866"
         inkscape:connector-curvature="0" />
      <path
         d="m 13.949861,7.5729399 q -0.70918,0 -0.70918,-0.6177915 V 3.4129003 h 0.661658 v 3.3485029 q 0,0.2193342 0.142567,0.2668566 0.0658,0.021933 0.153534,0.018278 0.09139,-0.00366 0.197401,-0.00366 v 0.5300578 z"
         style="fill:#e6e6e6;stroke-width:0.46791306"
         id="path4868"
         inkscape:connector-curvature="0" />
      <path
         d="m 17.122896,6.754092 q -0.01097,0.5519912 -0.427701,0.7530476 -0.138912,0.0658 -0.318035,0.0658 h -0.86637 q -0.325346,0 -0.537369,-0.2339566 Q 14.757742,7.1050268 14.757742,6.7760254 V 4.7800838 q 0,-0.3253458 0.197401,-0.5593023 0.197401,-0.2339566 0.519091,-0.2339566 h 0.928515 q 0.325346,0 0.519091,0.2485788 0.193745,0.2485789 0.193745,0.5812358 v 0.4752242 q 0,0.3216902 -0.179123,0.5519912 -0.179123,0.2266454 -0.497157,0.2266454 h -1.067427 v 0.6616583 q 0,0.2924457 0.296101,0.2924457 h 0.555647 q 0.124289,0 0.197401,-0.069456 0.07677,-0.073111 0.07311,-0.2010564 z M 15.667979,4.5534384 q -0.296101,0 -0.296101,0.3070679 v 0.6689695 h 0.80057 q 0.138912,0 0.233957,-0.076767 0.0987,-0.080423 0.0987,-0.2303009 V 4.8458841 q 0,-0.153534 -0.0987,-0.2229899 -0.09504,-0.069456 -0.233957,-0.069456 z"
         style="fill:#e6e6e6;stroke-width:0.46791306"
         id="path4870"
         inkscape:connector-curvature="0" />
      <path
         d="m 18.402347,3.4823562 q -0.277824,0 -0.277824,0.28879 v 0.8992705 q 0,0.2741678 0.277824,0.2741678 h 0.968726 q 0.329001,0 0.530058,0.2339565 0.204712,0.2339565 0.204712,0.5593023 v 1.0235599 q 0,0.3363125 -0.219334,0.5775801 -0.219335,0.2376121 -0.551992,0.2376121 H 18.20129 q -0.358246,0 -0.559302,-0.2303009 -0.204712,-0.230301 -0.204712,-0.5885469 h 0.628758 q -0.0073,0.127945 0.06215,0.1827785 0.07311,0.051178 0.19009,0.051178 h 0.859059 q 0.277823,0 0.277823,-0.2741678 V 5.8182659 q 0,-0.2851345 -0.277823,-0.2851345 h -0.932171 q -0.332657,0 -0.551991,-0.2412677 Q 17.473832,5.050596 17.473832,4.7142835 V 3.6907237 q 0,-0.3290014 0.204712,-0.5629579 0.204712,-0.2339565 0.530058,-0.2339565 h 1.133226 q 0.336313,0 0.533714,0.2229898 0.193745,0.2229898 0.193745,0.570269 h -0.628758 q 0.0073,-0.2047119 -0.252234,-0.2047119 z"
         style="fill:#e6e6e6;stroke-width:0.46791306"
         id="path4872"
         inkscape:connector-curvature="0" />
      <path
         d="m 21.352393,6.8162367 q 0,0.2705123 0.292445,0.2705123 0.296102,0 0.329002,-0.307068 h 0.135256 v 0.6616583 q -0.241268,0.2193343 -0.562958,0.2193343 -0.603169,0 -0.793259,-0.4532908 Q 20.690734,7.06116 20.690734,6.8601036 V 4.6704167 H 20.423878 V 4.1184255 h 0.266856 v -0.698214 h 0.661659 v 0.698214 h 0.504468 v 0.5519912 h -0.504468 z"
         style="fill:#e6e6e6;stroke-width:0.46791306"
         id="path4874"
         inkscape:connector-curvature="0" />
      <path
         d="m 24.850773,6.754092 q -0.01097,0.5519912 -0.427702,0.7530476 -0.138911,0.0658 -0.318034,0.0658 h -0.866371 q -0.325345,0 -0.537369,-0.2339566 Q 22.485619,7.1050268 22.485619,6.7760254 V 4.7800838 q 0,-0.3253458 0.197401,-0.5593023 0.1974,-0.2339566 0.519091,-0.2339566 h 0.928515 q 0.325345,0 0.519091,0.2485788 0.193745,0.2485789 0.193745,0.5812358 v 0.4752242 q 0,0.3216902 -0.179123,0.5519912 -0.179123,0.2266454 -0.497158,0.2266454 h -1.067426 v 0.6616583 q 0,0.2924457 0.296101,0.2924457 h 0.555647 q 0.124289,0 0.197401,-0.069456 0.07677,-0.073111 0.07311,-0.2010564 z M 23.395856,4.5534384 q -0.296101,0 -0.296101,0.3070679 v 0.6689695 h 0.80057 q 0.138911,0 0.233956,-0.076767 0.0987,-0.080423 0.0987,-0.2303009 V 4.8458841 q 0,-0.153534 -0.0987,-0.2229899 -0.09505,-0.069456 -0.233956,-0.069456 z"
         style="fill:#e6e6e6;stroke-width:0.46791306"
         id="path4876"
         inkscape:connector-curvature="0" />
      <path
         d="m 26.806503,4.5497828 -0.369213,-0.00366 q -0.460601,0 -0.599513,0.3326569 -0.04752,0.1133227 -0.04752,0.2595455 v 2.4309546 h -0.625102 l -0.0037,-3.2388357 q -0.160845,0 -0.160845,-0.1206339 V 3.9977916 h 0.720148 v 0.332657 q 0.05118,-0.1462229 0.186434,-0.2412677 0.135256,-0.095045 0.28879,-0.095045 h 0.61048 z"
         style="fill:#e6e6e6;stroke-width:0.46791306"
         id="path4878"
         inkscape:connector-curvature="0" />
      <path
         d="m 29.537215,6.754092 q -0.01097,0.5519912 -0.427702,0.7530476 -0.138912,0.0658 -0.318035,0.0658 h -0.86637 q -0.325346,0 -0.537369,-0.2339566 Q 27.17206,7.1050268 27.17206,6.7760254 V 4.7800838 q 0,-0.3253458 0.197401,-0.5593023 0.197401,-0.2339566 0.519091,-0.2339566 h 0.928515 q 0.325346,0 0.519091,0.2485788 0.193745,0.2485789 0.193745,0.5812358 v 0.4752242 q 0,0.3216902 -0.179123,0.5519912 -0.179123,0.2266454 -0.497157,0.2266454 h -1.067427 v 0.6616583 q 0,0.2924457 0.296101,0.2924457 h 0.555647 q 0.12429,0 0.197401,-0.069456 0.07677,-0.073111 0.07311,-0.2010564 z M 28.082297,4.5534384 q -0.296101,0 -0.296101,0.3070679 v 0.6689695 h 0.80057 q 0.138912,0 0.233957,-0.076767 0.0987,-0.080423 0.0987,-0.2303009 V 4.8458841 q 0,-0.153534 -0.0987,-0.2229899 -0.09505,-0.069456 -0.233957,-0.069456 z"
         style="fill:#e6e6e6;stroke-width:0.46791306"
         id="path4880"
         inkscape:connector-curvature="0" />
      <path
         d="m 32.063215,6.80527 q 0.0037,0.3143791 -0.259545,0.5300578 -0.263201,0.2193342 -0.592203,0.2193342 h -0.471568 q -0.332657,0 -0.603169,-0.2156787 Q 29.866217,7.1233047 29.866217,6.80527 V 4.7508392 q 0,-0.3216902 0.270513,-0.5373689 0.270512,-0.2156787 0.603169,-0.2156787 h 0.471568 q 0.321691,0 0.588547,0.2156787 0.263201,0.2156787 0.263201,0.5373689 z M 31.438113,6.6846362 V 4.8714731 q 0,-0.1389117 -0.08042,-0.2339566 -0.07677,-0.0987 -0.226645,-0.0987 h -0.347279 q -0.153534,0 -0.22299,0.0987 -0.06946,0.095045 -0.06946,0.2339566 v 1.8131631 q 0,0.1389117 0.06946,0.2376121 0.06946,0.095045 0.22299,0.095045 h 0.347279 q 0.149878,0 0.226645,-0.095045 0.08042,-0.0987 0.08042,-0.2376121 z"
         style="fill:#e6e6e6;stroke-width:0.46791306"
         id="path4882"
         inkscape:connector-curvature="0" />
      <path
         d="m 34.896282,7.5729399 h -1.579206 q -0.339968,0 -0.614136,-0.2156787 Q 32.425117,7.1415825 32.425117,6.8089256 V 3.6614791 q 0,-0.3326569 0.277823,-0.5519912 0.277823,-0.2193342 0.614136,-0.2193342 h 1.579206 v 0.5775802 h -1.535339 q -0.142568,0 -0.208368,0.091389 -0.0658,0.091389 -0.0658,0.2229899 v 1.1295713 h 1.659629 V 5.474642 h -1.659629 v 1.2136495 q 0,0.1316006 0.0658,0.2229899 0.0658,0.091389 0.208368,0.091389 h 1.535339 z"
         style="fill:#e6e6e6;stroke-width:0.46791306"
         id="path4884"
         inkscape:connector-curvature="0" />
      <path
         d="m 36.16842,4.5534384 q -0.296101,0 -0.296101,0.3070679 v 1.8716523 q 0,0.2924457 0.296101,0.2924457 h 0.519091 q 0.124289,0 0.197401,-0.069456 0.07311,-0.073111 0.07311,-0.2010564 h 0.628758 q -0.01097,0.5519912 -0.427701,0.7530476 -0.138912,0.0658 -0.318035,0.0658 H 36.01123 q -0.325345,0 -0.537369,-0.2339566 Q 35.258183,7.1050268 35.258183,6.7760254 V 4.7800838 q 0,-0.3216902 0.201056,-0.5519912 0.201057,-0.2266454 0.515436,-0.2266454 h 0.86637 q 0.325346,0 0.530058,0.230301 0.208367,0.2303009 0.215678,0.5629579 h -0.628758 q -0.0037,-0.1060116 -0.0658,-0.1718119 -0.05849,-0.069456 -0.168156,-0.069456 z"
         style="fill:#e6e6e6;stroke-width:0.46791306"
         id="path4886"
         inkscape:connector-curvature="0" />
      <path
         d="M 40.32115,7.5692843 H 39.696047 V 4.8824398 q 0,-0.1389117 -0.08042,-0.2339566 -0.07677,-0.0987 -0.226646,-0.0987 h -0.460602 q -0.149878,0 -0.25589,0.1133227 -0.109667,0.1133227 -0.109667,0.25589 V 7.5692847 H 37.93772 l -0.0037,-4.6571972 h 0.632414 V 4.1367033 Q 38.701732,4.0087584 38.88451,4.0087584 h 0.584892 q 0.32169,0 0.588547,0.2156786 0.263201,0.2156787 0.263201,0.5373689 z"
         style="fill:#e6e6e6;stroke-width:0.46791306"
         id="path4888"
         inkscape:connector-curvature="0" />
      <path
         d="m 42.894673,6.80527 q 0.0037,0.3143791 -0.259546,0.5300578 -0.263201,0.2193342 -0.592202,0.2193342 h -0.471569 q -0.332657,0 -0.603169,-0.2156787 Q 40.697675,7.1233047 40.697675,6.80527 V 4.7508392 q 0,-0.3216902 0.270512,-0.5373689 0.270512,-0.2156787 0.603169,-0.2156787 h 0.471569 q 0.32169,0 0.588547,0.2156787 0.263201,0.2156787 0.263201,0.5373689 z M 42.26957,6.6846362 V 4.8714731 q 0,-0.1389117 -0.08042,-0.2339566 -0.07677,-0.0987 -0.226645,-0.0987 h -0.347279 q -0.153534,0 -0.22299,0.0987 -0.06946,0.095045 -0.06946,0.2339566 v 1.8131631 q 0,0.1389117 0.06946,0.2376121 0.06946,0.095045 0.22299,0.095045 h 0.347279 q 0.149878,0 0.226645,-0.095045 0.08042,-0.0987 0.08042,-0.2376121 z"
         style="fill:#e6e6e6;stroke-width:0.46791306"
         id="path4890"
         inkscape:connector-curvature="0" />
    </g>
    <g
       transform="translate(-0.16808031,-8.6934401)"
       aria-label="MIX_CV"
       style="font-style:normal;font-variant:normal;font-weight:normal;font-stretch:normal;font-size:4.23333311px;line-height:1.25;font-family:Uroob;-inkscape-font-specification:'Uroob, Normal';font-variant-ligatures:normal;font-variant-caps:normal;font-variant-numeric:normal;font-feature-settings:normal;text-align:start;letter-spacing:0px;word-spacing:0px;writing-mode:lr-tb;text-anchor:start;display:inline;fill:#e6e6e6;fill-opacity:1;stroke:none;stroke-width:0.26458332"
       id="text4569">
      <path
         d="m 15.50854,269.8932 q 0,-0.11989 0.198438,-0.10748 0.04754,0.004 0.07855,0.004 v 0.002 h 0.04341 l 0.634587,1.4366 0.636653,-1.4366 h 0.02274 v -0.002 h 0.173633 q 0.07441,0 0.111621,0.062 0.0124,0.0186 0.0124,0.0413 v 2.53835 H 17.04023 v -1.63504 l -0.396875,0.94257 h -0.357601 l -0.396875,-0.85576 v 1.54823 H 15.50854 Z"
         style="fill:#e6e6e6;stroke-width:0.26458332"
         id="path4970"
         inkscape:connector-curvature="0" />
      <path
         d="m 18.005545,272.43155 h -0.380338 v -2.53835 q 0,-0.0413 0.03101,-0.0723 0.03101,-0.031 0.07235,-0.031 H 17.9022 q 0.04134,0 0.07235,0.031 0.03101,0.031 0.03101,0.0723 z"
         style="fill:#e6e6e6;stroke-width:0.26458332"
         id="path4972"
         inkscape:connector-curvature="0" />
      <path
         d="m 20.076737,272.43155 h -0.436149 l -0.533301,-0.92398 -0.533301,0.92398 h -0.436149 l 0.750342,-1.30638 q -0.165365,-0.29352 -0.347266,-0.59531 -0.179834,-0.30179 -0.270784,-0.47336 -0.08888,-0.17157 -0.101286,-0.19224 -0.0124,-0.0207 0,-0.0455 0.02687,-0.0558 0.132292,-0.0496 h 0.248046 l 0.558106,0.97565 0.558105,-0.97565 h 0.258382 q 0.09922,0 0.11989,0.0393 0.02274,0.0372 0.01034,0.062 -0.0124,0.0248 -0.06615,0.11782 -0.05374,0.093 -0.144694,0.24804 -0.08888,0.15297 -0.179834,0.308 -0.08888,0.15503 -0.1757,0.30385 -0.08682,0.14676 -0.16123,0.27699 z"
         style="fill:#e6e6e6;stroke-width:0.26458332"
         id="path4974"
         inkscape:connector-curvature="0" />
      <path
         d="m 21.76759,273.58497 h -1.544092 v -0.20051 h 1.544092 z"
         style="fill:#e6e6e6;stroke-width:0.26458332"
         id="path4976"
         inkscape:connector-curvature="0" />
      <path
         d="m 23.016092,270.31075 q 0,-0.19844 -0.163298,-0.20051 h -0.363802 q -0.08061,0 -0.117822,0.0517 -0.03721,0.0517 -0.03721,0.12609 v 1.64331 q 0,0.0744 0.03721,0.12609 0.03721,0.0517 0.117822,0.0517 h 0.363802 q 0.159164,0 0.163298,-0.18397 0,-0.0496 0,-0.0951 h 0.374137 v 0.16949 q 0,0.18604 -0.134358,0.31006 -0.134359,0.12196 -0.31626,0.12196 h -0.475423 q -0.192237,0 -0.347266,-0.12196 -0.157096,-0.12195 -0.157096,-0.31006 v -1.77973 q 0,-0.1881 0.157096,-0.31213 0.157096,-0.12402 0.347266,-0.12402 h 0.475423 q 0.183968,0 0.318327,0.12609 0.132291,0.12609 0.132291,0.31006 v 0.19017 h -0.374137 z"
         style="fill:#e6e6e6;stroke-width:0.26458332"
         id="path4978"
         inkscape:connector-curvature="0" />
      <path
         d="m 25.38494,269.78158 q 0.08268,0 0.08268,0.0868 0,0.0248 -0.05374,0.21084 -0.05168,0.18397 -0.14056,0.49609 -0.08888,0.31213 -0.179834,0.62632 -0.08888,0.31213 -0.177767,0.62218 -0.08682,0.31006 -0.173633,0.60565 H 24.34521 q -0.1757,-0.59118 -0.314193,-1.0666 -0.138492,-0.47542 -0.23151,-0.78755 -0.09095,-0.31212 -0.138493,-0.47335 -0.04754,-0.16123 -0.05581,-0.18191 -0.0062,-0.0207 -0.01034,-0.0537 -0.0041,-0.0331 0.02274,-0.0579 0.02687,-0.0269 0.06821,-0.0289 h 0.250114 l 0.597379,1.97404 0.59738,-1.97197 z"
         style="fill:#e6e6e6;stroke-width:0.26458332"
         id="path4980"
         inkscape:connector-curvature="0" />
    </g>
    <rect
       style="display:inline;fill:#666666;fill-opacity:1;stroke-width:0.25355422"
       id="rect4841"
       width="23.8125"
       height="15.119061"
       x="14.597062"
       y="271.07568" />
    <g
       aria-label="OUTL/R"
       style="font-style:normal;font-variant:normal;font-weight:normal;font-stretch:normal;font-size:4.23333311px;line-height:1.25;font-family:Uroob;-inkscape-font-specification:'Uroob, Normal';font-variant-ligatures:normal;font-variant-caps:normal;font-variant-numeric:normal;font-feature-settings:normal;text-align:start;letter-spacing:0px;word-spacing:0px;writing-mode:lr-tb;text-anchor:start;display:inline;fill:#e6e6e6;fill-opacity:1;stroke:none;stroke-width:0.26458332"
       id="text4561"
       transform="translate(0.0449791,-9.2603707)">
      <path
         d="m 23.426551,284.57699 q 0,0.2129 -0.157096,0.36586 -0.157097,0.1509 -0.376205,0.1509 h -0.413411 q -0.221175,0 -0.382406,-0.14883 -0.163297,-0.14883 -0.163297,-0.36793 v -1.61231 q 0,-0.22117 0.163297,-0.37 0.163298,-0.14883 0.382406,-0.14883 h 0.413411 q 0.217041,0 0.376205,0.15089 0.157096,0.1509 0.157096,0.36794 z m -0.374137,-0.0682 v -1.47588 q 0,-0.16743 -0.115756,-0.23771 -0.03721,-0.0248 -0.08888,-0.0227 h -0.343132 q -0.08888,0 -0.142626,0.0786 -0.05374,0.0785 -0.05374,0.1819 v 1.47588 q 0,0.1633 0.109554,0.23565 0.03721,0.0248 0.08682,0.0248 h 0.343132 q 0.09509,0 0.150895,-0.0806 0.05374,-0.0806 0.05374,-0.17984 z"
         style="fill:#e6e6e6;stroke-width:0.26458332"
         id="path4957"
         inkscape:connector-curvature="0" />
      <path
         d="m 24.007394,284.59146 q 0,0.17776 0.155029,0.17776 h 0.425814 q 0.07855,0 0.119889,-0.0517 0.04341,-0.0517 0.04341,-0.12609 v -2.14354 l 0.374137,-0.002 v 2.21382 q 0,0.1819 -0.150895,0.30799 -0.150895,0.12609 -0.341065,0.12609 H 24.13762 q -0.192237,0 -0.347266,-0.12196 -0.157096,-0.12195 -0.157096,-0.31212 v -2.21175 h 0.374137 z"
         style="fill:#e6e6e6;stroke-width:0.26458332"
         id="path4959"
         inkscape:connector-curvature="0" />
      <path
         d="m 26.824793,282.45205 q 0.09302,0 0.10542,0.10335 v 0.23772 h -0.611849 v 2.30063 h -0.378272 v -2.30063 h -0.611849 v -0.23772 q 0,-0.0455 0.03101,-0.0744 0.03307,-0.0289 0.07648,-0.0289 z"
         style="fill:#e6e6e6;stroke-width:0.26458332"
         id="path4961"
         inkscape:connector-curvature="0" />
      <path
         d="m 27.542062,285.09375 q -0.40101,0 -0.40101,-0.34933 v -2.29237 h 0.374138 v 2.18281 q 0,0.0827 0.0186,0.10956 0.0186,0.0269 0.09509,0.0269 h 0.702799 v 0.32246 z"
         style="fill:#e6e6e6;stroke-width:0.26458332"
         id="path4963"
         inkscape:connector-curvature="0" />
      <path
         d="m 29.741411,282.45205 -0.826823,3.25975 H 28.53425 l 0.826822,-3.25975 z"
         style="fill:#e6e6e6;stroke-width:0.26458332"
         id="path4965"
         inkscape:connector-curvature="0" />
      <path
         d="m 31.558354,285.10202 h -0.388607 l -0.54777,-1.14515 h -0.295589 v 1.14515 h -0.376205 v -2.64997 h 1.021126 q 0.202572,0 0.347266,0.13436 0.144694,0.13436 0.144694,0.33693 v 0.62012 q 0,0.29352 -0.252181,0.38447 -0.07855,0.0289 -0.173633,0.0289 z m -0.469222,-1.64745 v -0.46302 q 0,-0.13849 -0.107487,-0.2005 -0.03307,-0.0207 -0.07648,-0.0186 h -0.578776 v 0.8599 h 0.640787 q 0.10542,-0.002 0.117823,-0.11369 0.0041,-0.0331 0.0041,-0.0641 z"
         style="fill:#e6e6e6;stroke-width:0.26458332"
         id="path4967"
         inkscape:connector-curvature="0" />
    </g>
    <g
       aria-label="MIX"
       style="display:inline;font-style:normal;font-variant:normal;font-weight:normal;font-stretch:normal;font-size:4.23333311px;line-height:1.25;font-family:Uroob;-inkscape-font-specification:'Uroob, Normal';font-variant-ligatures:normal;font-variant-caps:normal;font-variant-numeric:normal;font-feature-settings:normal;text-align:start;letter-spacing:0px;word-spacing:0px;writing-mode:lr-tb;text-anchor:start;fill:#e6e6e6;fill-opacity:1;stroke:none;stroke-width:0.26458332"
       id="text4565"
       transform="translate(-0.16808231,-8.0239199)">
      <path
         d="m 18.203984,251.18338 q 0,-0.11989 0.198437,-0.10749 0.04754,0.004 0.07855,0.004 v 0.002 h 0.04341 l 0.634587,1.43661 0.636654,-1.43661 h 0.02274 v -0.002 h 0.173633 q 0.07441,0 0.111621,0.062 0.0124,0.0186 0.0124,0.0413 v 2.53835 h -0.380338 v -1.63505 l -0.396875,0.94258 h -0.357601 l -0.396875,-0.85576 v 1.54823 h -0.380338 z"
         style="fill:#e6e6e6;stroke-width:0.26458332"
         id="path4945"
         inkscape:connector-curvature="0" />
      <path
         d="M 20.700989,253.72173 H 20.32065 v -2.53835 q 0,-0.0413 0.03101,-0.0724 0.03101,-0.031 0.07235,-0.031 h 0.173633 q 0.04134,0 0.07235,0.031 0.03101,0.031 0.03101,0.0724 z"
         style="fill:#e6e6e6;stroke-width:0.26458332"
         id="path4947"
         inkscape:connector-curvature="0" />
      <path
         d="m 22.77218,253.72173 h -0.436149 l -0.533301,-0.92398 -0.533301,0.92398 H 20.83328 l 0.750342,-1.30638 q -0.165365,-0.29353 -0.347266,-0.59532 -0.179834,-0.30179 -0.270784,-0.47335 -0.08888,-0.17157 -0.101286,-0.19224 -0.0124,-0.0207 0,-0.0455 0.02687,-0.0558 0.132292,-0.0496 h 0.248047 l 0.558105,0.97565 0.558105,-0.97565 h 0.258383 q 0.09922,0 0.119889,0.0393 0.02274,0.0372 0.01033,0.062 -0.0124,0.0248 -0.06615,0.11782 -0.05374,0.093 -0.144694,0.24805 -0.08888,0.15296 -0.179834,0.30799 -0.08888,0.15503 -0.175699,0.30386 -0.08682,0.14676 -0.161231,0.27699 z"
         style="fill:#e6e6e6;stroke-width:0.26458332"
         id="path4949"
         inkscape:connector-curvature="0" />
    </g>
    <g
       aria-label="IN"
       style="display:inline;font-style:normal;font-variant:normal;font-weight:normal;font-stretch:normal;font-size:4.23333311px;line-height:1.25;font-family:Uroob;-inkscape-font-specification:'Uroob, Normal';font-variant-ligatures:normal;font-variant-caps:normal;font-variant-numeric:normal;font-feature-settings:normal;text-align:start;letter-spacing:0px;word-spacing:0px;writing-mode:lr-tb;text-anchor:start;fill:#ececec;fill-opacity:1;stroke:none;stroke-width:0.26458332"
       id="text4541"
       transform="translate(0.59118704,-9.2604104)">
      <path
         d="M 6.4394737,285.39761 H 6.0591352 v -2.53834 q 0,-0.0413 0.031006,-0.0723 0.031006,-0.031 0.072347,-0.031 H 6.336121 q 0.041341,0 0.072347,0.031 0.031006,0.031 0.031006,0.0723 z"
         style="fill:#ececec;stroke-width:0.26458332"
         id="path4952"
         inkscape:connector-curvature="0" />
      <path
         d="m 8.2336794,285.30046 q 0,0.0413 -0.031006,0.0724 -0.031006,0.0289 -0.072347,0.0289 H 7.9442913 q -0.1136881,-0.22738 -0.4030761,-0.74828 -0.289388,-0.5209 -0.5188314,-0.94878 v 1.69706 H 6.6420453 v -2.54248 q 0,-0.0413 0.031006,-0.0723 0.031006,-0.031 0.072347,-0.031 h 0.2149739 q 0,0.002 0.03514,0.0703 0.03514,0.0682 0.093018,0.18191 0.057878,0.11368 0.1322916,0.25838 0.076481,0.14469 0.1550293,0.29972 0.080615,0.15503 0.1591634,0.30799 0.078548,0.1509 0.144694,0.27906 0.066146,0.12609 0.1116211,0.21497 0.047542,0.0889 0.062012,0.11782 V 282.756 h 0.3803386 z"
         style="fill:#ececec;stroke-width:0.26458332"
         id="path4954"
         inkscape:connector-curvature="0" />
    </g>
  </g>
  <g
     inkscape:groupmode="layer"
     id="layer2"
     inkscape:label="components"
     style="display:inline">
    <circle
       style="display:inline;fill:#ff0000;fill-opacity:1;stroke-width:0.26458332"
       id="path4571-9-2-75"
       cx="29.804209"
       cy="53.513805"
       inkscape:label="fdbkR"
       r="1.3229166" />
    <circle
       style="display:inline;fill:#00ff00;fill-opacity:1;stroke-width:0.26458332"
       id="path4571-9-2-4"
       cx="20.32"
       cy="85.174805"
       r="1.3229166"
       inkscape:label="mixCV" />
    <circle
       style="display:inline;fill:#0000ff;fill-opacity:1;stroke-width:0.26458332"
       id="path4571-9-2-28"
       cx="32.693626"
       cy="112.37213"
       r="1.3229166"
       inkscape:label="outR" />
    <circle
       style="display:inline;fill:#0000ff;fill-opacity:1;stroke-width:0.26458332"
       id="path4571-9-2-1"
       cx="20.312998"
       cy="112.37213"
       r="1.3229166"
       inkscape:label="outL" />
    <circle
       style="display:inline;fill:#00ff00;fill-opacity:1;stroke-width:0.26458332"
       id="path4571-9-2-8"
       cx="7.7375946"
       cy="112.37213"
       r="1.3229166"
       inkscape:label="inputM" />
    <circle
       style="display:inline;fill:#ff0000;fill-opacity:1;stroke-width:0.26458332"
       id="path4571-9-2-7"
       cx="20.32"
       cy="66.5578"
       r="1.3229166"
       inkscape:label="mix" />
    <circle
       style="display:inline;fill:#ff0000;fill-opacity:1;stroke-width:0.26458332"
       id="path4571-9-2-2"
       cx="10.627011"
       cy="53.513805"
       inkscape:label="fdbkL"
       r="1.3229166" />
    <circle
       style="display:inline;fill:#ff0000;fill-opacity:1;stroke-width:0.26458332"
       id="path4571-9-2-24"
       cx="10.627011"
       cy="35.127678"
       inkscape:label="timeL"
       r="1.3229166" />
    <circle
       style="display:inline;fill:#ff0000;fill-opacity:1;stroke-width:0.26458332"
       id="path4571-9-2"
       cx="29.804209"
       cy="35.127678"
       inkscape:label="timeR"
       r="1.3229166" />
  </g>
</svg>
