<?xml version="1.0" encoding="UTF-8" standalone="no"?>
<!-- Created with Inkscape (http://www.inkscape.org/) -->

<svg
   xmlns:dc="http://purl.org/dc/elements/1.1/"
   xmlns:cc="http://creativecommons.org/ns#"
   xmlns:rdf="http://www.w3.org/1999/02/22-rdf-syntax-ns#"
   xmlns:svg="http://www.w3.org/2000/svg"
   xmlns="http://www.w3.org/2000/svg"
   xmlns:sodipodi="http://sodipodi.sourceforge.net/DTD/sodipodi-0.dtd"
   xmlns:inkscape="http://www.inkscape.org/namespaces/inkscape"
   width="40.639999mm"
   height="128.05mm"
   viewBox="0 0 40.639999 128.05"
   version="1.1"
   id="svg8"
   inkscape:version="0.92.5 (2060ec1f9f, 2020-04-08)"
   sodipodi:docname="simpleOSCvarSaw.svg">
  <defs
     id="defs2" />
  <sodipodi:namedview
     id="base"
     pagecolor="#ffffff"
     bordercolor="#666666"
     borderopacity="1.0"
     inkscape:pageopacity="0.0"
     inkscape:pageshadow="2"
     inkscape:zoom="1.4"
     inkscape:cx="-50.300083"
     inkscape:cy="253.26984"
     inkscape:document-units="mm"
     inkscape:current-layer="layer2"
     showgrid="false"
     inkscape:window-width="1920"
     inkscape:window-height="1019"
     inkscape:window-x="0"
     inkscape:window-y="0"
     inkscape:window-maximized="1"
     inkscape:snap-nodes="false" />
  <metadata
     id="metadata5">
    <rdf:RDF>
      <cc:Work
         rdf:about="">
        <dc:format>image/svg+xml</dc:format>
        <dc:type
           rdf:resource="http://purl.org/dc/dcmitype/StillImage" />
        <dc:title />
      </cc:Work>
    </rdf:RDF>
  </metadata>
  <g
     inkscape:groupmode="layer"
     id="layer1"
     inkscape:label="background"
     sodipodi:insensitive="true"
     style="display:inline">
    <g
       style="display:inline"
       id="g144"
       transform="translate(89.202379,-38.364583)"
       sodipodi:insensitive="true">
      <rect
         inkscape:label="backgroundColor"
         y="38.097622"
         x="-89.111671"
         height="128.5"
         width="40.640003"
         id="rect160"
         style="display:inline;fill:#333333;fill-opacity:1;stroke-width:0.38475049" />
      <path
         inkscape:connector-curvature="0"
         d="m -71.117804,162.29035 c 0.0402,-0.49894 0.140243,-0.98838 0.265263,-1.4721 0.127527,-0.50112 0.288253,-0.99311 0.400191,-1.49827 0.07531,-0.33986 0.08357,-0.42366 0.137804,-0.76356 0.06947,-0.51502 0.149859,-1.03062 0.183989,-1.54959 0.02158,-0.50185 -0.14395,-0.22482 0.70189,-0.58169 0.152722,0.36174 0.270498,0.73597 0.391212,1.10927 0.253164,0.75509 0.463953,1.52335 0.648148,2.29789 0.09727,0.47007 0.196685,0.93975 0.270795,1.41414 0.01438,0.0883 0.02481,0.17712 0.03585,0.26585 0.122959,0.26431 -0.554663,0.53124 -0.730551,0.31905 -0.01782,-0.0225 -0.02687,-0.0461 -0.02813,-0.0748 -3.7e-4,-0.0176 -2.64e-4,-0.0352 -3.43e-4,-0.0528 -0.0028,-0.0253 -0.0137,-0.0351 0.02489,0.0497 -0.08288,-0.0847 -0.08197,-0.20519 -0.07935,-0.31622 0.03652,-0.35456 0.09789,-0.70657 0.154016,-1.05855 0.07691,-0.52924 0.122888,-1.0628 0.165574,-1.59578 0.03196,-0.44174 0.08486,-0.87912 0.21711,-1.30265 0.112529,-0.35499 0.297207,-0.54688 0.599753,-0.74866 0.557801,-0.3755 1.11665,-0.63649 1.769184,-0.75689 0.450399,-0.0555 0.907445,-0.10064 1.360018,-0.0497 0.258796,0.0536 0.425974,0.16923 0.299054,0.46111 -0.03019,0.0694 -0.07693,0.13044 -0.115388,0.19566 -0.538456,0.65597 -1.246448,1.1404 -1.94113,1.61522 -0.749696,0.48978 -1.518626,0.95084 -2.303981,1.3812 -0.07488,0.0398 -0.108265,0.0582 -0.178858,0.0935 -0.02409,0.012 -0.09512,0.0499 -0.07323,0.0342 0.691614,-0.49616 0.406576,-0.42418 0.791303,-0.49897 0.571549,-0.11232 1.152836,-0.16257 1.733226,-0.20259 0.495075,-0.0126 0.994918,-0.0122 1.488003,0.0426 0.273744,0.0304 0.374382,0.0571 0.638758,0.11148 0.356,0.10122 0.734266,0.24147 0.987763,0.52674 0.03981,0.0448 0.07079,0.0967 0.106196,0.14503 0.144906,0.25822 0.219511,0.56133 0.132898,0.85251 -0.01854,0.0623 -0.04744,0.12098 -0.07115,0.18147 -0.194207,0.38262 -0.523637,0.64144 -0.890661,0.84846 -0.303685,0.17129 -0.610628,0.33674 -0.915942,0.50512 -0.838808,0.37913 -1.734401,0.59483 -2.633386,0.7733 -0.910332,0.15274 -1.839688,0.21421 -2.762337,0.16911 -0.176504,-0.009 -0.352406,-0.0269 -0.528609,-0.0403 -0.879453,-0.0785 -1.743367,-0.26838 -2.580841,-0.54429 -0.37905,-0.15531 -0.854916,-0.32849 -1.043082,-0.73111 -0.02808,-0.0601 -0.03796,-0.12711 -0.05694,-0.19066 -7.94e-4,-0.0709 -0.01037,-0.14235 -0.0023,-0.21284 0.0411,-0.35872 0.269727,-0.70197 0.51606,-0.95317 0.08802,-0.0898 0.187388,-0.16766 0.281083,-0.25149 0.783612,-0.57142 1.657058,-1.00192 2.569335,-1.32292 0.51941,-0.18276 0.856495,-0.2725 1.387535,-0.42681 0,0 -0.540052,0.41639 -0.540052,0.41639 v 0 c -0.547304,0.16164 -0.85713,0.24408 -1.391393,0.43709 -0.206597,0.0746 -0.409084,0.16019 -0.613627,0.24029 -0.178591,0.0823 -0.352071,0.17668 -0.535773,0.2468 -0.05768,0.022 0.206431,-0.13556 0.154967,-0.10145 -0.120462,0.0798 -0.241308,0.15909 -0.361963,0.23864 -0.09332,0.08 -0.191907,0.15433 -0.279959,0.24014 -0.240882,0.23474 -0.471333,0.56012 -0.525895,0.90081 -0.0102,0.0637 -0.004,0.12899 -0.0061,0.19349 0.015,0.0573 0.02098,0.11775 0.04501,0.17189 0.168021,0.37852 0.651827,0.55376 1.00205,0.69828 0.828929,0.27514 1.683835,0.46601 2.555485,0.54066 0.174848,0.0129 0.349405,0.0306 0.524542,0.0386 0.920734,0.042 1.847775,-0.023 2.754884,-0.18282 0.902424,-0.18459 1.801726,-0.4083 2.639143,-0.80205 -0.111364,0.0708 -0.230515,0.13061 -0.334091,0.21238 -0.07584,0.0599 0.168642,-0.0946 0.250298,-0.14623 0.265745,-0.16814 0.492904,-0.37845 0.648462,-0.65461 0.05104,-0.11567 0.100578,-0.2043 0.11779,-0.33092 0.03008,-0.22141 -0.04073,-0.44339 -0.145732,-0.63458 -0.0328,-0.0445 -0.06147,-0.0923 -0.09841,-0.13341 -0.245573,-0.27318 -0.610755,-0.40553 -0.953937,-0.50073 -0.693867,-0.14119 -1.402018,-0.17906 -2.109223,-0.14218 -0.586713,0.0442 -1.174129,0.10078 -1.749959,0.2263 -0.04058,0.008 -0.150109,0.0543 -0.121744,0.0242 0.2918,-0.30987 0.446529,-0.41572 0.759935,-0.57237 0.320494,-0.17505 0.103685,-0.0585 -0.2797,0.16911 -0.08726,0.0518 0.176224,-0.10068 0.263442,-0.15254 0.36428,-0.21661 0.724505,-0.44044 1.079872,-0.67135 0.686828,-0.46577 1.382088,-0.94082 1.925701,-1.57633 0.191929,-0.28791 0.300962,-0.44399 -0.113706,-0.52419 -0.447457,-0.0444 -0.899413,-5.3e-4 -1.342923,0.0647 -0.270199,0.0567 -0.531682,0.12886 -0.785599,0.2393 -0.05973,0.026 -0.230816,0.11979 -0.176511,0.0838 0.153695,-0.10179 0.31716,-0.188 0.475739,-0.282 -0.302459,0.18583 -0.502467,0.35416 -0.62061,0.70224 -0.143639,0.41752 -0.200232,0.85204 -0.233746,1.29128 -0.04304,0.53386 -0.08866,1.06814 -0.159736,1.59904 -0.05317,0.34702 -0.108927,0.69457 -0.142879,1.04393 -0.0046,0.0638 -0.0056,0.11886 0.0085,0.18134 0.0027,0.012 0.0064,0.0451 0.0128,0.0346 0.0022,-0.004 -0.0012,-0.008 -0.0018,-0.0127 0.01486,0.0189 0.02973,0.0378 0.04459,0.0568 -6.88e-4,5.3e-4 -0.0022,8e-4 -0.0021,0.002 -0.0013,0.0166 -0.002,0.0333 -0.0024,0.05 -5.03e-4,0.0163 -0.009,0.0133 0.0014,0.0268 0.0061,0.006 0.04161,0.0298 0.03949,0.031 -0.573624,0.3615 -0.78001,0.18576 -0.638682,0.39117 0.004,-0.0881 -0.01285,-0.17634 -0.01927,-0.26399 -0.05813,-0.47733 -0.151747,-0.949 -0.244407,-1.42062 -0.176836,-0.77373 -0.386368,-1.54036 -0.649243,-2.28966 -0.124498,-0.36306 -0.247971,-0.72619 -0.407618,-1.07553 0.216991,-0.12574 0.439043,-0.24312 0.650973,-0.37721 0.0085,-0.005 -0.0128,-0.0252 -0.02188,-0.0208 -0.0096,0.005 0.0076,0.25447 -0.0099,0.26144 -0.04642,0.52438 -0.135048,1.04465 -0.204377,1.5663 -0.122249,0.76844 -0.315715,1.51793 -0.529891,2.26551 -0.122429,0.4757 -0.224385,0.9583 -0.246889,1.45057 0,0 -0.674227,0.33511 -0.674227,0.33511 z"
         id="path212-3"
         style="display:inline;fill:#1a1a1a;fill-opacity:1;stroke-width:0.12205819" />
    </g>
    <rect
       style="fill:#cccccc;fill-opacity:0.99537036;fill-rule:nonzero;stroke-width:0.1;stroke-miterlimit:4;stroke-dasharray:none;paint-order:markers fill stroke"
       id="rect4691"
       width="11.528275"
       height="15.686011"
       x="14.555862"
       y="98.567863"
       ry="0.79999942" />
  </g>
  <g
     id="layer2"
     inkscape:label="text"
     style="display:inline"
     inkscape:groupmode="layer">
    <g
       aria-label="simpleVariableSawOSC"
       style="font-style:normal;font-variant:normal;font-weight:normal;font-stretch:normal;font-size:4.93888903px;line-height:1.25;font-family:Uroob;-inkscape-font-specification:'Uroob, Normal';font-variant-ligatures:normal;font-variant-caps:normal;font-variant-numeric:normal;font-feature-settings:normal;text-align:start;letter-spacing:0px;word-spacing:0px;writing-mode:lr-tb;text-anchor:start;fill:#e6e6e6;fill-opacity:1;stroke:none;stroke-width:0.26458332"
       id="text37">
      <path
         d="M 3.8875833,9.0373558 Q 3.8924064,8.902308 3.7211852,8.902308 H 3.4197393 q -0.2073947,0.00241 -0.1881022,0.2821534 0.00482,0.072347 0.00482,0.1302246 0,0.1808675 0.1832791,0.1808675 h 0.4220242 q 0.2170411,0 0.3496772,0.1543403 0.1350478,0.1543403 0.1350478,0.3689702 v 0.323149 q 0,0.221865 -0.144694,0.381028 -0.144694,0.156752 -0.3641466,0.156752 H 3.2871031 q -0.2363335,0 -0.3689697,-0.151929 -0.1350477,-0.151929 -0.1350477,-0.388262 h 0.4147895 q -0.00482,0.08441 0.040997,0.120578 0.048231,0.03376 0.1254015,0.03376 h 0.3496772 q 0.1832791,0 0.1832791,-0.180867 v -0.241157 q 0,-0.1881022 -0.1832791,-0.1881022 H 3.316042 q -0.2194526,0 -0.3641467,-0.1374594 Q 2.8072013,9.6088971 2.8072013,9.3918561 V 9.0397673 q 0,-0.217041 0.1350478,-0.3713813 0.1350477,-0.1543402 0.3496772,-0.1543402 h 0.5184869 q 0.2218641,0 0.3569119,0.1471055 0.1350477,0.1471056 0.1350477,0.3762045 z"
         style="font-size:4.93888903px;fill:#e6e6e6;stroke-width:0.26458332"
         id="path38"
         inkscape:connector-curvature="0" />
      <path
         d="m 5.025843,7.8219261 q 0.2652723,0 0.2652723,0.2700954 0,0.2725071 -0.2652723,0.2725071 -0.1302246,0 -0.2001601,-0.069935 -0.069935,-0.072347 -0.069935,-0.2025717 0,-0.1302246 0.069935,-0.20016 0.069935,-0.069935 0.2001601,-0.069936 z M 5.2284146,10.865323 H 4.8136251 V 8.5212805 h 0.4147895 z"
         style="font-size:4.93888903px;fill:#e6e6e6;stroke-width:0.26458332"
         id="path40"
         inkscape:connector-curvature="0" />
      <path
         d="M 6.8393412,8.6949133 Q 6.9478617,8.5261036 7.1263177,8.5261036 h 0.4581977 q 0.2098063,0 0.361735,0.1422824 0.1519288,0.1422825 0.1519288,0.3545004 V 10.87497 H 7.6858012 V 9.1024681 q 0,-0.09164 -0.053055,-0.1543403 -0.050643,-0.065112 -0.1495171,-0.065112 H 7.1552565 q -0.1205784,0 -0.1567519,0.1663981 -0.00965,0.043408 -0.00965,0.079582 V 10.87497 H 6.5740689 V 9.063883 q 0,-0.1205783 -0.1278131,-0.1688097 -0.036174,-0.014469 -0.072347,-0.012058 H 6.02182 q -0.144694,0 -0.144694,0.3400309 V 10.87497 H 5.4623365 V 8.5261036 h 0.3689698 v 0.144694 Q 5.9374152,8.5261036 6.0893439,8.5261036 H 6.523426 q 0.2025716,0 0.3159152,0.1688097 z"
         style="font-size:4.93888903px;fill:#e6e6e6;stroke-width:0.26458332"
         id="path42"
         inkscape:connector-curvature="0" />
      <path
         d="M 8.7203634,8.6442704 Q 8.8771153,8.5309267 9.0700406,8.5309267 h 0.1688097 q 0.306269,0 0.4895481,0.1760444 0.1832791,0.1760444 0.1832791,0.4871365 v 0.9646264 q 0,0.506429 -0.3400309,0.66077 -0.1181668,0.05305 -0.2845649,0.05305 H 9.0218093 q -0.1567518,0 -0.2652724,-0.118167 v 1.179257 h -0.417201 l 0.00241,-3.4027213 h 0.378616 z M 9.4992995,10.127384 V 9.2519852 q 0,-0.1881022 -0.040997,-0.2508029 Q 9.3835443,8.8854271 9.2099115,8.8854271 H 9.0025168 q -0.074759,0 -0.161575,0.053054 -0.084405,0.053055 -0.084405,0.1254015 v 1.2130184 q 0,0.07235 0.089228,0.156752 0.089228,0.08199 0.1567519,0.08199 h 0.2073947 q 0.2387451,0 0.2773302,-0.238745 0.00965,-0.06994 0.012058,-0.149517 z"
         style="font-size:4.93888903px;fill:#e6e6e6;stroke-width:0.26458332"
         id="path44"
         inkscape:connector-curvature="0" />
      <path
         d="m 10.611032,10.877381 q -0.467844,0 -0.467844,-0.407554 V 8.1330182 h 0.436493 v 2.2089948 q 0,0.144694 0.09405,0.176045 0.04341,0.01447 0.101286,0.01206 0.06029,-0.0024 0.130225,-0.0024 v 0.349677 z"
         style="font-size:4.93888903px;fill:#e6e6e6;stroke-width:0.26458332"
         id="path46"
         inkscape:connector-curvature="0" />
      <path
         d="m 12.704272,10.33719 q -0.0072,0.364147 -0.282153,0.496783 -0.09164,0.04341 -0.209806,0.04341 h -0.571542 q -0.214629,0 -0.3545,-0.15434 -0.142282,-0.15434 -0.142282,-0.371381 V 9.0349442 q 0,-0.2146294 0.130224,-0.3689697 0.130225,-0.1543403 0.342443,-0.1543403 h 0.612538 q 0.214629,0 0.342442,0.1639865 0.127813,0.1639866 0.127813,0.3834392 v 0.3135037 q 0,0.2122179 -0.118167,0.3641466 -0.118166,0.1495171 -0.327973,0.1495171 h -0.704177 v 0.4364937 q 0,0.192925 0.195337,0.192925 h 0.366558 q 0.08199,0 0.130225,-0.04582 0.05064,-0.04823 0.04823,-0.132637 z M 11.744469,8.8854271 q -0.195337,0 -0.195337,0.2025716 v 0.4413167 h 0.528133 q 0.09164,0 0.15434,-0.050643 0.06511,-0.053055 0.06511,-0.1519287 V 9.0783524 q 0,-0.1012858 -0.06511,-0.1471056 -0.0627,-0.04582 -0.15434,-0.04582 z"
         style="font-size:4.93888903px;fill:#e6e6e6;stroke-width:0.26458332"
         id="path48"
         inkscape:connector-curvature="0" />
      <path
         d="m 15.004907,7.7857525 q 0.09646,0 0.09646,0.1012859 0,0.028939 -0.0627,0.2459798 -0.06029,0.2146294 -0.163987,0.578776 -0.103697,0.3641466 -0.209806,0.7307048 -0.103697,0.3641466 -0.207395,0.725882 -0.101286,0.361735 -0.202571,0.706589 H 13.791889 Q 13.586906,10.185262 13.425331,9.6306012 13.263756,9.0759408 13.155235,8.7117942 13.049126,8.3476476 12.99366,8.1595454 12.93819,7.9714432 12.92855,7.9473275 q -0.0072,-0.024116 -0.01206,-0.062701 -0.0048,-0.038585 0.02653,-0.067524 0.03135,-0.03135 0.07958,-0.033762 h 0.291799 l 0.696943,2.3030465 0.696943,-2.300635 z"
         style="font-size:4.93888903px;fill:#e6e6e6;stroke-width:0.26458332"
         id="path50"
         inkscape:connector-curvature="0" />
      <path
         d="m 16.59413,9.0879987 q 0,-0.2025716 -0.195337,-0.2025716 h -0.438905 q -0.07235,0 -0.113344,0.04582 -0.03858,0.043408 -0.041,0.1133437 h -0.414789 q 0.0048,-0.2194526 0.142282,-0.3713813 0.13746,-0.1519287 0.349677,-0.1519287 h 0.643889 q 0.207395,0 0.340031,0.1495171 0.132636,0.1495172 0.132636,0.3641466 v 1.8424365 h -0.402732 v -0.09405 q -0.130224,0.101286 -0.255626,0.101286 h -0.395497 q -0.219452,0 -0.397908,-0.142282 -0.178456,-0.142283 -0.178456,-0.349678 V 9.9344587 q 0,-0.2122179 0.178456,-0.3545004 0.178456,-0.1422824 0.397908,-0.1422824 h 0.467844 q 0.09646,0 0.180868,0.053055 z m -0.0072,1.2250763 V 10.01404 q 0,-0.091639 -0.05305,-0.1543399 -0.05064,-0.065112 -0.149517,-0.065112 h -0.409966 q -0.101286,0 -0.147106,0.065112 -0.04582,0.062701 -0.04582,0.1543399 v 0.299035 q 0,0.09164 0.04582,0.156752 0.04582,0.0627 0.147106,0.0627 h 0.409966 q 0.09888,0 0.149517,-0.0627 0.05305,-0.06511 0.05305,-0.156752 z"
         style="font-size:4.93888903px;fill:#e6e6e6;stroke-width:0.26458332"
         id="path52"
         inkscape:connector-curvature="0" />
      <path
         d="m 18.325634,8.8830155 -0.243568,-0.00241 q -0.303857,0 -0.395497,0.2194526 -0.03135,0.074759 -0.03135,0.1712213 V 10.87497 h -0.412378 l -0.0024,-2.1366485 q -0.106109,0 -0.106109,-0.079582 V 8.5188689 h 0.475079 v 0.2194526 q 0.03376,-0.096463 0.12299,-0.1591634 0.08923,-0.062701 0.190514,-0.062701 h 0.402731 z"
         style="font-size:4.93888903px;fill:#e6e6e6;stroke-width:0.26458332"
         id="path54"
         inkscape:connector-curvature="0" />
      <path
         d="m 18.776598,7.8219261 q 0.265272,0 0.265272,0.2700954 0,0.2725071 -0.265272,0.2725071 -0.130225,0 -0.20016,-0.069935 -0.06994,-0.072347 -0.06994,-0.2025717 0,-0.1302246 0.06994,-0.20016 0.06994,-0.069935 0.20016,-0.069936 z m 0.202571,3.0433969 H 18.56438 V 8.5212805 h 0.414789 z"
         style="font-size:4.93888903px;fill:#e6e6e6;stroke-width:0.26458332"
         id="path56"
         inkscape:connector-curvature="0" />
      <path
         d="m 20.450224,9.0879987 q 0,-0.2025716 -0.195337,-0.2025716 h -0.438905 q -0.07235,0 -0.113344,0.04582 -0.03859,0.043408 -0.041,0.1133437 h -0.41479 q 0.0048,-0.2194526 0.142283,-0.3713813 0.137459,-0.1519287 0.349677,-0.1519287 H 20.3827 q 0.207395,0 0.340031,0.1495171 0.132636,0.1495172 0.132636,0.3641466 v 1.8424365 h -0.402731 v -0.09405 q -0.130225,0.101286 -0.255627,0.101286 h -0.395497 q -0.219452,0 -0.397908,-0.142282 -0.178456,-0.142283 -0.178456,-0.349678 V 9.9344587 q 0,-0.2122179 0.178456,-0.3545004 0.178456,-0.1422824 0.397908,-0.1422824 h 0.467844 q 0.09646,0 0.180868,0.053055 z m -0.0072,1.2250763 V 10.01404 q 0,-0.091639 -0.05305,-0.1543399 -0.05064,-0.065112 -0.149517,-0.065112 H 19.83049 q -0.101286,0 -0.147105,0.065112 -0.04582,0.062701 -0.04582,0.1543399 v 0.299035 q 0,0.09164 0.04582,0.156752 0.04582,0.0627 0.147105,0.0627 h 0.409967 q 0.09887,0 0.149517,-0.0627 0.05305,-0.06511 0.05305,-0.156752 z"
         style="font-size:4.93888903px;fill:#e6e6e6;stroke-width:0.26458332"
         id="path58"
         inkscape:connector-curvature="0" />
      <path
         d="m 21.511314,8.596039 q 0.120578,-0.072347 0.265272,-0.072347 h 0.265273 q 0.315915,0 0.470255,0.1929254 0.154341,0.1929253 0.154341,0.5208984 v 0.9163952 q 0,0.311092 -0.18328,0.511252 -0.183279,0.20016 -0.489548,0.20016 h -0.168809 q -0.192926,0 -0.349678,-0.113343 v 0.113343 H 21.096524 V 7.8074567 h 0.41479 z m 0.742763,1.550638 V 9.2688662 q 0,-0.1905138 -0.041,-0.2580377 -0.07958,-0.1302246 -0.248391,-0.1302246 h -0.255627 q -0.122989,0 -0.180867,0.098874 -0.01929,0.03135 -0.01688,0.067524 v 1.2853651 q -0.0024,0.110932 0.171221,0.163987 0.04341,0.01447 0.07476,0.01447 h 0.207395 q 0.248391,0 0.279741,-0.214629 0.0096,-0.06752 0.0096,-0.149517 z"
         style="font-size:4.93888903px;fill:#e6e6e6;stroke-width:0.26458332"
         id="path60"
         inkscape:connector-curvature="0" />
      <path
         d="m 23.370631,10.877381 q -0.467844,0 -0.467844,-0.407554 V 8.1330182 h 0.436494 v 2.2089948 q 0,0.144694 0.09405,0.176045 0.04341,0.01447 0.101286,0.01206 0.06029,-0.0024 0.130225,-0.0024 v 0.349677 z"
         style="font-size:4.93888903px;fill:#e6e6e6;stroke-width:0.26458332"
         id="path62"
         inkscape:connector-curvature="0" />
      <path
         d="m 25.463873,10.33719 q -0.0072,0.364147 -0.282153,0.496783 -0.09164,0.04341 -0.209807,0.04341 h -0.571541 q -0.214629,0 -0.3545,-0.15434 -0.142283,-0.15434 -0.142283,-0.371381 V 9.0349442 q 0,-0.2146294 0.130225,-0.3689697 0.130224,-0.1543403 0.342442,-0.1543403 h 0.612538 q 0.21463,0 0.342443,0.1639865 0.127813,0.1639866 0.127813,0.3834392 v 0.3135037 q 0,0.2122179 -0.118167,0.3641466 -0.118167,0.1495171 -0.327973,0.1495171 h -0.704178 v 0.4364937 q 0,0.192925 0.195337,0.192925 h 0.366559 q 0.08199,0 0.130224,-0.04582 0.05064,-0.04823 0.04823,-0.132637 z M 24.504069,8.8854271 q -0.195337,0 -0.195337,0.2025716 v 0.4413167 h 0.528134 q 0.09164,0 0.15434,-0.050643 0.06511,-0.053055 0.06511,-0.1519287 V 9.0783524 q 0,-0.1012858 -0.06511,-0.1471056 -0.0627,-0.04582 -0.15434,-0.04582 z"
         style="font-size:4.93888903px;fill:#e6e6e6;stroke-width:0.26458332"
         id="path64"
         inkscape:connector-curvature="0" />
      <path
         d="m 26.30792,8.178838 q -0.183279,0 -0.183279,0.1905137 v 0.5932455 q 0,0.1808675 0.183279,0.1808675 h 0.639065 q 0.217041,0 0.349678,0.1543403 0.135047,0.1543403 0.135047,0.3689697 v 0.6752383 q 0,0.221865 -0.144694,0.381028 -0.144694,0.156752 -0.364146,0.156752 h -0.747586 q -0.236334,0 -0.36897,-0.151929 -0.135047,-0.151929 -0.135047,-0.388262 h 0.414789 q -0.0048,0.08441 0.041,0.120578 0.04823,0.03376 0.125401,0.03376 h 0.566718 q 0.183279,0 0.183279,-0.180867 V 9.7198292 q 0,-0.1881022 -0.183279,-0.1881022 h -0.614949 q -0.219453,0 -0.364147,-0.1591634 Q 25.695382,9.2134002 25.695382,8.991536 V 8.3162973 q 0,-0.2170411 0.135048,-0.3713813 0.135048,-0.1543403 0.349677,-0.1543403 h 0.747586 q 0.221864,0 0.352089,0.1471056 0.127813,0.1471055 0.127813,0.3762044 h -0.41479 Q 26.997628,8.178838 26.826407,8.178838 Z"
         style="font-size:4.93888903px;fill:#e6e6e6;stroke-width:0.26458332"
         id="path66"
         inkscape:connector-curvature="0" />
      <path
         d="m 28.914826,9.0879987 q 0,-0.2025716 -0.195337,-0.2025716 h -0.438906 q -0.07235,0 -0.113343,0.04582 -0.03859,0.043408 -0.041,0.1133437 h -0.414789 q 0.0048,-0.2194526 0.142282,-0.3713813 0.137459,-0.1519287 0.349677,-0.1519287 h 0.643889 q 0.207394,0 0.340031,0.1495171 0.132636,0.1495172 0.132636,0.3641466 v 1.8424365 h -0.402732 v -0.09405 q -0.130225,0.101286 -0.255626,0.101286 h -0.395497 q -0.219453,0 -0.397909,-0.142282 Q 27.68975,10.600051 27.68975,10.392656 V 9.9344587 q 0,-0.2122179 0.178455,-0.3545004 0.178456,-0.1422824 0.397909,-0.1422824 h 0.467844 q 0.09646,0 0.180868,0.053055 z m -0.0072,1.2250763 V 10.01404 q 0,-0.091639 -0.05306,-0.1543399 -0.05064,-0.065112 -0.149517,-0.065112 h -0.409966 q -0.101286,0 -0.147106,0.065112 -0.04582,0.062701 -0.04582,0.1543399 v 0.299035 q 0,0.09164 0.04582,0.156752 0.04582,0.0627 0.147106,0.0627 h 0.409966 q 0.09887,0 0.149517,-0.0627 0.05306,-0.06511 0.05306,-0.156752 z"
         style="font-size:4.93888903px;fill:#e6e6e6;stroke-width:0.26458332"
         id="path68"
         inkscape:connector-curvature="0" />
      <path
         d="m 30.764496,10.698925 q -0.171221,0.166398 -0.356912,0.166398 h -0.318327 q -0.214629,0 -0.36897,-0.13987 -0.15434,-0.139871 -0.15434,-0.354501 V 8.5261036 h 0.412378 v 1.7652674 q 0,0.09164 0.04582,0.156751 0.04582,0.0627 0.147105,0.0627 h 0.18328 q 0.125401,0 0.183279,-0.110932 0.01688,-0.03376 0.01688,-0.07235 V 8.5261036 l 0.414789,-0.00241 v 1.8086754 q 0,0.07717 0.05547,0.127813 0.05788,0.05064 0.135048,0.05064 h 0.183279 q 0.09887,0 0.149517,-0.0627 0.05306,-0.06511 0.05306,-0.156751 V 8.5261036 l 0.412378,-0.00241 v 1.8472604 q 0,0.209807 -0.149518,0.352089 -0.149517,0.142282 -0.364146,0.142282 h -0.313504 q -0.20016,0 -0.366558,-0.166398 z"
         style="font-size:4.93888903px;fill:#e6e6e6;stroke-width:0.26458332"
         id="path70"
         inkscape:connector-curvature="0" />
      <path
         d="m 33.938119,10.27449 q 0,0.248391 -0.183279,0.426847 -0.18328,0.176044 -0.438906,0.176044 h -0.482313 q -0.258038,0 -0.44614,-0.173632 -0.190514,-0.173633 -0.190514,-0.429259 V 8.3934674 q 0,-0.2580376 0.190514,-0.4316705 0.190514,-0.1736328 0.44614,-0.1736328 h 0.482313 q 0.253215,0 0.438906,0.1760444 0.183279,0.1760444 0.183279,0.4292589 z M 33.501625,10.19491 V 8.4730491 q 0,-0.1953369 -0.135048,-0.2773302 -0.04341,-0.028939 -0.103697,-0.026527 h -0.40032 q -0.103698,0 -0.166398,0.091639 -0.0627,0.09164 -0.0627,0.2122179 v 1.7218592 q 0,0.190514 0.127813,0.274919 0.04341,0.02894 0.101286,0.02894 h 0.40032 q 0.110932,0 0.176044,-0.09405 0.0627,-0.09405 0.0627,-0.209807 z"
         style="font-size:4.93888903px;fill:#e6e6e6;stroke-width:0.26458332"
         id="path72"
         inkscape:connector-curvature="0" />
      <path
         d="m 34.81834,8.178838 q -0.183279,0 -0.183279,0.1905137 v 0.5932455 q 0,0.1808675 0.183279,0.1808675 h 0.639065 q 0.217041,0 0.349677,0.1543403 0.135048,0.1543403 0.135048,0.3689697 v 0.6752383 q 0,0.221865 -0.144694,0.381028 -0.144694,0.156752 -0.364146,0.156752 h -0.747586 q -0.236334,0 -0.36897,-0.151929 -0.135048,-0.151929 -0.135048,-0.388262 h 0.41479 q -0.0048,0.08441 0.041,0.120578 0.04823,0.03376 0.125402,0.03376 h 0.566718 q 0.183279,0 0.183279,-0.180867 V 9.7198292 q 0,-0.1881022 -0.183279,-0.1881022 h -0.614949 q -0.219453,0 -0.364147,-0.1591634 Q 34.205802,9.2134002 34.205802,8.991536 V 8.3162973 q 0,-0.2170411 0.135048,-0.3713813 0.135048,-0.1543403 0.349677,-0.1543403 h 0.747586 q 0.221864,0 0.352088,0.1471056 0.127814,0.1471055 0.127814,0.3762044 h -0.41479 Q 35.508048,8.178838 35.336827,8.178838 Z"
         style="font-size:4.93888903px;fill:#e6e6e6;stroke-width:0.26458332"
         id="path74"
         inkscape:connector-curvature="0" />
      <path
         d="m 37.42042,8.4031137 q 0,-0.2315104 -0.190513,-0.233922 h -0.424436 q -0.09405,0 -0.13746,0.060289 -0.04341,0.060289 -0.04341,0.1471055 v 1.9171958 q 0,0.08682 0.04341,0.147106 0.04341,0.06029 0.13746,0.06029 h 0.424436 q 0.18569,0 0.190513,-0.21463 0,-0.05788 0,-0.110932 h 0.436494 v 0.197749 q 0,0.217041 -0.156752,0.361735 -0.156752,0.142282 -0.36897,0.142282 h -0.55466 q -0.224276,0 -0.405143,-0.142282 Q 36.18811,10.592816 36.18811,10.373364 V 8.2970047 q 0,-0.2194526 0.183279,-0.3641466 0.183279,-0.144694 0.405143,-0.144694 h 0.55466 q 0.21463,0 0.371382,0.1471056 0.15434,0.1471056 0.15434,0.361735 V 8.5188689 H 37.42042 Z"
         style="font-size:4.93888903px;fill:#e6e6e6;stroke-width:0.26458332"
         id="path76"
         inkscape:connector-curvature="0" />
    </g>
    <g
       aria-label="OUT"
       style="font-style:normal;font-variant:normal;font-weight:normal;font-stretch:normal;font-size:3.17499995px;line-height:1.25;font-family:Uroob;-inkscape-font-specification:'Uroob, Normal';font-variant-ligatures:normal;font-variant-caps:normal;font-variant-numeric:normal;font-feature-settings:normal;text-align:start;letter-spacing:0px;word-spacing:0px;writing-mode:lr-tb;text-anchor:start;fill:#1a1a1a;fill-opacity:1;stroke:none;stroke-width:0.26458332"
       id="text27"
       transform="translate(-9.4456238,-3.2127976)">
      <path
         d="m 29.011408,105.17284 q 0,0.15968 -0.117822,0.27441 -0.117822,0.11317 -0.282153,0.11317 h -0.310059 q -0.165881,0 -0.286804,-0.11162 -0.122473,-0.11163 -0.122473,-0.27596 v -1.20922 q 0,-0.16589 0.122473,-0.27751 0.122473,-0.11162 0.286804,-0.11162 h 0.310059 q 0.16278,0 0.282153,0.11317 0.117822,0.11317 0.117822,0.27596 z m -0.280603,-0.0512 v -1.1069 q 0,-0.12558 -0.08682,-0.17829 -0.02791,-0.0186 -0.06666,-0.017 h -0.257348 q -0.06666,0 -0.106971,0.0589 -0.04031,0.0589 -0.04031,0.13643 v 1.1069 q 0,0.12248 0.08216,0.17674 0.02791,0.0186 0.06511,0.0186 h 0.257348 q 0.07131,0 0.113172,-0.0605 0.04031,-0.0605 0.04031,-0.13488 z"
         style="fill:#1a1a1a;stroke-width:0.26458332"
         id="path31"
         inkscape:connector-curvature="0" />
      <path
         d="m 29.44704,105.1837 q 0,0.13332 0.116272,0.13332 h 0.319361 q 0.05891,0 0.08992,-0.0388 0.03256,-0.0388 0.03256,-0.0946 v -1.60766 l 0.280603,-0.002 v 1.66037 q 0,0.13642 -0.113171,0.23099 -0.113172,0.0946 -0.255799,0.0946 h -0.37207 q -0.144177,0 -0.260449,-0.0915 -0.117823,-0.0915 -0.117823,-0.23409 v -1.65882 h 0.280603 z"
         style="fill:#1a1a1a;stroke-width:0.26458332"
         id="path33"
         inkscape:connector-curvature="0" />
      <path
         d="m 31.56009,103.57914 q 0.06976,0 0.07906,0.0775 v 0.17828 h -0.458887 v 1.72548 h -0.283704 v -1.72548 h -0.458886 v -0.17828 q 0,-0.0341 0.02325,-0.0558 0.02481,-0.0217 0.05736,-0.0217 z"
         style="fill:#1a1a1a;stroke-width:0.26458332"
         id="path35"
         inkscape:connector-curvature="0" />
    </g>
    <g
       aria-label="V/OCT"
       style="font-style:normal;font-variant:normal;font-weight:normal;font-stretch:normal;font-size:3.17499995px;line-height:1.25;font-family:Uroob;-inkscape-font-specification:'Uroob, Normal';font-variant-ligatures:normal;font-variant-caps:normal;font-variant-numeric:normal;font-feature-settings:normal;text-align:start;letter-spacing:0px;word-spacing:0px;writing-mode:lr-tb;text-anchor:start;fill:#e6e6e6;fill-opacity:1;stroke:none;stroke-width:0.26458332"
       id="text15"
       transform="translate(0.30257929,-0.3077493)">
      <path
         d="m 6.9451376,56.443776 q 0.062012,0 0.062012,0.06511 0,0.0186 -0.040308,0.15813 -0.038757,0.137976 -0.1054199,0.37207 -0.066663,0.234095 -0.1348755,0.469739 -0.066663,0.234094 -0.1333252,0.466638 -0.065112,0.232544 -0.1302246,0.454236 H 6.1653402 Q 6.0335653,57.986317 5.9296957,57.62975 5.8258261,57.273183 5.7560629,57.039088 5.68785,56.804994 5.6521933,56.684071 q -0.035657,-0.120922 -0.041858,-0.136425 -0.00465,-0.0155 -0.00775,-0.04031 -0.0031,-0.02481 0.017053,-0.04341 0.020154,-0.02015 0.05116,-0.0217 h 0.1875854 l 0.4480347,1.480529 0.4480346,-1.478979 z"
         style="font-size:3.17499995px;fill:#e6e6e6;stroke-width:0.26458332"
         id="path91"
         inkscape:connector-curvature="0" />
      <path
         d="M 8.0768514,56.449977 7.4567343,58.894789 H 7.1714804 l 0.6201171,-2.444812 z"
         style="font-size:3.17499995px;fill:#e6e6e6;stroke-width:0.26458332"
         id="path93"
         inkscape:connector-curvature="0" />
      <path
         d="m 9.3527426,58.043678 q 0,0.15968 -0.1178223,0.274402 Q 9.117098,58.431252 8.952767,58.431252 H 8.6427084 q -0.1658814,0 -0.2868042,-0.111622 Q 8.2334311,58.208009 8.2334311,58.043678 V 56.83445 q 0,-0.165882 0.1224731,-0.277503 0.1224731,-0.111621 0.2868042,-0.111621 H 8.952767 q 0.1627807,0 0.2821533,0.113172 0.1178223,0.113171 0.1178223,0.275952 z m -0.2806031,-0.05116 v -1.10691 q 0,-0.125573 -0.086816,-0.178283 -0.027905,-0.0186 -0.066663,-0.01705 H 8.6613119 q -0.066663,0 -0.1069702,0.05891 -0.040308,0.05891 -0.040308,0.136425 v 1.10691 q 0,0.122473 0.082166,0.176733 0.027905,0.0186 0.065112,0.0186 h 0.2573486 q 0.071314,0 0.1131714,-0.06046 0.040308,-0.06046 0.040308,-0.134875 z"
         style="font-size:3.17499995px;fill:#e6e6e6;stroke-width:0.26458332"
         id="path95"
         inkscape:connector-curvature="0" />
      <path
         d="m 10.299971,56.840651 q 0,-0.148828 -0.122473,-0.150378 H 9.9046467 q -0.060462,0 -0.088367,0.03876 -0.027905,0.03876 -0.027905,0.09457 v 1.232483 q 0,0.05581 0.027905,0.09457 0.027905,0.03876 0.088367,0.03876 h 0.2728513 q 0.119373,0 0.122473,-0.137976 0,-0.03721 0,-0.07131 h 0.280603 v 0.127124 q 0,0.139527 -0.100769,0.232544 -0.100769,0.09147 -0.237194,0.09147 H 9.8860432 q -0.1441773,0 -0.2604493,-0.09147 -0.1178222,-0.09147 -0.1178222,-0.232544 v -1.334802 q 0,-0.141077 0.1178222,-0.234094 0.1178223,-0.09302 0.2604493,-0.09302 h 0.3565678 q 0.137976,0 0.238745,0.09457 0.09922,0.09457 0.09922,0.232544 v 0.142627 h -0.280603 z"
         style="font-size:3.17499995px;fill:#e6e6e6;stroke-width:0.26458332"
         id="path97"
         inkscape:connector-curvature="0" />
      <path
         d="m 11.856466,56.449977 q 0.06976,0 0.07906,0.07752 v 0.178283 h -0.458887 v 1.725477 H 11.19294 V 56.70578 h -0.458886 v -0.178283 q 0,-0.03411 0.02325,-0.05581 0.02481,-0.0217 0.05736,-0.0217 z"
         style="font-size:3.17499995px;fill:#e6e6e6;stroke-width:0.26458332"
         id="path99"
         inkscape:connector-curvature="0" />
    </g>
    <g
       aria-label="AFT"
       style="font-style:normal;font-variant:normal;font-weight:normal;font-stretch:normal;font-size:3.17499995px;line-height:1.25;font-family:Uroob;-inkscape-font-specification:'Uroob, Normal';font-variant-ligatures:normal;font-variant-caps:normal;font-variant-numeric:normal;font-feature-settings:normal;text-align:start;letter-spacing:0px;word-spacing:0px;writing-mode:lr-tb;text-anchor:start;fill:#e6e6e6;fill-opacity:1;stroke:none;stroke-width:0.26458332"
       id="text19"
       transform="translate(0.3025799,-0.15388676)">
      <path
         d="m 8.0619172,78.283234 h -0.280603 v -0.84336 H 7.1922028 v 0.84336 H 6.9115998 V 76.62442 q 0,-0.141076 0.1178223,-0.234094 0.1178223,-0.09302 0.2604492,-0.09302 h 0.4030762 q 0.1395263,0 0.254248,0.09457 0.1147217,0.09457 0.1147217,0.232544 z M 7.7813142,77.201129 V 76.67558 q 0,-0.05581 -0.032556,-0.09457 -0.031006,-0.03876 -0.089917,-0.03876 H 7.3084748 q -0.060461,0 -0.088367,0.03876 -0.027905,0.03876 -0.027905,0.09457 v 0.525549 z"
         style="font-size:3.17499995px;fill:#e6e6e6;stroke-width:0.26458332"
         id="path84"
         inkscape:connector-curvature="0" />
      <path
         d="m 9.2680451,76.542255 h -0.651123 q -0.060462,0 -0.088367,0.03876 -0.027905,0.03876 -0.027905,0.09457 v 0.47904 h 0.703833 v 0.238745 h -0.703833 v 0.888318 H 8.2200471 V 76.62442 q 0,-0.141076 0.1178222,-0.234094 0.1178223,-0.09302 0.2604492,-0.09302 h 0.6697266 z"
         style="font-size:3.17499995px;fill:#e6e6e6;stroke-width:0.26458332"
         id="path86"
         inkscape:connector-curvature="0" />
      <path
         d="m 10.547037,76.301959 q 0.06976,0 0.07906,0.07752 v 0.178284 H 10.16721 v 1.725476 H 9.8835114 V 76.557758 H 9.4246247 v -0.178284 q 0,-0.03411 0.023254,-0.05581 0.024805,-0.0217 0.057361,-0.0217 z"
         style="font-size:3.17499995px;fill:#e6e6e6;stroke-width:0.26458332"
         id="path88"
         inkscape:connector-curvature="0" />
    </g>
    <g
       aria-label="PW"
       style="font-style:normal;font-variant:normal;font-weight:normal;font-stretch:normal;font-size:3.17499995px;line-height:1.25;font-family:Uroob;-inkscape-font-specification:'Uroob, Normal';font-variant-ligatures:normal;font-variant-caps:normal;font-variant-numeric:normal;font-feature-settings:normal;text-align:start;letter-spacing:0px;word-spacing:0px;writing-mode:lr-tb;text-anchor:start;fill:#e6e6e6;fill-opacity:1;stroke:none;stroke-width:0.26458332"
       id="text23"
       transform="translate(0.30256705)">
      <path
         d="m 8.5417327,96.737625 q 0,0.137976 -0.083716,0.224793 -0.083716,0.08527 -0.2232422,0.08527 H 7.6890716 V 97.90655 H 7.4069182 V 95.91907 H 8.172763 q 0.1519287,0 0.2604492,0.10077 0.1085205,0.100769 0.1085205,0.252697 z m -0.280603,-0.06666 v -0.347266 q 0,-0.10387 -0.080615,-0.150378 -0.024805,-0.0155 -0.057361,-0.01395 h -0.434082 v 0.644922 h 0.4805908 q 0.079065,-0.0016 0.088367,-0.08527 0.0031,-0.02481 0.0031,-0.04806 z"
         style="fill:#e6e6e6;stroke-width:0.26458332"
         id="path79"
         inkscape:connector-curvature="0" />
      <path
         d="m 8.6936614,95.985733 q 0,-0.07596 0.097668,-0.06666 h 0.1891357 v 1.16117 l 0.3286621,-0.765845 h 0.2046387 l 0.3302124,0.830957 V 95.91907 h 0.1782837 q 0.02015,-0.0016 0.03566,-0.0016 0.05736,0 0.06666,0.03721 0.0093,0.03721 0.0047,0.06511 v 1.880505 H 9.8889373 L 9.4238494,96.847696 H 9.400595 L 8.9355071,97.900345 H 8.6952117 V 96.01984 q -0.0031,-0.01705 -0.00155,-0.03411 z"
         style="fill:#e6e6e6;stroke-width:0.26458332"
         id="path81"
         inkscape:connector-curvature="0" />
    </g>
    <g
       aria-label="TRANSP"
       style="font-style:normal;font-variant:normal;font-weight:normal;font-stretch:normal;font-size:3.17499995px;line-height:1.25;font-family:Uroob;-inkscape-font-specification:'Uroob, Normal';font-variant-ligatures:normal;font-variant-caps:normal;font-variant-numeric:normal;font-feature-settings:normal;text-align:start;letter-spacing:0px;word-spacing:0px;writing-mode:lr-tb;text-anchor:start;fill:#e6e6e6;fill-opacity:1;stroke:none;stroke-width:0.26458332"
       id="text47"
       transform="translate(0.3025777,-0.46159973)">
      <path
         d="m 5.9938263,37.055331 q 0.069763,0 0.079065,0.07751 V 37.31113 H 5.6140045 v 1.725476 H 5.3303009 V 37.31113 H 4.8714142 v -0.178284 q 0,-0.03411 0.023254,-0.05581 0.024805,-0.0217 0.057361,-0.0217 z"
         style="fill:#e6e6e6;stroke-width:0.26458332"
         id="path102"
         inkscape:connector-curvature="0" />
      <path
         d="M 7.437149,39.042807 H 7.145694 L 6.7348663,38.183945 H 6.5131744 v 0.858862 H 6.2310211 v -1.987476 h 0.7658447 q 0.1519287,0 0.2604492,0.100769 0.1085206,0.10077 0.1085206,0.252698 v 0.465088 q 0,0.220142 -0.1891358,0.288355 -0.058911,0.0217 -0.1302246,0.0217 z M 7.0852325,37.807224 v -0.347266 q 0,-0.10387 -0.080615,-0.150379 -0.024805,-0.0155 -0.057361,-0.01395 H 6.5131744 v 0.644922 h 0.4805908 q 0.079065,-0.0016 0.088367,-0.08527 0.0031,-0.02481 0.0031,-0.04806 z"
         style="fill:#e6e6e6;stroke-width:0.26458332"
         id="path104"
         inkscape:connector-curvature="0" />
      <path
         d="M 8.739395,39.036606 H 8.458792 v -0.84336 H 7.8696807 v 0.84336 h -0.280603 v -1.658814 q 0,-0.141076 0.1178222,-0.234094 0.1178223,-0.09302 0.2604492,-0.09302 h 0.4030762 q 0.1395264,0 0.254248,0.09457 0.1147217,0.09457 0.1147217,0.232544 z M 8.458792,37.954501 v -0.525549 q 0,-0.05581 -0.032556,-0.09457 -0.031006,-0.03876 -0.089917,-0.03876 H 7.9859527 q -0.060462,0 -0.088367,0.03876 -0.027905,0.03876 -0.027905,0.09457 v 0.525549 z"
         style="fill:#e6e6e6;stroke-width:0.26458332"
         id="path106"
         inkscape:connector-curvature="0" />
      <path
         d="m 10.091251,38.963742 q 0,0.03101 -0.02325,0.05426 -0.02325,0.0217 -0.05426,0.0217 H 9.8742096 Q 9.7889435,38.869174 9.5719025,38.4785 9.3548614,38.087827 9.1827789,37.766916 v 1.27279 H 8.897525 v -1.90686 q 0,-0.03101 0.023254,-0.05426 0.023254,-0.02325 0.05426,-0.02325 h 0.1612304 q 0,0.0016 0.026355,0.05271 0.026355,0.05116 0.069763,0.136426 0.043408,0.08527 0.099219,0.193787 0.057361,0.10852 0.116272,0.224792 0.060461,0.116272 0.1193726,0.230994 0.058911,0.113171 0.1085205,0.209289 0.049609,0.09457 0.083716,0.161231 0.035657,0.06666 0.046509,0.08837 v -1.297596 h 0.2852545 z"
         style="fill:#e6e6e6;stroke-width:0.26458332"
         id="path108"
         inkscape:connector-curvature="0" />
      <path
         d="m 10.650906,37.301828 q -0.117822,0 -0.117822,0.122473 v 0.381372 q 0,0.116272 0.117822,0.116272 h 0.410828 q 0.139526,0 0.224792,0.09922 0.08682,0.09922 0.08682,0.237195 v 0.434082 q 0,0.142627 -0.09302,0.244946 -0.09302,0.100769 -0.234094,0.100769 H 10.56564 q -0.151929,0 -0.237195,-0.09767 -0.08682,-0.09767 -0.08682,-0.249597 h 0.26665 q -0.0031,0.05426 0.02636,0.07751 0.03101,0.0217 0.08062,0.0217 h 0.364318 q 0.117823,0 0.117823,-0.116272 v -0.381372 q 0,-0.120923 -0.117823,-0.120923 h -0.395324 q -0.141077,0 -0.234095,-0.102319 -0.09302,-0.102319 -0.09302,-0.244946 v -0.434082 q 0,-0.139527 0.08682,-0.238745 0.08682,-0.09922 0.224793,-0.09922 h 0.480591 q 0.142627,0 0.226342,0.09457 0.08217,0.09457 0.08217,0.241845 h -0.266651 q 0.0031,-0.08682 -0.10697,-0.08682 z"
         style="fill:#e6e6e6;stroke-width:0.26458332"
         id="path110"
         inkscape:connector-curvature="0" />
      <path
         d="m 12.666287,37.873886 q 0,0.137976 -0.08372,0.224793 -0.08371,0.08527 -0.223242,0.08527 h -0.545703 v 0.858862 h -0.282153 v -1.987476 h 0.765845 q 0.151928,0 0.260449,0.100769 0.10852,0.10077 0.10852,0.252698 z m -0.280603,-0.06666 V 37.45996 q 0,-0.10387 -0.08061,-0.150379 -0.0248,-0.0155 -0.05736,-0.01395 h -0.434082 v 0.644922 h 0.480591 q 0.07906,-0.0016 0.08837,-0.08527 0.0031,-0.02481 0.0031,-0.04806 z"
         style="fill:#e6e6e6;stroke-width:0.26458332"
         id="path112"
         inkscape:connector-curvature="0" />
    </g>
    <g
       aria-label="OCT"
       style="font-style:normal;font-variant:normal;font-weight:normal;font-stretch:normal;font-size:3.17499995px;line-height:1.25;font-family:Uroob;-inkscape-font-specification:'Uroob, Normal';font-variant-ligatures:normal;font-variant-caps:normal;font-variant-numeric:normal;font-feature-settings:normal;text-align:start;letter-spacing:0px;word-spacing:0px;writing-mode:lr-tb;text-anchor:start;fill:#e6e6e6;fill-opacity:1;stroke:none;stroke-width:0.26458332"
       id="text69"
       transform="translate(-1.8337432,-0.08053996)">
      <path
         d="m 33.185797,38.271061 q 0,0.15968 -0.117822,0.274402 -0.117822,0.113171 -0.282153,0.113171 h -0.310059 q -0.165881,0 -0.286804,-0.111621 -0.122473,-0.111621 -0.122473,-0.275952 v -1.209229 q 0,-0.165881 0.122473,-0.277502 0.122473,-0.111621 0.286804,-0.111621 h 0.310059 q 0.16278,0 0.282153,0.113171 0.117822,0.113172 0.117822,0.275952 z m -0.280603,-0.05116 v -1.106909 q 0,-0.125574 -0.08682,-0.178284 -0.02791,-0.0186 -0.06666,-0.01705 h -0.257349 q -0.06666,0 -0.10697,0.05891 -0.04031,0.05891 -0.04031,0.136426 v 1.106909 q 0,0.122473 0.08217,0.176734 0.0279,0.0186 0.06511,0.0186 h 0.257349 q 0.07131,0 0.113171,-0.06046 0.04031,-0.06046 0.04031,-0.134876 z"
         style="fill:#e6e6e6;stroke-width:0.26458332"
         id="path115"
         inkscape:connector-curvature="0" />
      <path
         d="m 34.133026,37.068034 q 0,-0.148828 -0.122473,-0.150379 h -0.272852 q -0.06046,0 -0.08837,0.03876 -0.02791,0.03876 -0.02791,0.09457 v 1.232483 q 0,0.05581 0.02791,0.09457 0.0279,0.03876 0.08837,0.03876 h 0.272852 q 0.119372,0 0.122473,-0.137976 0,-0.03721 0,-0.07131 h 0.280603 v 0.127124 q 0,0.139526 -0.100769,0.232544 -0.100769,0.09147 -0.237195,0.09147 h -0.356567 q -0.144177,0 -0.260449,-0.09147 -0.117823,-0.09147 -0.117823,-0.232544 v -1.334802 q 0,-0.141077 0.117823,-0.234095 0.117822,-0.09302 0.260449,-0.09302 h 0.356567 q 0.137976,0 0.238745,0.09457 0.09922,0.09457 0.09922,0.232544 v 0.142627 h -0.280603 z"
         style="fill:#e6e6e6;stroke-width:0.26458332"
         id="path117"
         inkscape:connector-curvature="0" />
      <path
         d="m 35.68952,36.67736 q 0.06976,0 0.07906,0.07751 v 0.178284 H 35.309693 V 38.65863 H 35.02599 V 36.933154 H 34.567103 V 36.75487 q 0,-0.03411 0.02326,-0.05581 0.0248,-0.0217 0.05736,-0.0217 z"
         style="fill:#e6e6e6;stroke-width:0.26458332"
         id="path119"
         inkscape:connector-curvature="0" />
    </g>
    <g
       aria-label="SPREAD"
       transform="matrix(0.26458333,0,0,0.26458333,-0.7728613,0.76352912)"
       style="font-style:normal;font-variant:normal;font-weight:normal;font-stretch:normal;font-size:12px;line-height:1.25;font-family:Uroob;-inkscape-font-specification:'Uroob, Normal';font-variant-ligatures:normal;font-variant-caps:normal;font-variant-numeric:normal;font-feature-settings:normal;text-align:start;letter-spacing:0px;word-spacing:0px;writing-mode:lr-tb;text-anchor:start;display:inline;fill:#e6e6e6;fill-opacity:1;stroke:none"
       id="flowRoot122">
      <path
         d="m 111.40625,285.83789 q -0.44531,0 -0.44531,0.46289 v 1.44141 q 0,0.43945 0.44531,0.43945 h 1.55273 q 0.52735,0 0.84961,0.375 0.32813,0.375 0.32813,0.89648 v 1.64063 q 0,0.53906 -0.35156,0.92578 -0.35157,0.38086 -0.88477,0.38086 h -1.81641 q -0.57421,0 -0.89648,-0.36914 -0.32812,-0.36914 -0.32812,-0.94336 h 1.00781 q -0.0117,0.20508 0.0996,0.29297 0.11718,0.082 0.30468,0.082 h 1.37696 q 0.44531,0 0.44531,-0.43945 V 289.582 q 0,-0.45703 -0.44531,-0.45703 h -1.49414 q -0.53321,0 -0.88477,-0.38672 -0.35156,-0.38672 -0.35156,-0.92578 v -1.64063 q 0,-0.52734 0.32812,-0.90234 0.32813,-0.375 0.84961,-0.375 h 1.81641 q 0.53906,0 0.85547,0.35742 0.31055,0.35742 0.31055,0.91407 h -1.00782 q 0.0117,-0.32813 -0.40429,-0.32813 z"
         id="path139"
         inkscape:connector-curvature="0" />
      <path
         d="m 119.02344,288 q 0,0.52148 -0.31641,0.84961 -0.3164,0.32226 -0.84375,0.32226 h -2.0625 v 3.2461 h -1.0664 v -7.51172 h 2.89453 q 0.57422,0 0.98437,0.38086 0.41016,0.38086 0.41016,0.95508 z m -1.06055,-0.25195 v -1.3125 q 0,-0.39258 -0.30469,-0.56836 -0.0937,-0.0586 -0.21679,-0.0527 h -1.64063 v 2.4375 h 1.81641 q 0.29883,-0.006 0.33398,-0.32226 0.0117,-0.0937 0.0117,-0.18164 z"
         id="path141"
         inkscape:connector-curvature="0" />
      <path
         d="m 124.16211,292.41797 h -1.10156 l -1.55274,-3.2461 h -0.83789 v 3.2461 h -1.0664 v -7.51172 h 2.89453 q 0.57422,0 0.98437,0.38086 0.41016,0.38086 0.41016,0.95508 V 288 q 0,0.83203 -0.71485,1.08984 -0.22265,0.082 -0.49218,0.082 z m -1.33008,-4.66992 v -1.3125 q 0,-0.39258 -0.30469,-0.56836 -0.0937,-0.0586 -0.21679,-0.0527 h -1.64063 v 2.4375 h 1.81641 q 0.29883,-0.006 0.33398,-0.32226 0.0117,-0.0937 0.0117,-0.18164 z"
         id="path143"
         inkscape:connector-curvature="0" />
      <path
         d="m 128.69727,292.39453 h -2.53125 q -0.54493,0 -0.98438,-0.3457 -0.44531,-0.34571 -0.44531,-0.87891 V 286.125 q 0,-0.5332 0.44531,-0.88477 0.44531,-0.35156 0.98438,-0.35156 h 2.53125 v 0.92578 h -2.46094 q -0.22852,0 -0.33399,0.14649 -0.10546,0.14648 -0.10546,0.35742 v 1.81055 h 2.66015 v 0.90234 h -2.66015 v 1.94531 q 0,0.21094 0.10546,0.35742 0.10547,0.14649 0.33399,0.14649 h 2.46094 z"
         id="path145"
         inkscape:connector-curvature="0" />
      <path
         d="m 133.61914,292.39453 h -1.06055 v -3.1875 h -2.22656 v 3.1875 h -1.06055 V 286.125 q 0,-0.5332 0.44532,-0.88477 0.44531,-0.35156 0.98437,-0.35156 h 1.52344 q 0.52734,0 0.96094,0.35742 0.43359,0.35743 0.43359,0.87891 z m -1.06055,-4.08984 v -1.98633 q 0,-0.21094 -0.12304,-0.35742 -0.11719,-0.14649 -0.33985,-0.14649 h -1.32422 q -0.22851,0 -0.33398,0.14649 -0.10547,0.14648 -0.10547,0.35742 v 1.98633 z"
         id="path147"
         inkscape:connector-curvature="0" />
      <path
         d="m 138.50586,291.22266 q 0,0.52148 -0.31641,0.84961 -0.3164,0.32226 -0.84375,0.32226 h -3.1289 v -7.48828 h 2.89453 q 0.57422,0 0.98437,0.38086 0.41016,0.38086 0.41016,0.95508 z m -1.06055,-0.25196 v -4.53515 q 0,-0.39258 -0.30469,-0.56836 -0.0937,-0.0586 -0.21679,-0.0527 h -1.64063 v 5.66016 h 1.81641 q 0.29883,-0.006 0.33398,-0.32227 0.0117,-0.0937 0.0117,-0.18164 z"
         id="path149"
         inkscape:connector-curvature="0" />
    </g>
    <g
       aria-label="TUNE"
       transform="matrix(0.26458333,0,0,0.26458333,0.31622058,1.0223375)"
       style="font-style:normal;font-variant:normal;font-weight:normal;font-stretch:normal;font-size:12px;line-height:1.25;font-family:Uroob;-inkscape-font-specification:'Uroob, Normal';font-variant-ligatures:normal;font-variant-caps:normal;font-variant-numeric:normal;font-feature-settings:normal;text-align:start;letter-spacing:0px;word-spacing:0px;writing-mode:lr-tb;text-anchor:start;fill:#e6e6e6;fill-opacity:1;stroke:none"
       id="flowRoot114">
      <path
         d="m 114.82813,209.19141 q 0.26367,0 0.29882,0.29296 v 0.67383 h -1.73437 v 6.52149 h -1.07227 v -6.52149 h -1.73437 v -0.67383 q 0,-0.1289 0.0879,-0.21093 0.0937,-0.082 0.2168,-0.082 z"
         id="path130"
         inkscape:connector-curvature="0" />
      <path
         d="m 116.78516,215.25586 q 0,0.50391 0.43945,0.50391 h 1.20703 q 0.22266,0 0.33984,-0.14649 0.12305,-0.14648 0.12305,-0.35742 v -6.07617 l 1.06055,-0.006 v 6.27539 q 0,0.51562 -0.42774,0.87305 -0.42773,0.35742 -0.96679,0.35742 h -1.40625 q -0.54492,0 -0.98438,-0.34571 -0.44531,-0.3457 -0.44531,-0.88476 v -6.26953 h 1.06055 z"
         id="path132"
         inkscape:connector-curvature="0" />
      <path
         d="m 125.02344,216.4043 q 0,0.11718 -0.0879,0.20507 -0.0879,0.082 -0.20508,0.082 h -0.52734 q -0.32227,-0.64454 -1.14258,-2.1211 -0.82032,-1.47656 -1.47071,-2.68945 v 4.81055 h -1.07812 v -7.20704 q 0,-0.11718 0.0879,-0.20507 0.0879,-0.0879 0.20508,-0.0879 h 0.60937 q 0,0.006 0.0996,0.19921 0.0996,0.19336 0.26367,0.51563 0.16407,0.32227 0.375,0.73242 0.2168,0.41016 0.43946,0.84961 0.22851,0.43945 0.45117,0.87305 0.22266,0.42773 0.41016,0.79101 0.1875,0.35743 0.3164,0.60938 0.13477,0.25195 0.17578,0.33398 v -4.90429 h 1.07813 z"
         id="path134"
         inkscape:connector-curvature="0" />
      <path
         d="m 129.54687,216.67969 h -2.53124 q -0.54493,0 -0.98438,-0.34571 -0.44531,-0.3457 -0.44531,-0.8789 v -5.04492 q 0,-0.53321 0.44531,-0.88477 0.44531,-0.35156 0.98438,-0.35156 h 2.53124 v 0.92578 h -2.46093 q -0.22852,0 -0.33399,0.14648 -0.10547,0.14649 -0.10547,0.35743 v 1.81054 h 2.66016 v 0.90235 h -2.66016 v 1.94531 q 0,0.21094 0.10547,0.35742 0.10547,0.14648 0.33399,0.14648 h 2.46093 z"
         id="path136"
         inkscape:connector-curvature="0" />
    </g>
    <g
       aria-label="MW"
       transform="matrix(0.26458333,0,0,0.26458333,0.75081903,-0.24699693)"
       style="font-style:normal;font-variant:normal;font-weight:normal;font-stretch:normal;font-size:12px;line-height:1.25;font-family:Uroob;-inkscape-font-specification:'Uroob, Normal';font-variant-ligatures:normal;font-variant-caps:normal;font-variant-numeric:normal;font-feature-settings:normal;text-align:start;letter-spacing:0px;word-spacing:0px;writing-mode:lr-tb;text-anchor:start;display:none;fill:#e6e6e6;fill-opacity:1;stroke:none"
       id="flowRoot186">
      <path
         d="m 112.71094,363.77148 q 0,-0.33984 0.5625,-0.30468 0.13476,0.0117 0.22265,0.0117 v 0.006 h 0.12305 l 1.79883,4.07227 1.80469,-4.07227 h 0.0644 v -0.006 h 0.49219 q 0.21093,0 0.3164,0.17578 0.0352,0.0527 0.0352,0.11718 v 7.19532 h -1.07813 v -4.63477 l -1.125,2.67188 h -1.01367 l -1.125,-2.42579 v 4.38868 h -1.07812 z"
         id="path194"
         inkscape:connector-curvature="0" />
      <path
         d="m 118.70508,363.73047 q 0,-0.28711 0.36914,-0.25195 h 0.71484 v 4.38867 l 1.24219,-2.89453 h 0.77344 l 1.24804,3.14062 v -4.63476 h 0.67383 q 0.0762,-0.006 0.13477,-0.006 0.2168,0 0.25195,0.14062 0.0352,0.14063 0.0176,0.24609 v 7.10743 h -0.9082 l -1.75782,-3.97852 h -0.0879 l -1.75781,3.97852 h -0.9082 v -7.10743 q -0.0117,-0.0645 -0.006,-0.1289 z"
         id="path196"
         inkscape:connector-curvature="0" />
    </g>
    <a
       style="display:inline;fill:#e6e6e6"
       id="a169"
       transform="translate(0.14467143,1.6172608)">
      <g
         aria-label="CHRD"
         style="font-style:normal;font-variant:normal;font-weight:normal;font-stretch:normal;font-size:3.17499995px;line-height:1.25;font-family:Uroob;-inkscape-font-specification:'Uroob, Normal';font-variant-ligatures:normal;font-variant-caps:normal;font-variant-numeric:normal;font-feature-settings:normal;text-align:start;letter-spacing:0px;word-spacing:0px;writing-mode:lr-tb;text-anchor:start;fill:#e6e6e6;fill-opacity:1;stroke:none;stroke-width:0.26458332"
         id="text167">
        <path
           d="m 18.707459,35.36714 q 0,-0.148828 -0.122473,-0.150378 h -0.272851 q -0.06046,0 -0.08837,0.03876 -0.02791,0.03876 -0.02791,0.09457 v 1.232483 q 0,0.05581 0.02791,0.09457 0.02791,0.03876 0.08837,0.03876 h 0.272851 q 0.119373,0 0.122473,-0.137976 0,-0.03721 0,-0.07131 h 0.280603 v 0.127124 q 0,0.139526 -0.100769,0.232543 -0.100769,0.09147 -0.237195,0.09147 h -0.356567 q -0.144177,0 -0.260449,-0.09147 -0.117822,-0.09147 -0.117822,-0.232543 V 35.29894 q 0,-0.141076 0.117822,-0.234094 0.117822,-0.09302 0.260449,-0.09302 h 0.356567 q 0.137976,0 0.238746,0.09457 0.09922,0.09457 0.09922,0.232544 v 0.142627 h -0.280603 z"
           style="fill:#e6e6e6;stroke-width:0.26458332"
           id="path90"
           inkscape:connector-curvature="0" />
        <path
           d="M 20.318214,36.957741 H 20.03296 v -0.883667 h -0.610816 v 0.883667 H 19.13689 v -1.90376 q 0,-0.03101 0.02325,-0.05426 0.02325,-0.02325 0.05426,-0.02325 h 0.207739 v 0.851111 h 0.610816 v -0.851111 h 0.207739 q 0.03101,0 0.05426,0.02325 0.02326,0.02325 0.02326,0.05426 z"
           style="fill:#e6e6e6;stroke-width:0.26458332"
           id="path92"
           inkscape:connector-curvature="0" />
        <path
           d="M 21.663868,36.963942 H 21.372413 L 20.961585,36.10508 h -0.221692 v 0.858862 H 20.45774 v -1.987476 h 0.765845 q 0.151928,0 0.260449,0.100769 0.10852,0.100769 0.10852,0.252698 v 0.465088 q 0,0.220142 -0.189135,0.288355 -0.05891,0.0217 -0.130225,0.0217 z m -0.351917,-1.235584 v -0.347265 q 0,-0.10387 -0.08062,-0.150379 -0.0248,-0.0155 -0.05736,-0.01395 h -0.434082 v 0.644922 h 0.480591 q 0.07906,-0.0016 0.08837,-0.08527 0.0031,-0.02481 0.0031,-0.04806 z"
           style="fill:#e6e6e6;stroke-width:0.26458332"
           id="path94"
           inkscape:connector-curvature="0" />
        <path
           d="m 22.950611,36.647682 q 0,0.137976 -0.08372,0.224793 -0.08372,0.08527 -0.223242,0.08527 H 21.815793 V 34.97647 h 0.765844 q 0.151929,0 0.260449,0.100769 0.108521,0.100769 0.108521,0.252698 z m -0.280603,-0.06666 v -1.199927 q 0,-0.10387 -0.08061,-0.150379 -0.02481,-0.0155 -0.05736,-0.01395 H 22.09795 v 1.497583 h 0.480591 q 0.07906,-0.0016 0.08837,-0.08527 0.0031,-0.02481 0.0031,-0.04806 z"
           style="fill:#e6e6e6;stroke-width:0.26458332"
           id="path96"
           inkscape:connector-curvature="0" />
      </g>
    </a>
    <g
       aria-label="PWM"
       style="font-style:normal;font-variant:normal;font-weight:normal;font-stretch:normal;font-size:3.17499995px;line-height:1.25;font-family:Uroob;-inkscape-font-specification:'Uroob, Normal';font-variant-ligatures:normal;font-variant-caps:normal;font-variant-numeric:normal;font-feature-settings:normal;text-align:start;letter-spacing:0px;word-spacing:0px;writing-mode:lr-tb;text-anchor:start;display:inline;fill:#e6e6e6;fill-opacity:1;stroke:none;stroke-width:0.26458332"
       id="text918">
      <path
         d="m 19.559065,76.963188 q 0,0.137976 -0.08372,0.224793 -0.08372,0.08527 -0.223242,0.08527 H 18.7064 v 0.858862 h -0.282153 v -1.987475 h 0.765845 q 0.151928,0 0.260449,0.100769 0.10852,0.100769 0.10852,0.252697 z m -0.280603,-0.06666 V 76.54926 q 0,-0.10387 -0.08062,-0.150378 -0.02481,-0.0155 -0.05736,-0.01395 H 18.7064 v 0.644922 h 0.480591 q 0.07906,-0.0016 0.08837,-0.08527 0.0031,-0.02481 0.0031,-0.04806 z"
         style="fill:#e6e6e6;stroke-width:0.26458332"
         id="path920"
         inkscape:connector-curvature="0" />
      <path
         d="m 19.710994,76.211296 q 0,-0.07596 0.09767,-0.06666 H 19.9978 v 1.161169 l 0.328662,-0.765845 h 0.204639 l 0.330212,0.830957 v -1.226281 h 0.178284 q 0.02015,-0.0016 0.03566,-0.0016 0.05736,0 0.06666,0.03721 0.0093,0.03721 0.0047,0.06511 v 1.880505 H 20.90627 l -0.465088,-1.052649 h -0.02325 l -0.465088,1.052649 h -0.240296 v -1.880505 q -0.0031,-0.01705 -0.0016,-0.03411 z"
         style="fill:#e6e6e6;stroke-width:0.26458332"
         id="path922"
         inkscape:connector-curvature="0" />
      <path
         d="m 21.296944,76.222148 q 0,-0.08992 0.148828,-0.08062 0.03566,0.0031 0.05891,0.0031 v 0.0016 h 0.03256 l 0.47594,1.077453 0.47749,-1.077453 h 0.01705 v -0.0016 h 0.130225 q 0.05581,0 0.08372,0.04651 0.0093,0.01395 0.0093,0.03101 v 1.90376 h -0.285254 v -1.226282 l -0.297657,0.706934 h -0.2682 L 21.5822,76.964738 v 1.16117 h -0.285254 z"
         style="fill:#e6e6e6;stroke-width:0.26458332"
         id="path924"
         inkscape:connector-curvature="0" />
    </g>
  </g>
  <g
     inkscape:groupmode="layer"
     id="layer3"
     inkscape:label="components"
     style="display:none">
    <circle
       style="fill:#00ff00;fill-opacity:1;stroke-width:0.26458332"
       id="path113"
       cx="9.0714283"
       cy="47.472946"
       r="2.6458333"
       inkscape:label="octCVIn" />
    <circle
       style="fill:#00ff00;fill-opacity:1;stroke-width:0.26458332"
       id="path113-3"
       cx="9.0714283"
       cy="67.248573"
       r="2.6458333"
       inkscape:label="aftIn" />
    <circle
       style="fill:#00ff00;fill-opacity:1;stroke-width:0.26458332"
       id="path113-6"
       cx="9.0714283"
       cy="87.0242"
       r="2.6458333"
       inkscape:label="pwIn" />
    <circle
       style="fill:#0000ff;fill-opacity:1;stroke-width:0.26458332"
       id="path113-6-5"
       cx="20.32"
       cy="108.77322"
       r="2.6458333"
       inkscape:label="outPort" />
    <circle
       style="fill:#ff0000;fill-opacity:1;stroke-width:0.26458332"
       id="path113-36"
       cx="9.0714283"
       cy="27.697325"
       r="2.6458333"
       inkscape:label="transp" />
    <circle
       style="fill:#ff0000;fill-opacity:1;stroke-width:0.26458332"
       id="path113-7"
       cx="32.08379"
       cy="27.697325"
       r="2.6458333"
       inkscape:label="octave" />
    <circle
       style="fill:#ff0000;fill-opacity:1;stroke-width:0.26458332"
       id="path113-5"
       cx="32.08379"
       cy="47.472954"
       r="2.6458333"
       inkscape:label="tune" />
    <circle
       style="fill:#ff0000;fill-opacity:1;stroke-width:0.26458332"
       id="path113-5-3"
       cx="32.08379"
       cy="67.248573"
       r="2.6458333"
       inkscape:label="unisonSpread" />
    <circle
       style="fill:#00ff00;fill-opacity:1;stroke-width:0.26458332"
       id="path113-6-56"
       cx="32.08379"
       cy="87.0242"
       r="2.6458333"
       inkscape:label="mwIn" />
    <circle
       style="display:inline;fill:#ff0000;fill-opacity:1;stroke-width:0.26458332"
       id="path113-36-6"
       cx="20.577608"
       cy="27.697325"
       r="2.6458333"
       inkscape:label="voicingSel" />
    <circle
       style="display:inline;fill:#ff0000;fill-opacity:1;stroke-width:0.26458332"
       id="path113-5-3-3"
       cx="20.577608"
       cy="67.248573"
       r="2.6458333"
       inkscape:label="PWMamt" />
  </g>
</svg>
